<?xml version="1.0" standalone="no"?><!DOCTYPE svg PUBLIC "-//W3C//DTD SVG 1.1//EN" "http://www.w3.org/Graphics/SVG/1.1/DTD/svg11.dtd" ><svg version="1.1" xmlns="http://www.w3.org/2000/svg"><defs><font horiz-adv-x="0" id="font"><font-face ascent="2368" bbox="-253 -622 4032 3066" cap-height="1536" descent="-544" font-family="Michroma" font-stretch="normal" font-style="normal" font-weight="400" units-per-em="2048" x-height="1152" /><missing-glyph horiz-adv-x="1024" /><glyph d="M1696 352H480L288 0H64L960 1536H1216L2112 0H1888ZM1600 512 1088 1408 576 512Z" glyph-name="A" horiz-adv-x="2176" unicode="A" /><glyph d="M1472 0V352H582L256 0H0L1408 1536H2944V1376H1664V864H2880V704H1664V160H2944V0ZM1472 512V1376L704 512Z" glyph-name="AE" horiz-adv-x="3072" unicode="&#198;" /><glyph d="M2944 2074 2816 2266 2240 1786 2304 1690ZM1600 0V352H710L384 0H128L1536 1536H3072V1376H1792V864H3008V704H1792V160H3072V0ZM1600 512V1376L832 512Z" glyph-name="AEacute" horiz-adv-x="3200" unicode="&#508;" /><glyph d="M1760 352H544L352 0H128L1024 1536H1280L2176 0H1952ZM1664 512 1152 1408 640 512ZM1504 2112 1376 2304 800 1824 864 1728Z" glyph-name="Aacute" horiz-adv-x="2304" unicode="&#193;" /><glyph d="M1760 352H544L352 0H128L1024 1536H1280L2176 0H1952ZM1664 512 1152 1408 640 512ZM1440 1728 1568 1824 1248 2304H1056L736 1824L864 1728L1152 2176Z" glyph-name="Acircumflex" horiz-adv-x="2304" unicode="&#194;" /><glyph d="M1760 352H544L352 0H128L1024 1536H1280L2176 0H1952ZM1664 512 1152 1408 640 512ZM864 1984H672V1792H864ZM1632 1984H1440V1792H1632Z" glyph-name="Adieresis" horiz-adv-x="2304" unicode="&#196;" /><glyph d="M1760 352H544L352 0H128L1024 1536H1280L2176 0H1952ZM1664 512 1152 1408 640 512ZM800 2112 928 2304 1504 1824 1440 1728Z" glyph-name="Agrave" horiz-adv-x="2304" unicode="&#192;" /><glyph d="M768 1690H1536V1850H768ZM1760 352H544L352 0H128L1024 1536H1280L2176 0H1952ZM1664 512 1152 1408 640 512Z" glyph-name="Amacron" horiz-adv-x="2304" unicode="&#256;" /><glyph d="M2082 -555Q2010 -555 1941 -542Q1872 -529 1818 -499Q1764 -469 1731 -420Q1698 -371 1698 -299Q1698 -263 1709 -230Q1720 -197 1738 -168Q1756 -139 1779 -113.5Q1802 -88 1826 -67Q1854 -42.5 1886 -20.5Q1918 1.5 1954 21H2082Q2010 -27 1971 -73.5Q1932 -120 1914 -159Q1896 -198 1893 -226.5Q1890 -255 1890 -267Q1890 -339 1937.5 -367Q1985 -395 2082 -395ZM1760 352H544L352 0H128L1024 1536H1280L2176 0H1952ZM1664 512 1152 1408 640 512Z" glyph-name="Aogonek" horiz-adv-x="2304" unicode="&#260;" /><glyph d="M1760 352H544L352 0H128L1024 1536H1280L2176 0H1952ZM1664 512 1152 1408 640 512ZM1152 2368Q1056 2368 989 2340.5Q922 2313 880 2268Q838 2223 819 2165.5Q800 2108 800 2048Q800 1988 819 1930.5Q838 1873 880 1828Q922 1783 989 1755.5Q1056 1728 1152 1728Q1248 1728 1315 1755.5Q1382 1783 1424 1828Q1466 1873 1485 1930.5Q1504 1988 1504 2048Q1504 2108 1485 2165.5Q1466 2223 1424 2268Q1382 2313 1315 2340.5Q1248 2368 1152 2368ZM1152 1856Q1092 1856 1054.5 1872.5Q1017 1889 996 1916Q975 1943 967.5 1977.5Q960 2012 960 2048Q960 2084 967.5 2118.5Q975 2153 996 2180Q1017 2207 1054.5 2223.5Q1092 2240 1152 2240Q1212 2240 1249.5 2223.5Q1287 2207 1308 2180Q1329 2153 1336.5 2118.5Q1344 2084 1344 2048Q1344 2012 1336.5 1977.5Q1329 1943 1308 1916Q1287 1889 1249.5 1872.5Q1212 1856 1152 1856Z" glyph-name="Aring" horiz-adv-x="2304" unicode="&#197;" /><glyph d="M1792 2874 1664 3066 1088 2586 1152 2490ZM1760 352H544L352 0H128L1024 1536H1280L2176 0H1952ZM1664 512 1152 1408 640 512ZM1152 2368Q1056 2368 989 2340.5Q922 2313 880 2268Q838 2223 819 2165.5Q800 2108 800 2048Q800 1988 819 1930.5Q838 1873 880 1828Q922 1783 989 1755.5Q1056 1728 1152 1728Q1248 1728 1315 1755.5Q1382 1783 1424 1828Q1466 1873 1485 1930.5Q1504 1988 1504 2048Q1504 2108 1485 2165.5Q1466 2223 1424 2268Q1382 2313 1315 2340.5Q1248 2368 1152 2368ZM1152 1856Q1092 1856 1054.5 1872.5Q1017 1889 996 1916Q975 1943 967.5 1977.5Q960 2012 960 2048Q960 2084 967.5 2118.5Q975 2153 996 2180Q1017 2207 1054.5 2223.5Q1092 2240 1152 2240Q1212 2240 1249.5 2223.5Q1287 2207 1308 2180Q1329 2153 1336.5 2118.5Q1344 2084 1344 2048Q1344 2012 1336.5 1977.5Q1329 1943 1308 1916Q1287 1889 1249.5 1872.5Q1212 1856 1152 1856Z" glyph-name="Aringacute" horiz-adv-x="2304" unicode="&#506;" /><glyph d="M1760 352H544L352 0H128L1024 1536H1280L2176 0H1952ZM1664 512 1152 1408 640 512ZM960 1888Q1005 1888 1043.5 1873Q1082 1858 1125 1840Q1168 1822 1220 1807Q1272 1792 1344 1792Q1380 1792 1424.5 1804.5Q1469 1817 1508 1846.5Q1547 1876 1573.5 1925Q1600 1974 1600 2048H1408Q1408 2018 1404 1999Q1400 1980 1392 1969.5Q1384 1959 1372 1955.5Q1360 1952 1344 1952Q1299 1952 1260.5 1967Q1222 1982 1179 2000.5Q1136 2019 1084 2034Q1032 2049 960 2049Q924 2049 879.5 2037.5Q835 2026 796 1997Q757 1968 730.5 1918Q704 1868 704 1792H896Q896 1823 900 1842Q904 1861 912 1871Q920 1881 932 1884.5Q944 1888 960 1888Z" glyph-name="Atilde" horiz-adv-x="2304" unicode="&#195;" /><glyph d="M192 0V1536H1473Q1617 1536 1705 1512.5Q1793 1489 1840.5 1443.5Q1888 1398 1904 1330Q1920 1262 1920 1174Q1920 1110 1909 1061Q1898 1012 1880 976Q1862 940 1839 915.5Q1816 891 1792 875Q1764 856 1732 845.25Q1700 834.5 1664 832Q1709 829.5 1749 818.5Q1789 807.5 1824 788Q1854 771 1882.5 745.5Q1911 720 1933.5 682.5Q1956 645 1970 594.5Q1984 544 1984 478Q1984 398 1976.5 331.5Q1969 265 1946 212Q1923 159 1880 119Q1837 79 1765.5 52.5Q1694 26 1590.5 13Q1487 0 1343 0ZM1279 160Q1391 160 1473 163.5Q1555 167 1612 178.5Q1669 190 1704 211.5Q1739 233 1758.5 268.5Q1778 304 1785 355Q1792 406 1792 478Q1792 534 1785 575.5Q1778 617 1758.5 645.5Q1739 674 1704 691.5Q1669 709 1612 719Q1555 729 1473 732.5Q1391 736 1279 736H384V160ZM1279 896Q1377 896 1448 900Q1519 904 1569 915Q1619 926 1650 945.5Q1681 965 1698.5 996Q1716 1027 1722 1070.5Q1728 1114 1728 1174Q1728 1238 1714 1278Q1700 1318 1664 1339.5Q1628 1361 1566.5 1368.5Q1505 1376 1409 1376H384V896Z" glyph-name="B" horiz-adv-x="2112" unicode="B" /><glyph d="M1791 1056Q1791 1176 1765 1246Q1739 1316 1679 1352Q1619 1388 1521.5 1398Q1424 1408 1280 1408H831Q703 1408 615.5 1400.5Q528 1393 471 1370Q414 1347 383 1304Q352 1261 338 1190Q324 1119 322 1015.5Q320 912 320 768Q320 624 322.5 520.5Q325 417 339 346Q353 275 383.5 232Q414 189 471 166Q528 143 615.5 135.5Q703 128 831 128H1280Q1392 128 1473 134Q1554 140 1611 156Q1668 172 1703 200Q1738 228 1757.5 270.5Q1777 313 1784 372.5Q1791 432 1791 512H1983Q1983 416 1971 338.5Q1959 261 1928.5 200.5Q1898 140 1847 96Q1796 52 1718 23.5Q1640 -5 1532 -18.5Q1424 -32 1280 -32H831Q655 -32 534.5 -10.5Q414 11 336 54.5Q258 98 215.5 164Q173 230 153.5 319Q134 408 131 520Q128 632 128 768Q128 904 131 1016Q134 1128 153.5 1217Q173 1306 215.5 1372Q258 1438 336 1481.5Q414 1525 534.5 1546.5Q655 1568 831 1568H1280Q1424 1568 1532 1554.5Q1640 1541 1718 1513.5Q1796 1486 1847 1444Q1898 1402 1928.5 1345Q1959 1288 1971 1216Q1983 1144 1983 1056Z" glyph-name="C" horiz-adv-x="2111" unicode="C" /><glyph d="M1056 1818 768 2266 640 2170 960 1690H1152L1472 2170L1344 2266ZM1792 1056Q1792 1176 1766 1246Q1740 1316 1680 1352Q1620 1388 1522.5 1398Q1425 1408 1281 1408H832Q704 1408 616.5 1400.5Q529 1393 472 1370Q415 1347 384 1304Q353 1261 339 1190Q325 1119 323 1015.5Q321 912 321 768Q321 624 323.5 520.5Q326 417 340 346Q354 275 384.5 232Q415 189 472 166Q529 143 616.5 135.5Q704 128 832 128H1281Q1393 128 1474 134Q1555 140 1612 156Q1669 172 1704 200Q1739 228 1758.5 270.5Q1778 313 1785 372.5Q1792 432 1792 512H1984Q1984 416 1972 338.5Q1960 261 1929.5 200.5Q1899 140 1848 96Q1797 52 1719 23.5Q1641 -5 1533 -18.5Q1425 -32 1281 -32H832Q656 -32 535.5 -10.5Q415 11 337 54.5Q259 98 216.5 164Q174 230 154.5 319Q135 408 132 520Q129 632 129 768Q129 904 132 1016Q135 1128 154.5 1217Q174 1306 216.5 1372Q259 1438 337 1481.5Q415 1525 535.5 1546.5Q656 1568 832 1568H1281Q1425 1568 1533 1554.5Q1641 1541 1719 1513.5Q1797 1486 1848 1444Q1899 1402 1929.5 1345Q1960 1288 1972 1216Q1984 1144 1984 1056Z" glyph-name="Ccaron" horiz-adv-x="2112" unicode="&#268;" /><glyph d="M959 -384Q1007 -384 1043 -382.5Q1079 -381 1103 -372Q1127 -363 1139 -343.5Q1151 -324 1151 -288Q1151 -276 1148 -264.5Q1145 -253 1127 -244Q1109 -235 1070 -229.5Q1031 -224 959 -224V-32H831Q655 -32 534.5 -10.5Q414 11 336 54.5Q258 98 215.5 164Q173 230 153.5 319Q134 408 131 520Q128 632 128 768Q128 904 131 1016Q134 1128 153.5 1217Q173 1306 215.5 1372Q258 1438 336 1481.5Q414 1525 534.5 1546.5Q655 1568 831 1568H1280Q1424 1568 1532 1554.5Q1640 1541 1718 1513.5Q1796 1486 1847 1444Q1898 1402 1928.5 1345Q1959 1288 1971 1216Q1983 1144 1983 1056H1791Q1791 1176 1765 1246Q1739 1316 1679 1352Q1619 1388 1521.5 1398Q1424 1408 1280 1408H831Q703 1408 615.5 1400.5Q528 1393 471 1370Q414 1347 383 1304Q352 1261 338 1190Q324 1119 322 1015.5Q320 912 320 768Q320 624 322.5 520.5Q325 417 339 346Q353 275 383.5 232Q414 189 471 166Q528 143 615.5 135.5Q703 128 831 128H1280Q1392 128 1473 134Q1554 140 1611 156Q1668 172 1703 200Q1738 228 1757.5 270.5Q1777 313 1784 372.5Q1791 432 1791 512H1983Q1983 416 1971 338.5Q1959 261 1928.5 200.5Q1898 140 1847 96Q1796 52 1718 23.5Q1640 -5 1532 -18.5Q1424 -32 1280 -32H1087V-128Q1135 -128 1181 -135Q1227 -142 1263 -160Q1299 -178 1321 -209Q1343 -240 1343 -288Q1343 -372 1310 -422.5Q1277 -473 1223 -500Q1169 -527 1100 -535.5Q1031 -544 959 -544Z" glyph-name="Ccedilla" horiz-adv-x="2111" unicode="&#199;" /><glyph d="M1343 1690 1471 1786 1151 2266H959L639 1786L767 1690L1055 2138ZM1791 1056Q1791 1176 1765 1246Q1739 1316 1679 1352Q1619 1388 1521.5 1398Q1424 1408 1280 1408H831Q703 1408 615.5 1400.5Q528 1393 471 1370Q414 1347 383 1304Q352 1261 338 1190Q324 1119 322 1015.5Q320 912 320 768Q320 624 322.5 520.5Q325 417 339 346Q353 275 383.5 232Q414 189 471 166Q528 143 615.5 135.5Q703 128 831 128H1280Q1392 128 1473 134Q1554 140 1611 156Q1668 172 1703 200Q1738 228 1757.5 270.5Q1777 313 1784 372.5Q1791 432 1791 512H1983Q1983 416 1971 338.5Q1959 261 1928.5 200.5Q1898 140 1847 96Q1796 52 1718 23.5Q1640 -5 1532 -18.5Q1424 -32 1280 -32H831Q655 -32 534.5 -10.5Q414 11 336 54.5Q258 98 215.5 164Q173 230 153.5 319Q134 408 131 520Q128 632 128 768Q128 904 131 1016Q134 1128 153.5 1217Q173 1306 215.5 1372Q258 1438 336 1481.5Q414 1525 534.5 1546.5Q655 1568 831 1568H1280Q1424 1568 1532 1554.5Q1640 1541 1718 1513.5Q1796 1486 1847 1444Q1898 1402 1928.5 1345Q1959 1288 1971 1216Q1983 1144 1983 1056Z" glyph-name="Ccircumflex" horiz-adv-x="2111" unicode="&#264;" /><glyph d="M1151 1882H959V1690H1151ZM1791 1056Q1791 1176 1765 1246Q1739 1316 1679 1352Q1619 1388 1521.5 1398Q1424 1408 1280 1408H831Q703 1408 615.5 1400.5Q528 1393 471 1370Q414 1347 383 1304Q352 1261 338 1190Q324 1119 322 1015.5Q320 912 320 768Q320 624 322.5 520.5Q325 417 339 346Q353 275 383.5 232Q414 189 471 166Q528 143 615.5 135.5Q703 128 831 128H1280Q1392 128 1473 134Q1554 140 1611 156Q1668 172 1703 200Q1738 228 1757.5 270.5Q1777 313 1784 372.5Q1791 432 1791 512H1983Q1983 416 1971 338.5Q1959 261 1928.5 200.5Q1898 140 1847 96Q1796 52 1718 23.5Q1640 -5 1532 -18.5Q1424 -32 1280 -32H831Q655 -32 534.5 -10.5Q414 11 336 54.5Q258 98 215.5 164Q173 230 153.5 319Q134 408 131 520Q128 632 128 768Q128 904 131 1016Q134 1128 153.5 1217Q173 1306 215.5 1372Q258 1438 336 1481.5Q414 1525 534.5 1546.5Q655 1568 831 1568H1280Q1424 1568 1532 1554.5Q1640 1541 1718 1513.5Q1796 1486 1847 1444Q1898 1402 1928.5 1345Q1959 1288 1971 1216Q1983 1144 1983 1056Z" glyph-name="Cdotaccent" horiz-adv-x="2111" unicode="&#266;" /><glyph d="M1343 160Q1470 160 1558 167Q1646 174 1703 195.5Q1760 217 1791 258Q1822 299 1836.5 366.5Q1851 434 1853.5 532.5Q1856 631 1856 768Q1856 905 1853.5 1003.5Q1851 1102 1836.5 1169.5Q1822 1237 1791 1278Q1760 1319 1703 1340.5Q1646 1362 1558.5 1369Q1471 1376 1343 1376H384V160ZM192 0V1536H1343Q1519 1536 1639.5 1515.5Q1760 1495 1838.5 1453Q1917 1411 1959.5 1348Q2002 1285 2021.5 1199.5Q2041 1114 2044.5 1006.5Q2048 899 2048 768Q2048 637 2044.5 529.5Q2041 422 2021.5 336.5Q2002 251 1959.5 188Q1917 125 1838.5 83Q1760 41 1639.5 20.5Q1519 0 1343 0Z" glyph-name="D" horiz-adv-x="2176" unicode="D" /><glyph d="M0 704H128V0H1279Q1455 0 1575.5 20.5Q1696 41 1774.5 83Q1853 125 1895.5 188Q1938 251 1957.5 336.5Q1977 422 1980.5 529.5Q1984 637 1984 768Q1984 899 1980.5 1006.5Q1977 1114 1957.5 1199.5Q1938 1285 1895.5 1348Q1853 1411 1774.5 1453Q1696 1495 1575.5 1515.5Q1455 1536 1279 1536H128V864H0ZM320 160V704H768V864H320V1376H1279Q1407 1376 1494.5 1369Q1582 1362 1639 1340.5Q1696 1319 1727 1278Q1758 1237 1772.5 1169.5Q1787 1102 1789.5 1003.5Q1792 905 1792 768Q1792 631 1789.5 532.5Q1787 434 1772.5 366.5Q1758 299 1727 258Q1696 217 1639 195.5Q1582 174 1494 167Q1406 160 1279 160Z" glyph-name="Dcroat" horiz-adv-x="2112" unicode="&#272;" /><glyph d="M128 -1 704 1536H960L1536 -1ZM1280 159 832 1408 384 159Z" glyph-name="Delta" horiz-adv-x="1664" unicode="&#8710;" /><glyph d="M192 0V1536H1728V1376H384V864H1664V704H384V160H1728V0Z" glyph-name="E" horiz-adv-x="1792" unicode="E" /><glyph d="M192 0V1536H1728V1376H384V864H1664V704H384V160H1728V0ZM1312 2112 1184 2304 608 1824 672 1728Z" glyph-name="Eacute" horiz-adv-x="1792" unicode="&#201;" /><glyph d="M960 1818 672 2266 544 2170 864 1690H1056L1376 2170L1248 2266ZM192 0V1536H1728V1376H384V864H1664V704H384V160H1728V0Z" glyph-name="Ecaron" horiz-adv-x="1792" unicode="&#282;" /><glyph d="M192 0V1536H1728V1376H384V864H1664V704H384V160H1728V0ZM1248 1728 1376 1824 1056 2304H864L544 1824L672 1728L960 2176Z" glyph-name="Ecircumflex" horiz-adv-x="1792" unicode="&#202;" /><glyph d="M192 0V1536H1728V1376H384V864H1664V704H384V160H1728V0ZM672 1984H480V1792H672ZM1440 1984H1248V1792H1440Z" glyph-name="Edieresis" horiz-adv-x="1792" unicode="&#203;" /><glyph d="M1056 1882H864V1690H1056ZM192 0V1536H1728V1376H384V864H1664V704H384V160H1728V0Z" glyph-name="Edotaccent" horiz-adv-x="1792" unicode="&#278;" /><glyph d="M192 0V1536H1728V1376H384V864H1664V704H384V160H1728V0ZM608 2112 736 2304 1312 1824 1248 1728Z" glyph-name="Egrave" horiz-adv-x="1792" unicode="&#200;" /><glyph d="M576 1690H1344V1850H576ZM192 0V1536H1728V1376H384V864H1664V704H384V160H1728V0Z" glyph-name="Emacron" horiz-adv-x="1792" unicode="&#274;" /><glyph d="M1714 -555Q1642 -555 1573 -542Q1504 -529 1450 -499Q1396 -469 1363 -420Q1330 -371 1330 -299Q1330 -263 1341 -230Q1352 -197 1370 -168Q1388 -139 1411 -113.5Q1434 -88 1458 -67Q1486 -42.5 1518 -20.5Q1550 1.5 1586 21H1714Q1642 -27 1603 -73.5Q1564 -120 1546 -159Q1528 -198 1525 -226.5Q1522 -255 1522 -267Q1522 -339 1569.5 -367Q1617 -395 1714 -395ZM192 0V1536H1728V1376H384V864H1664V704H384V160H1728V0Z" glyph-name="Eogonek" horiz-adv-x="1792" unicode="&#280;" /><glyph d="M0 704H128V0H1279Q1455 0 1575.5 20.5Q1696 41 1774.5 83Q1853 125 1895.5 188Q1938 251 1957.5 336.5Q1977 422 1980.5 529.5Q1984 637 1984 768Q1984 899 1980.5 1006.5Q1977 1114 1957.5 1199.5Q1938 1285 1895.5 1348Q1853 1411 1774.5 1453Q1696 1495 1575.5 1515.5Q1455 1536 1279 1536H128V864H0ZM320 160V704H768V864H320V1376H1279Q1407 1376 1494.5 1369Q1582 1362 1639 1340.5Q1696 1319 1727 1278Q1758 1237 1772.5 1169.5Q1787 1102 1789.5 1003.5Q1792 905 1792 768Q1792 631 1789.5 532.5Q1787 434 1772.5 366.5Q1758 299 1727 258Q1696 217 1639 195.5Q1582 174 1494 167Q1406 160 1279 160Z" glyph-name="Eth" horiz-adv-x="2112" unicode="&#208;" /><glyph d="M525 14Q536 13 558.5 11.5Q581 10 610 9Q639 8 670.5 6.5Q702 5 731 3.5Q760 2 782.5 1Q805 0 816 0H961H1133Q1152 0 1182 0.5Q1212 1 1246 1.5Q1280 2 1315.5 3Q1351 4 1381 4.5Q1411 5 1432 5.5Q1453 6 1459 6Q1565 12 1642.5 36Q1720 60 1773 107Q1826 154 1856.5 228Q1887 302 1899 408Q1904 457 1907 501.5Q1910 546 1911.5 588.5Q1913 631 1913 674.5Q1913 718 1913 766Q1913 837 1913 919Q1913 1001 1905.5 1084Q1898 1167 1878.5 1244.5Q1859 1322 1820 1385Q1781 1448 1718 1491Q1655 1534 1561 1546Q1544 1548 1502 1551.5Q1460 1555 1412.5 1559Q1365 1563 1323 1565.5Q1281 1568 1264 1569H1207H1133Q1121 1568 1084.5 1567.5Q1048 1567 999 1566.5Q950 1566 894.5 1565Q839 1564 790 1563.5Q741 1563 704.5 1562Q668 1561 656 1561Q575 1560 497 1547Q419 1534 353 1501Q287 1468 238 1412.5Q189 1357 166 1272Q151 1216 143 1158.5Q135 1101 132 1043Q129 985 129 927Q129 869 129 811Q129 731 129.5 643.5Q130 556 139 470.5Q148 385 170.5 306Q193 227 237 165Q281 103 351 63Q421 23 525 14ZM318 844V1008Q318 1015 320.5 1041Q323 1067 326 1098Q329 1129 332.5 1158Q336 1187 338 1202Q346 1257 372 1292.5Q398 1328 436 1350Q474 1372 520.5 1382.5Q567 1393 615.5 1397Q664 1401 712 1401Q760 1401 801 1403Q808 1403 834.5 1404Q861 1405 891.5 1406Q922 1407 948 1408Q974 1409 981 1409H1037Q1147 1409 1250.5 1405Q1354 1401 1471 1395Q1541 1393 1588.5 1366Q1636 1339 1665.5 1295Q1695 1251 1708 1193Q1721 1135 1721 1071V504Q1721 425 1710 366Q1699 307 1670 266.5Q1641 226 1590 203Q1539 180 1459 172Q1447 171 1412 169Q1377 167 1337.5 165Q1298 163 1261.5 161.5Q1225 160 1209 160Q1207 159 1188 158.5Q1169 158 1143.5 158Q1118 158 1092 158Q1066 158 1051 158Q1034 158 1005 158Q976 158 947.5 158Q919 158 897 158.5Q875 159 871 160Q834 160 790 161Q746 162 699.5 164Q653 166 608 170Q563 174 525 180Q474 188 439 213Q404 238 381.5 274Q359 310 347.5 353.5Q336 397 332 442Q330 456 328 488Q326 520 323.5 555Q321 590 319.5 621Q318 652 318 664ZM1008 1440Q1011 1440 1011 1437Q1011 1434 1008 1434Q1006 1434 1006 1437Q1006 1440 1008 1440Z" glyph-name="Euro" horiz-adv-x="2042" unicode="&#8364;" /><glyph d="M192 0V1536H1664V1376H384V864H1600V704H384V0Z" glyph-name="F" horiz-adv-x="1728" unicode="F" /><glyph d="M1857 1056Q1857 1176 1831 1246Q1805 1316 1745 1352Q1685 1388 1587 1398Q1489 1408 1345 1408H831Q703 1408 615.5 1400.5Q528 1393 471 1370Q414 1347 383 1304Q352 1261 338 1190Q324 1119 322 1015.5Q320 912 320 768Q320 624 322.5 520.5Q325 417 339 346Q353 275 383.5 232Q414 189 471 166Q528 143 615.5 135.5Q703 128 831 128H1346Q1458 128 1539 134Q1620 140 1677 156Q1734 172 1769 200Q1804 228 1823.5 270.5Q1843 313 1850 372.5Q1857 432 1857 512V608H1087V768H2049V512Q2049 416 2037 338.5Q2025 261 1994.5 200.5Q1964 140 1913 96Q1862 52 1784 23.5Q1706 -5 1598 -18.5Q1490 -32 1346 -32H831Q655 -32 534.5 -10.5Q414 11 336 54.5Q258 98 215.5 164Q173 230 153.5 319Q134 408 131 520Q128 632 128 768Q128 904 131 1016Q134 1128 153.5 1217Q173 1306 215.5 1372Q258 1438 336 1481.5Q414 1525 534.5 1546.5Q655 1568 831 1568H1345Q1489 1568 1597 1554.5Q1705 1541 1783 1513.5Q1861 1486 1912.5 1444Q1964 1402 1994.5 1345Q2025 1288 2037 1216Q2049 1144 2049 1056Z" glyph-name="G" horiz-adv-x="2177" unicode="G" /><glyph d="M704 2010Q704 1842 800 1766Q896 1690 1088 1690Q1280 1690 1376 1766Q1472 1842 1472 2010H1312Q1312 1938 1295 1899Q1278 1860 1248 1842Q1218 1824 1177 1821Q1136 1818 1088 1818Q1040 1818 999 1821Q958 1824 928 1842Q898 1860 881 1899Q864 1938 864 2010ZM1857 1056Q1857 1176 1831 1246Q1805 1316 1745 1352Q1685 1388 1587 1398Q1489 1408 1345 1408H831Q703 1408 615.5 1400.5Q528 1393 471 1370Q414 1347 383 1304Q352 1261 338 1190Q324 1119 322 1015.5Q320 912 320 768Q320 624 322.5 520.5Q325 417 339 346Q353 275 383.5 232Q414 189 471 166Q528 143 615.5 135.5Q703 128 831 128H1346Q1458 128 1539 134Q1620 140 1677 156Q1734 172 1769 200Q1804 228 1823.5 270.5Q1843 313 1850 372.5Q1857 432 1857 512V608H1087V768H2049V512Q2049 416 2037 338.5Q2025 261 1994.5 200.5Q1964 140 1913 96Q1862 52 1784 23.5Q1706 -5 1598 -18.5Q1490 -32 1346 -32H831Q655 -32 534.5 -10.5Q414 11 336 54.5Q258 98 215.5 164Q173 230 153.5 319Q134 408 131 520Q128 632 128 768Q128 904 131 1016Q134 1128 153.5 1217Q173 1306 215.5 1372Q258 1438 336 1481.5Q414 1525 534.5 1546.5Q655 1568 831 1568H1345Q1489 1568 1597 1554.5Q1705 1541 1783 1513.5Q1861 1486 1912.5 1444Q1964 1402 1994.5 1345Q2025 1288 2037 1216Q2049 1144 2049 1056Z" glyph-name="Gbreve" horiz-adv-x="2177" unicode="&#286;" /><glyph d="M1089 1818 801 2266 673 2170 993 1690H1185L1505 2170L1377 2266ZM1858 1056Q1858 1176 1832 1246Q1806 1316 1746 1352Q1686 1388 1588 1398Q1490 1408 1346 1408H832Q704 1408 616.5 1400.5Q529 1393 472 1370Q415 1347 384 1304Q353 1261 339 1190Q325 1119 323 1015.5Q321 912 321 768Q321 624 323.5 520.5Q326 417 340 346Q354 275 384.5 232Q415 189 472 166Q529 143 616.5 135.5Q704 128 832 128H1347Q1459 128 1540 134Q1621 140 1678 156Q1735 172 1770 200Q1805 228 1824.5 270.5Q1844 313 1851 372.5Q1858 432 1858 512V608H1088V768H2050V512Q2050 416 2038 338.5Q2026 261 1995.5 200.5Q1965 140 1914 96Q1863 52 1785 23.5Q1707 -5 1599 -18.5Q1491 -32 1347 -32H832Q656 -32 535.5 -10.5Q415 11 337 54.5Q259 98 216.5 164Q174 230 154.5 319Q135 408 132 520Q129 632 129 768Q129 904 132 1016Q135 1128 154.5 1217Q174 1306 216.5 1372Q259 1438 337 1481.5Q415 1525 535.5 1546.5Q656 1568 832 1568H1346Q1490 1568 1598 1554.5Q1706 1541 1784 1513.5Q1862 1486 1913.5 1444Q1965 1402 1995.5 1345Q2026 1288 2038 1216Q2050 1144 2050 1056Z" glyph-name="Gcaron" horiz-adv-x="2178" unicode="&#486;" /><glyph d="M1376 1690 1504 1786 1184 2266H992L672 1786L800 1690L1088 2138ZM1857 1056Q1857 1176 1831 1246Q1805 1316 1745 1352Q1685 1388 1587 1398Q1489 1408 1345 1408H831Q703 1408 615.5 1400.5Q528 1393 471 1370Q414 1347 383 1304Q352 1261 338 1190Q324 1119 322 1015.5Q320 912 320 768Q320 624 322.5 520.5Q325 417 339 346Q353 275 383.5 232Q414 189 471 166Q528 143 615.5 135.5Q703 128 831 128H1346Q1458 128 1539 134Q1620 140 1677 156Q1734 172 1769 200Q1804 228 1823.5 270.5Q1843 313 1850 372.5Q1857 432 1857 512V608H1087V768H2049V512Q2049 416 2037 338.5Q2025 261 1994.5 200.5Q1964 140 1913 96Q1862 52 1784 23.5Q1706 -5 1598 -18.5Q1490 -32 1346 -32H831Q655 -32 534.5 -10.5Q414 11 336 54.5Q258 98 215.5 164Q173 230 153.5 319Q134 408 131 520Q128 632 128 768Q128 904 131 1016Q134 1128 153.5 1217Q173 1306 215.5 1372Q258 1438 336 1481.5Q414 1525 534.5 1546.5Q655 1568 831 1568H1345Q1489 1568 1597 1554.5Q1705 1541 1783 1513.5Q1861 1486 1912.5 1444Q1964 1402 1994.5 1345Q2025 1288 2037 1216Q2049 1144 2049 1056Z" glyph-name="Gcircumflex" horiz-adv-x="2177" unicode="&#284;" /><glyph d="M1025 -152H1217L1089 -536H961ZM1857 1056Q1857 1176 1831 1246Q1805 1316 1745 1352Q1685 1388 1587 1398Q1489 1408 1345 1408H831Q703 1408 615.5 1400.5Q528 1393 471 1370Q414 1347 383 1304Q352 1261 338 1190Q324 1119 322 1015.5Q320 912 320 768Q320 624 322.5 520.5Q325 417 339 346Q353 275 383.5 232Q414 189 471 166Q528 143 615.5 135.5Q703 128 831 128H1346Q1458 128 1539 134Q1620 140 1677 156Q1734 172 1769 200Q1804 228 1823.5 270.5Q1843 313 1850 372.5Q1857 432 1857 512V608H1087V768H2049V512Q2049 416 2037 338.5Q2025 261 1994.5 200.5Q1964 140 1913 96Q1862 52 1784 23.5Q1706 -5 1598 -18.5Q1490 -32 1346 -32H831Q655 -32 534.5 -10.5Q414 11 336 54.5Q258 98 215.5 164Q173 230 153.5 319Q134 408 131 520Q128 632 128 768Q128 904 131 1016Q134 1128 153.5 1217Q173 1306 215.5 1372Q258 1438 336 1481.5Q414 1525 534.5 1546.5Q655 1568 831 1568H1345Q1489 1568 1597 1554.5Q1705 1541 1783 1513.5Q1861 1486 1912.5 1444Q1964 1402 1994.5 1345Q2025 1288 2037 1216Q2049 1144 2049 1056Z" glyph-name="Gcommaaccent" horiz-adv-x="2177" unicode="&#290;" /><glyph d="M1184 1882H992V1690H1184ZM1857 1056Q1857 1176 1831 1246Q1805 1316 1745 1352Q1685 1388 1587 1398Q1489 1408 1345 1408H831Q703 1408 615.5 1400.5Q528 1393 471 1370Q414 1347 383 1304Q352 1261 338 1190Q324 1119 322 1015.5Q320 912 320 768Q320 624 322.5 520.5Q325 417 339 346Q353 275 383.5 232Q414 189 471 166Q528 143 615.5 135.5Q703 128 831 128H1346Q1458 128 1539 134Q1620 140 1677 156Q1734 172 1769 200Q1804 228 1823.5 270.5Q1843 313 1850 372.5Q1857 432 1857 512V608H1087V768H2049V512Q2049 416 2037 338.5Q2025 261 1994.5 200.5Q1964 140 1913 96Q1862 52 1784 23.5Q1706 -5 1598 -18.5Q1490 -32 1346 -32H831Q655 -32 534.5 -10.5Q414 11 336 54.5Q258 98 215.5 164Q173 230 153.5 319Q134 408 131 520Q128 632 128 768Q128 904 131 1016Q134 1128 153.5 1217Q173 1306 215.5 1372Q258 1438 336 1481.5Q414 1525 534.5 1546.5Q655 1568 831 1568H1345Q1489 1568 1597 1554.5Q1705 1541 1783 1513.5Q1861 1486 1912.5 1444Q1964 1402 1994.5 1345Q2025 1288 2037 1216Q2049 1144 2049 1056Z" glyph-name="Gdotaccent" horiz-adv-x="2177" unicode="&#288;" /><glyph d="M1792 1536H1984V0H1792V704H384V0H192V1536H384V864H1792Z" glyph-name="H" horiz-adv-x="2176" unicode="H" /><glyph d="M1312 1690 1440 1786 1120 2266H928L608 1786L736 1690L1024 2138ZM1729 1536H1921V0H1729V704H321V0H129V1536H321V864H1729Z" glyph-name="Hcircumflex" horiz-adv-x="2048" unicode="&#292;" /><glyph d="M192 1536H384V0H192Z" glyph-name="I" horiz-adv-x="576" unicode="I" /><glyph d="M1024 0Q880 0 792 26Q704 52 656 112Q608 172 592 270Q576 368 576 512V576H768V512Q768 392 781 321.5Q794 251 824 214Q854 177 903 166.5Q952 156 1024 156H1472Q1568 156 1630 173.5Q1692 191 1728 227Q1764 263 1778 318Q1792 373 1792 448V1536H1984V448Q1984 328 1958 243Q1932 158 1872 104Q1812 50 1714 25Q1616 0 1472 0ZM129 1536H321V0H129Z" glyph-name="IJ" horiz-adv-x="2112" unicode="&#306;" /><glyph d="M129 1536H321V0H129ZM579 2112 451 2304 -125 1824 -61 1728Z" glyph-name="Iacute" horiz-adv-x="448" unicode="&#205;" /><glyph d="M-159 2010Q-159 1842 -63 1766Q33 1690 225 1690Q417 1690 513 1766Q609 1842 609 2010H449Q449 1938 432 1899Q415 1860 385 1842Q355 1824 314 1821Q273 1818 225 1818Q177 1818 136 1821Q95 1824 65 1842Q35 1860 18 1899Q1 1938 1 2010ZM129 1536H321V0H129Z" glyph-name="Ibreve" horiz-adv-x="448" unicode="&#300;" /><glyph d="M129 1536H321V0H129ZM515 1728 643 1824 323 2304H131L-189 1824L-61 1728L227 2176Z" glyph-name="Icircumflex" horiz-adv-x="448" unicode="&#206;" /><glyph d="M129 1536H321V0H129ZM-61 1984H-253V1792H-61ZM707 1984H515V1792H707Z" glyph-name="Idieresis" horiz-adv-x="448" unicode="&#207;" /><glyph d="M320 1882H128V1690H320ZM129 1536H321V0H129Z" glyph-name="Idotaccent" horiz-adv-x="448" unicode="&#304;" /><glyph d="M129 1536H321V0H129ZM-125 2112 3 2304 579 1824 515 1728Z" glyph-name="Igrave" horiz-adv-x="448" unicode="&#204;" /><glyph d="M-158 1690H610V1850H-158ZM129 1536H321V0H129Z" glyph-name="Imacron" horiz-adv-x="448" unicode="&#298;" /><glyph d="M290 -555Q218 -555 149 -542Q80 -529 26 -499Q-28 -469 -61 -420Q-94 -371 -94 -299Q-94 -263 -83 -230Q-72 -197 -54 -168Q-36 -139 -13 -113.5Q10 -88 34 -67Q62 -42.5 94 -20.5Q126 1.5 162 21H290Q218 -27 179 -73.5Q140 -120 122 -159Q104 -198 101 -226.5Q98 -255 98 -267Q98 -339 145.5 -367Q193 -395 290 -395ZM129 1536H321V0H129Z" glyph-name="Iogonek" horiz-adv-x="448" unicode="&#302;" /><glyph d="M34 1786Q79 1786 117.5 1771Q156 1756 199 1738Q242 1720 294 1705Q346 1690 418 1690Q454 1690 498.5 1702.5Q543 1715 582 1744.5Q621 1774 647.5 1823Q674 1872 674 1946H482Q482 1916 478 1897Q474 1878 466 1867.5Q458 1857 446 1853.5Q434 1850 418 1850Q373 1850 334.5 1865Q296 1880 253 1898.5Q210 1917 158 1932Q106 1947 34 1947Q-2 1947 -46.5 1935.5Q-91 1924 -130 1895Q-169 1866 -195.5 1816Q-222 1766 -222 1690H-30Q-30 1721 -26 1740Q-22 1759 -14 1769Q-6 1779 6 1782.5Q18 1786 34 1786ZM129 1536H321V0H129Z" glyph-name="Itilde" horiz-adv-x="448" unicode="&#296;" /><glyph d="M576 0Q432 0 344 26Q256 52 208 112Q160 172 144 270Q128 368 128 512V576H320V512Q320 392 333 321.5Q346 251 376 214Q406 177 455 166.5Q504 156 576 156H1024Q1120 156 1182 173.5Q1244 191 1280 227Q1316 263 1330 318Q1344 373 1344 448V1536H1536V448Q1536 328 1510 243Q1484 158 1424 104Q1364 50 1266 25Q1168 0 1024 0Z" glyph-name="J" horiz-adv-x="1715" unicode="J" /><glyph d="M1728 1690 1856 1786 1536 2266H1344L1024 1786L1152 1690L1440 2138ZM576 0Q432 0 344 26Q256 52 208 112Q160 172 144 270Q128 368 128 512V576H320V512Q320 392 333 321.5Q346 251 376 214Q406 177 455 166.5Q504 156 576 156H1024Q1120 156 1182 173.5Q1244 191 1280 227Q1316 263 1330 318Q1344 373 1344 448V1536H1536V448Q1536 328 1510 243Q1484 158 1424 104Q1364 50 1266 25Q1168 0 1024 0Z" glyph-name="Jcircumflex" horiz-adv-x="1664" unicode="&#308;" /><glyph d="M1632 1536H1920L832 784L1952 0H1664L640 704H384V0H192V1536H384V864H640Z" glyph-name="K" horiz-adv-x="2016" unicode="K" /><glyph d="M944 -120H1136L1008 -504H880ZM1569 1536H1857L769 784L1889 0H1601L577 704H321V0H129V1536H321V864H577Z" glyph-name="Kcommaaccent" horiz-adv-x="2016" unicode="&#310;" /><glyph d="M192 0V1536H384V160H1600V0Z" glyph-name="L" horiz-adv-x="1664" unicode="L" /><glyph d="M1536 2074 1408 2266 832 1786 896 1690ZM192 0V1536H384V160H1600V0Z" glyph-name="Lacute" horiz-adv-x="1664" unicode="&#313;" /><glyph d="M831 1568H1023L895 1184H767ZM192 0V1536H384V160H1600V0Z" glyph-name="Lcaron" horiz-adv-x="1664" unicode="&#317;" /><glyph d="M832 -120H1024L896 -504H768ZM192 0V1536H384V160H1600V0Z" glyph-name="Lcommaaccent" horiz-adv-x="1664" unicode="&#315;" /><glyph d="M992 881H800V689H992ZM192 0V1536H384V160H1600V0Z" glyph-name="Ldot" horiz-adv-x="1664" unicode="&#319;" /><glyph d="M64 768 768 928V1088L64 928ZM1600 0V160H384V1536H192V0Z" glyph-name="Lslash" horiz-adv-x="1664" unicode="&#321;" /><glyph d="M384 1408V0H192V1536H512L1407 192L2302 1536H2608V0H2416V1387L1504 0H1310Z" glyph-name="M" horiz-adv-x="2800" unicode="M" /><glyph d="M384 0H192V1536H529L1937 192V1536H2129V0H1873L384 1376Z" glyph-name="N" horiz-adv-x="2321" unicode="N" /><glyph glyph-name="NULL" horiz-adv-x="0" /><glyph d="M1736 2074 1608 2266 1032 1786 1096 1690ZM321 0H129V1536H466L1874 192V1536H2066V0H1810L321 1376Z" glyph-name="Nacute" horiz-adv-x="2193" unicode="&#323;" /><glyph d="M1096 1818 808 2266 680 2170 1000 1690H1192L1512 2170L1384 2266ZM321 0H129V1536H466L1874 192V1536H2066V0H1810L321 1376Z" glyph-name="Ncaron" horiz-adv-x="2193" unicode="&#327;" /><glyph d="M1032 -121H1224L1096 -505H968ZM321 0H129V1536H466L1874 192V1536H2066V0H1810L321 1376Z" glyph-name="Ncommaaccent" horiz-adv-x="2193" unicode="&#325;" /><glyph d="M321 0H129V1536H466L1874 192V1536H2066V0H1810L321 1376ZM904 1888Q949 1888 987.5 1873Q1026 1858 1069 1840Q1112 1822 1164 1807Q1216 1792 1288 1792Q1324 1792 1368.5 1804.5Q1413 1817 1452 1846.5Q1491 1876 1517.5 1925Q1544 1974 1544 2048H1352Q1352 2018 1348 1999Q1344 1980 1336 1969.5Q1328 1959 1316 1955.5Q1304 1952 1288 1952Q1243 1952 1204.5 1967Q1166 1982 1123 2000.5Q1080 2019 1028 2034Q976 2049 904 2049Q868 2049 823.5 2037.5Q779 2026 740 1997Q701 1968 674.5 1918Q648 1868 648 1792H840Q840 1823 844 1842Q848 1861 856 1871Q864 1881 876 1884.5Q888 1888 904 1888Z" glyph-name="Ntilde" horiz-adv-x="2193" unicode="&#209;" /><glyph d="M1409 1568Q1585 1568 1705.5 1546.5Q1826 1525 1904 1481.5Q1982 1438 2024 1372Q2066 1306 2085.5 1217Q2105 1128 2108.5 1016Q2112 904 2112 768Q2112 632 2108.5 520Q2105 408 2085.5 319Q2066 230 2024 164Q1982 98 1904 54.5Q1826 11 1705.5 -10.5Q1585 -32 1409 -32H831Q655 -32 534.5 -10.5Q414 11 336 54.5Q258 98 215.5 164Q173 230 153.5 319Q134 408 131 520Q128 632 128 768Q128 904 131 1016Q134 1128 153.5 1217Q173 1306 215.5 1372Q258 1438 336 1481.5Q414 1525 534.5 1546.5Q655 1568 831 1568ZM1409 128Q1536 128 1623.5 135.5Q1711 143 1768 166Q1825 189 1856 232Q1887 275 1901 346Q1915 417 1917.5 520.5Q1920 624 1920 768Q1920 912 1917.5 1015.5Q1915 1119 1901 1190Q1887 1261 1856 1304Q1825 1347 1768.5 1370Q1712 1393 1624.5 1400.5Q1537 1408 1409 1408H831Q703 1408 615.5 1400.5Q528 1393 471 1370Q414 1347 383 1304Q352 1261 338 1190Q324 1119 322 1015.5Q320 912 320 768Q320 624 322.5 520.5Q325 417 339 346Q353 275 383.5 232Q414 189 471 166Q528 143 615.5 135.5Q703 128 831 128Z" glyph-name="O" horiz-adv-x="2240" unicode="O" /><glyph d="M1920 0V64Q1842 16 1718 -8Q1594 -32 1409 -32H831Q655 -32 534.5 -10.5Q414 11 336 54.5Q258 98 215.5 164Q173 230 153.5 319Q134 408 131 520Q128 632 128 768Q128 904 131 1016Q134 1128 153.5 1217Q173 1306 215.5 1372Q258 1438 336 1481.5Q414 1525 534.5 1546.5Q655 1568 831 1564H1409Q1594 1568 1718 1544Q1842 1520 1920 1472V1536H3456V1376H2112V864H3392V704H2112V160H3456V0ZM1409 128Q1536 128 1623.5 135.5Q1711 143 1768 166Q1825 189 1856 232Q1887 275 1901 346Q1915 417 1917.5 520.5Q1920 624 1920 768Q1920 912 1917.5 1015.5Q1915 1119 1901 1190Q1887 1261 1856 1304Q1825 1347 1768.5 1370Q1712 1393 1624.5 1398.5Q1537 1404 1409 1404H831Q703 1408 615.5 1400.5Q528 1393 471 1370Q414 1347 383 1304Q352 1261 338 1190Q324 1119 322 1015.5Q320 912 320 768Q320 624 322.5 520.5Q325 417 339 346Q353 275 383.5 232Q414 189 471 166Q528 143 615.5 135.5Q703 128 831 128Z" glyph-name="OE" horiz-adv-x="3520" unicode="&#338;" /><glyph d="M1409 1568Q1585 1568 1705.5 1546.5Q1826 1525 1904 1481.5Q1982 1438 2024 1372Q2066 1306 2085.5 1217Q2105 1128 2108.5 1016Q2112 904 2112 768Q2112 632 2108.5 520Q2105 408 2085.5 319Q2066 230 2024 164Q1982 98 1904 54.5Q1826 11 1705.5 -10.5Q1585 -32 1409 -32H831Q655 -32 534.5 -10.5Q414 11 336 54.5Q258 98 215.5 164Q173 230 153.5 319Q134 408 131 520Q128 632 128 768Q128 904 131 1016Q134 1128 153.5 1217Q173 1306 215.5 1372Q258 1438 336 1481.5Q414 1525 534.5 1546.5Q655 1568 831 1568ZM1409 128Q1536 128 1623.5 135.5Q1711 143 1768 166Q1825 189 1856 232Q1887 275 1901 346Q1915 417 1917.5 520.5Q1920 624 1920 768Q1920 912 1917.5 1015.5Q1915 1119 1901 1190Q1887 1261 1856 1304Q1825 1347 1768.5 1370Q1712 1393 1624.5 1400.5Q1537 1408 1409 1408H831Q703 1408 615.5 1400.5Q528 1393 471 1370Q414 1347 383 1304Q352 1261 338 1190Q324 1119 322 1015.5Q320 912 320 768Q320 624 322.5 520.5Q325 417 339 346Q353 275 383.5 232Q414 189 471 166Q528 143 615.5 135.5Q703 128 831 128ZM1471 2112 1343 2304 767 1824 831 1728Z" glyph-name="Oacute" horiz-adv-x="2240" unicode="&#211;" /><glyph d="M737 2010Q737 1842 833 1766Q929 1690 1121 1690Q1313 1690 1409 1766Q1505 1842 1505 2010H1345Q1345 1938 1328 1899Q1311 1860 1281 1842Q1251 1824 1210 1821Q1169 1818 1121 1818Q1073 1818 1032 1821Q991 1824 961 1842Q931 1860 914 1899Q897 1938 897 2010ZM1410 1568Q1586 1568 1706.5 1546.5Q1827 1525 1905 1481.5Q1983 1438 2025 1372Q2067 1306 2086.5 1217Q2106 1128 2109.5 1016Q2113 904 2113 768Q2113 632 2109.5 520Q2106 408 2086.5 319Q2067 230 2025 164Q1983 98 1905 54.5Q1827 11 1706.5 -10.5Q1586 -32 1410 -32H832Q656 -32 535.5 -10.5Q415 11 337 54.5Q259 98 216.5 164Q174 230 154.5 319Q135 408 132 520Q129 632 129 768Q129 904 132 1016Q135 1128 154.5 1217Q174 1306 216.5 1372Q259 1438 337 1481.5Q415 1525 535.5 1546.5Q656 1568 832 1568ZM1410 128Q1537 128 1624.5 135.5Q1712 143 1769 166Q1826 189 1857 232Q1888 275 1902 346Q1916 417 1918.5 520.5Q1921 624 1921 768Q1921 912 1918.5 1015.5Q1916 1119 1902 1190Q1888 1261 1857 1304Q1826 1347 1769.5 1370Q1713 1393 1625.5 1400.5Q1538 1408 1410 1408H832Q704 1408 616.5 1400.5Q529 1393 472 1370Q415 1347 384 1304Q353 1261 339 1190Q325 1119 323 1015.5Q321 912 321 768Q321 624 323.5 520.5Q326 417 340 346Q354 275 384.5 232Q415 189 472 166Q529 143 616.5 135.5Q704 128 832 128Z" glyph-name="Obreve" horiz-adv-x="2241" unicode="&#334;" /><glyph d="M1409 1568Q1585 1568 1705.5 1546.5Q1826 1525 1904 1481.5Q1982 1438 2024 1372Q2066 1306 2085.5 1217Q2105 1128 2108.5 1016Q2112 904 2112 768Q2112 632 2108.5 520Q2105 408 2085.5 319Q2066 230 2024 164Q1982 98 1904 54.5Q1826 11 1705.5 -10.5Q1585 -32 1409 -32H831Q655 -32 534.5 -10.5Q414 11 336 54.5Q258 98 215.5 164Q173 230 153.5 319Q134 408 131 520Q128 632 128 768Q128 904 131 1016Q134 1128 153.5 1217Q173 1306 215.5 1372Q258 1438 336 1481.5Q414 1525 534.5 1546.5Q655 1568 831 1568ZM1409 128Q1536 128 1623.5 135.5Q1711 143 1768 166Q1825 189 1856 232Q1887 275 1901 346Q1915 417 1917.5 520.5Q1920 624 1920 768Q1920 912 1917.5 1015.5Q1915 1119 1901 1190Q1887 1261 1856 1304Q1825 1347 1768.5 1370Q1712 1393 1624.5 1400.5Q1537 1408 1409 1408H831Q703 1408 615.5 1400.5Q528 1393 471 1370Q414 1347 383 1304Q352 1261 338 1190Q324 1119 322 1015.5Q320 912 320 768Q320 624 322.5 520.5Q325 417 339 346Q353 275 383.5 232Q414 189 471 166Q528 143 615.5 135.5Q703 128 831 128ZM1407 1728 1535 1824 1215 2304H1023L703 1824L831 1728L1119 2176Z" glyph-name="Ocircumflex" horiz-adv-x="2240" unicode="&#212;" /><glyph d="M1409 1568Q1585 1568 1705.5 1546.5Q1826 1525 1904 1481.5Q1982 1438 2024 1372Q2066 1306 2085.5 1217Q2105 1128 2108.5 1016Q2112 904 2112 768Q2112 632 2108.5 520Q2105 408 2085.5 319Q2066 230 2024 164Q1982 98 1904 54.5Q1826 11 1705.5 -10.5Q1585 -32 1409 -32H831Q655 -32 534.5 -10.5Q414 11 336 54.5Q258 98 215.5 164Q173 230 153.5 319Q134 408 131 520Q128 632 128 768Q128 904 131 1016Q134 1128 153.5 1217Q173 1306 215.5 1372Q258 1438 336 1481.5Q414 1525 534.5 1546.5Q655 1568 831 1568ZM1409 128Q1536 128 1623.5 135.5Q1711 143 1768 166Q1825 189 1856 232Q1887 275 1901 346Q1915 417 1917.5 520.5Q1920 624 1920 768Q1920 912 1917.5 1015.5Q1915 1119 1901 1190Q1887 1261 1856 1304Q1825 1347 1768.5 1370Q1712 1393 1624.5 1400.5Q1537 1408 1409 1408H831Q703 1408 615.5 1400.5Q528 1393 471 1370Q414 1347 383 1304Q352 1261 338 1190Q324 1119 322 1015.5Q320 912 320 768Q320 624 322.5 520.5Q325 417 339 346Q353 275 383.5 232Q414 189 471 166Q528 143 615.5 135.5Q703 128 831 128ZM831 1984H639V1792H831ZM1599 1984H1407V1792H1599Z" glyph-name="Odieresis" horiz-adv-x="2240" unicode="&#214;" /><glyph d="M1409 1568Q1585 1568 1705.5 1546.5Q1826 1525 1904 1481.5Q1982 1438 2024 1372Q2066 1306 2085.5 1217Q2105 1128 2108.5 1016Q2112 904 2112 768Q2112 632 2108.5 520Q2105 408 2085.5 319Q2066 230 2024 164Q1982 98 1904 54.5Q1826 11 1705.5 -10.5Q1585 -32 1409 -32H831Q655 -32 534.5 -10.5Q414 11 336 54.5Q258 98 215.5 164Q173 230 153.5 319Q134 408 131 520Q128 632 128 768Q128 904 131 1016Q134 1128 153.5 1217Q173 1306 215.5 1372Q258 1438 336 1481.5Q414 1525 534.5 1546.5Q655 1568 831 1568ZM1409 128Q1536 128 1623.5 135.5Q1711 143 1768 166Q1825 189 1856 232Q1887 275 1901 346Q1915 417 1917.5 520.5Q1920 624 1920 768Q1920 912 1917.5 1015.5Q1915 1119 1901 1190Q1887 1261 1856 1304Q1825 1347 1768.5 1370Q1712 1393 1624.5 1400.5Q1537 1408 1409 1408H831Q703 1408 615.5 1400.5Q528 1393 471 1370Q414 1347 383 1304Q352 1261 338 1190Q324 1119 322 1015.5Q320 912 320 768Q320 624 322.5 520.5Q325 417 339 346Q353 275 383.5 232Q414 189 471 166Q528 143 615.5 135.5Q703 128 831 128ZM767 2112 895 2304 1471 1824 1407 1728Z" glyph-name="Ograve" horiz-adv-x="2240" unicode="&#210;" /><glyph d="M1484 2074 1356 2266 780 1786 844 1690ZM2037 2074 1909 2266 1333 1786 1397 1690ZM1410 1568Q1586 1568 1706.5 1546.5Q1827 1525 1905 1481.5Q1983 1438 2025 1372Q2067 1306 2086.5 1217Q2106 1128 2109.5 1016Q2113 904 2113 768Q2113 632 2109.5 520Q2106 408 2086.5 319Q2067 230 2025 164Q1983 98 1905 54.5Q1827 11 1706.5 -10.5Q1586 -32 1410 -32H832Q656 -32 535.5 -10.5Q415 11 337 54.5Q259 98 216.5 164Q174 230 154.5 319Q135 408 132 520Q129 632 129 768Q129 904 132 1016Q135 1128 154.5 1217Q174 1306 216.5 1372Q259 1438 337 1481.5Q415 1525 535.5 1546.5Q656 1568 832 1568ZM1410 128Q1537 128 1624.5 135.5Q1712 143 1769 166Q1826 189 1857 232Q1888 275 1902 346Q1916 417 1918.5 520.5Q1921 624 1921 768Q1921 912 1918.5 1015.5Q1916 1119 1902 1190Q1888 1261 1857 1304Q1826 1347 1769.5 1370Q1713 1393 1625.5 1400.5Q1538 1408 1410 1408H832Q704 1408 616.5 1400.5Q529 1393 472 1370Q415 1347 384 1304Q353 1261 339 1190Q325 1119 323 1015.5Q321 912 321 768Q321 624 323.5 520.5Q326 417 340 346Q354 275 384.5 232Q415 189 472 166Q529 143 616.5 135.5Q704 128 832 128Z" glyph-name="Ohungarumlaut" horiz-adv-x="2241" unicode="&#336;" /><glyph d="M737 1690H1505V1850H737ZM1410 1568Q1586 1568 1706.5 1546.5Q1827 1525 1905 1481.5Q1983 1438 2025 1372Q2067 1306 2086.5 1217Q2106 1128 2109.5 1016Q2113 904 2113 768Q2113 632 2109.5 520Q2106 408 2086.5 319Q2067 230 2025 164Q1983 98 1905 54.5Q1827 11 1706.5 -10.5Q1586 -32 1410 -32H832Q656 -32 535.5 -10.5Q415 11 337 54.5Q259 98 216.5 164Q174 230 154.5 319Q135 408 132 520Q129 632 129 768Q129 904 132 1016Q135 1128 154.5 1217Q174 1306 216.5 1372Q259 1438 337 1481.5Q415 1525 535.5 1546.5Q656 1568 832 1568ZM1410 128Q1537 128 1624.5 135.5Q1712 143 1769 166Q1826 189 1857 232Q1888 275 1902 346Q1916 417 1918.5 520.5Q1921 624 1921 768Q1921 912 1918.5 1015.5Q1916 1119 1902 1190Q1888 1261 1857 1304Q1826 1347 1769.5 1370Q1713 1393 1625.5 1400.5Q1538 1408 1410 1408H832Q704 1408 616.5 1400.5Q529 1393 472 1370Q415 1347 384 1304Q353 1261 339 1190Q325 1119 323 1015.5Q321 912 321 768Q321 624 323.5 520.5Q326 417 340 346Q354 275 384.5 232Q415 189 472 166Q529 143 616.5 135.5Q704 128 832 128Z" glyph-name="Omacron" horiz-adv-x="2241" unicode="&#332;" /><glyph d="M192 0H576V224Q528 224 482 236.5Q436 249 400 294.5Q364 340 342 429Q320 518 320 671Q320 799 328.5 886.5Q337 974 356.5 1031Q376 1088 408 1119Q440 1150 486 1164Q532 1178 594 1180.5Q656 1183 736 1183Q816 1183 878 1180.5Q940 1178 986 1164Q1032 1150 1064 1119Q1096 1088 1115.5 1031Q1135 974 1143.5 886.5Q1152 799 1152 671Q1152 518 1130 429Q1108 340 1072 294.5Q1036 249 990 236.5Q944 224 896 224V0H1280V160H1088Q1149 182 1196.5 222.5Q1244 263 1277 325Q1310 387 1327 472.5Q1344 558 1344 671Q1344 801 1331.5 901.5Q1319 1002 1291 1076.5Q1263 1151 1217 1201.5Q1171 1252 1103.5 1283.5Q1036 1315 945 1328.5Q854 1342 736 1342Q618 1342 527 1328.5Q436 1315 368.5 1283.5Q301 1252 255 1201.5Q209 1151 181 1076.5Q153 1002 140.5 901.5Q128 801 128 671Q128 558 145 472.5Q162 387 195 325Q228 263 275.5 222.5Q323 182 384 160H192Z" glyph-name="Omega" horiz-adv-x="1472" unicode="&#8486;" /><glyph d="M1410 1568H1414L1504 1792L1664 1728L1596 1561Q1626 1558 1653.5 1554.25Q1681 1550.5 1706 1546Q1827 1525 1905 1481.5Q1983 1438 2025 1372Q2067 1306 2086.5 1217Q2106 1128 2109.5 1016Q2111.25 960 2112.125 898Q2113 836 2113 768Q2113 632 2109.5 520Q2106 408 2086.5 319Q2067 230 2025 164Q1983 98 1905 54.5Q1827 11 1706.5 -10.5Q1586 -32 1410 -32H954L864 -256L704 -192L769 -31Q701.5 -29.5 643 -24.25Q584.5 -19 535 -10Q415 11 337 54.5Q259 98 216.5 164Q174 230 154.5 319Q135 408 132 520Q130.5 576 129.75 638Q129 700 129 768Q129 904 132 1016Q135 1128 154.5 1217Q174 1306 216.5 1372Q259 1438 337 1481.5Q415 1525 535.5 1546.5Q656 1568 832 1568ZM616 1400Q529 1393 472 1370Q415 1347 384 1304Q353 1261 339 1190Q325 1119 323 1015.5Q322 963.75 321.5 901.875Q321 840 321 768Q321 624 323.5 520.5Q326 417 340 346Q354 275 384.5 232Q415 189 472 166Q529 143 616.5 135.5Q704 128 832 128H833L1349 1408H832Q768 1408 714 1406Q660 1404 616 1400ZM1410 128Q1537 128 1624.5 135.5Q1712 143 1769 166Q1826 189 1857 232Q1888 275 1902 346Q1916 417 1918.5 520.5Q1921 624 1921 768Q1921 912 1918.5 1015.5Q1916 1119 1902 1190Q1888 1261 1857 1304Q1826 1347 1769.5 1370Q1741.25 1381.5 1705.125 1389Q1669 1396.5 1625 1400Q1604.5 1402 1581.75 1403.5Q1559 1405 1534 1406L1019 128Z" glyph-name="Oslash" horiz-adv-x="2241" unicode="&#216;" /><glyph d="M1761 2298 1633 2490 1057 2010 1121 1914ZM1410 1568H1414L1504 1792L1664 1728L1596 1561Q1626 1558 1653.5 1554.25Q1681 1550.5 1706 1546Q1827 1525 1905 1481.5Q1983 1438 2025 1372Q2067 1306 2086.5 1217Q2106 1128 2109.5 1016Q2111.25 960 2112.125 898Q2113 836 2113 768Q2113 632 2109.5 520Q2106 408 2086.5 319Q2067 230 2025 164Q1983 98 1905 54.5Q1827 11 1706.5 -10.5Q1586 -32 1410 -32H954L864 -256L704 -192L769 -31Q701.5 -29.5 643 -24.25Q584.5 -19 535 -10Q415 11 337 54.5Q259 98 216.5 164Q174 230 154.5 319Q135 408 132 520Q130.5 576 129.75 638Q129 700 129 768Q129 904 132 1016Q135 1128 154.5 1217Q174 1306 216.5 1372Q259 1438 337 1481.5Q415 1525 535.5 1546.5Q656 1568 832 1568ZM616 1400Q529 1393 472 1370Q415 1347 384 1304Q353 1261 339 1190Q325 1119 323 1015.5Q322 963.75 321.5 901.875Q321 840 321 768Q321 624 323.5 520.5Q326 417 340 346Q354 275 384.5 232Q415 189 472 166Q529 143 616.5 135.5Q704 128 832 128H833L1349 1408H832Q768 1408 714 1406Q660 1404 616 1400ZM1410 128Q1537 128 1624.5 135.5Q1712 143 1769 166Q1826 189 1857 232Q1888 275 1902 346Q1916 417 1918.5 520.5Q1921 624 1921 768Q1921 912 1918.5 1015.5Q1916 1119 1902 1190Q1888 1261 1857 1304Q1826 1347 1769.5 1370Q1741.25 1381.5 1705.125 1389Q1669 1396.5 1625 1400Q1604.5 1402 1581.75 1403.5Q1559 1405 1534 1406L1019 128Z" glyph-name="Oslashacute" horiz-adv-x="2241" unicode="&#510;" /><glyph d="M1409 1568Q1585 1568 1705.5 1546.5Q1826 1525 1904 1481.5Q1982 1438 2024 1372Q2066 1306 2085.5 1217Q2105 1128 2108.5 1016Q2112 904 2112 768Q2112 632 2108.5 520Q2105 408 2085.5 319Q2066 230 2024 164Q1982 98 1904 54.5Q1826 11 1705.5 -10.5Q1585 -32 1409 -32H831Q655 -32 534.5 -10.5Q414 11 336 54.5Q258 98 215.5 164Q173 230 153.5 319Q134 408 131 520Q128 632 128 768Q128 904 131 1016Q134 1128 153.5 1217Q173 1306 215.5 1372Q258 1438 336 1481.5Q414 1525 534.5 1546.5Q655 1568 831 1568ZM1409 128Q1536 128 1623.5 135.5Q1711 143 1768 166Q1825 189 1856 232Q1887 275 1901 346Q1915 417 1917.5 520.5Q1920 624 1920 768Q1920 912 1917.5 1015.5Q1915 1119 1901 1190Q1887 1261 1856 1304Q1825 1347 1768.5 1370Q1712 1393 1624.5 1400.5Q1537 1408 1409 1408H831Q703 1408 615.5 1400.5Q528 1393 471 1370Q414 1347 383 1304Q352 1261 338 1190Q324 1119 322 1015.5Q320 912 320 768Q320 624 322.5 520.5Q325 417 339 346Q353 275 383.5 232Q414 189 471 166Q528 143 615.5 135.5Q703 128 831 128ZM927 1888Q972 1888 1010.5 1873Q1049 1858 1092 1840Q1135 1822 1187 1807Q1239 1792 1311 1792Q1347 1792 1391.5 1804.5Q1436 1817 1475 1846.5Q1514 1876 1540.5 1925Q1567 1974 1567 2048H1375Q1375 2018 1371 1999Q1367 1980 1359 1969.5Q1351 1959 1339 1955.5Q1327 1952 1311 1952Q1266 1952 1227.5 1967Q1189 1982 1146 2000.5Q1103 2019 1051 2034Q999 2049 927 2049Q891 2049 846.5 2037.5Q802 2026 763 1997Q724 1968 697.5 1918Q671 1868 671 1792H863Q863 1823 867 1842Q871 1861 879 1871Q887 1881 899 1884.5Q911 1888 927 1888Z" glyph-name="Otilde" horiz-adv-x="2240" unicode="&#213;" /><glyph d="M192 1536H1346Q1489 1536 1587.5 1523.5Q1686 1511 1750 1486Q1814 1461 1848.5 1424Q1883 1387 1899 1337Q1915 1287 1917.5 1225Q1920 1163 1920 1088Q1920 1010 1916.5 944Q1913 878 1893.5 824.5Q1874 771 1831.5 730.5Q1789 690 1710.5 663Q1632 636 1511.5 622Q1391 608 1215 608H384V0H192ZM384 768H1215Q1343 768 1430.5 772.5Q1518 777 1575 789Q1632 801 1663 823Q1694 845 1708.5 881Q1723 917 1725.5 967.5Q1728 1018 1728 1088Q1728 1153 1725.5 1200Q1723 1247 1708.5 1279Q1694 1311 1663 1330Q1632 1349 1575 1359.5Q1518 1370 1430.5 1373Q1343 1376 1215 1376H384Z" glyph-name="P" horiz-adv-x="1984" unicode="P" /><glyph d="M832 1568Q656 1568 535.5 1546.5Q415 1525 337 1481.5Q259 1438 216.5 1372Q174 1306 154.5 1217Q135 1128 132 1016Q129 904 129 768Q129 632 132 520Q135 408 154.5 319Q174 230 216.5 164Q259 98 337 54.5Q415 11 535.5 -10.5Q656 -32 832 -32H1410Q1586 -32 1706.5 -10.5Q1827 11 1905 54.5Q1944 76.25 1974 103.625Q2004 131 2025 164Q2026 165.5 2026.75 167Q2027.5 168.5 2028 170L2144 96L2224 224L2085 313Q2085.5 314.5 2085.75 316Q2086 317.5 2086 319Q2106 408 2109.5 520Q2113 632 2113 768Q2113 904 2109.5 1016Q2106 1128 2086.5 1217Q2067 1306 2025 1372Q1983 1438 1905 1481.5Q1827 1525 1706.5 1546.5Q1586 1568 1410 1568ZM832 128Q704 128 616.5 135.5Q529 143 472 166Q415 189 384.5 232Q354 275 340 346Q326 417 323.5 520.5Q321 624 321 768Q321 912 323 1015.5Q325 1119 339 1190Q353 1261 384 1304Q415 1347 472 1370Q529 1393 616.5 1400.5Q704 1408 832 1408H1410Q1538 1408 1625.5 1400.5Q1713 1393 1769.5 1370Q1826 1347 1857 1304Q1888 1261 1902 1190Q1916 1119 1918.5 1015.5Q1921 912 1921 768Q1921 696 1920.25 634Q1919.5 572 1918 520Q1917.5 494 1916.25 470Q1915 446 1913 424L1328 800L1247 671L1877 267Q1872.5 257 1867.5 248.25Q1862.5 239.5 1857 232Q1826 189 1769 166Q1712 143 1624.5 135.5Q1580.75 131.75 1527.125 129.875Q1473.5 128 1410 128Z" glyph-name="Q" horiz-adv-x="2352" unicode="Q" /><glyph d="M1952 0H1760V288Q1760 358 1757.5 408.5Q1755 459 1740.5 495Q1726 531 1695 553Q1664 575 1607 587Q1550 599 1462.5 603.5Q1375 608 1247 608H384V0H192V1536H1279Q1455 1536 1575.5 1523.5Q1696 1511 1774.5 1486Q1853 1461 1895.5 1424Q1938 1387 1957.5 1337Q1977 1287 1980.5 1225Q1984 1163 1984 1088Q1984 992 1970.5 919.5Q1957 847 1925 796Q1893 745 1840 714.5Q1787 684 1707 672Q1787 660 1835 630Q1883 600 1909 552Q1935 504 1943.5 438Q1952 372 1952 288ZM384 768H1279Q1407 768 1494.5 772.5Q1582 777 1639 789Q1696 801 1727 823Q1758 845 1772.5 881Q1787 917 1789.5 967.5Q1792 1018 1792 1088Q1792 1153 1789.5 1200Q1787 1247 1772.5 1279Q1758 1311 1727 1330Q1696 1349 1639 1359.5Q1582 1370 1494.5 1373Q1407 1376 1279 1376H384Z" glyph-name="R" horiz-adv-x="2112" unicode="R" /><glyph d="M1376 2074 1248 2266 672 1786 736 1690ZM1952 0H1760V288Q1760 358 1757.5 408.5Q1755 459 1740.5 495Q1726 531 1695 553Q1664 575 1607 587Q1550 599 1462.5 603.5Q1375 608 1247 608H384V0H192V1536H1279Q1455 1536 1575.5 1523.5Q1696 1511 1774.5 1486Q1853 1461 1895.5 1424Q1938 1387 1957.5 1337Q1977 1287 1980.5 1225Q1984 1163 1984 1088Q1984 992 1970.5 919.5Q1957 847 1925 796Q1893 745 1840 714.5Q1787 684 1707 672Q1787 660 1835 630Q1883 600 1909 552Q1935 504 1943.5 438Q1952 372 1952 288ZM384 768H1279Q1407 768 1494.5 772.5Q1582 777 1639 789Q1696 801 1727 823Q1758 845 1772.5 881Q1787 917 1789.5 967.5Q1792 1018 1792 1088Q1792 1153 1789.5 1200Q1787 1247 1772.5 1279Q1758 1311 1727 1330Q1696 1349 1639 1359.5Q1582 1370 1494.5 1373Q1407 1376 1279 1376H384Z" glyph-name="Racute" horiz-adv-x="2112" unicode="&#340;" /><glyph d="M736 1818 448 2266 320 2170 640 1690H832L1152 2170L1024 2266ZM1952 0H1760V288Q1760 358 1757.5 408.5Q1755 459 1740.5 495Q1726 531 1695 553Q1664 575 1607 587Q1550 599 1462.5 603.5Q1375 608 1247 608H384V0H192V1536H1279Q1455 1536 1575.5 1523.5Q1696 1511 1774.5 1486Q1853 1461 1895.5 1424Q1938 1387 1957.5 1337Q1977 1287 1980.5 1225Q1984 1163 1984 1088Q1984 992 1970.5 919.5Q1957 847 1925 796Q1893 745 1840 714.5Q1787 684 1707 672Q1787 660 1835 630Q1883 600 1909 552Q1935 504 1943.5 438Q1952 372 1952 288ZM384 768H1279Q1407 768 1494.5 772.5Q1582 777 1639 789Q1696 801 1727 823Q1758 845 1772.5 881Q1787 917 1789.5 967.5Q1792 1018 1792 1088Q1792 1153 1789.5 1200Q1787 1247 1772.5 1279Q1758 1311 1727 1330Q1696 1349 1639 1359.5Q1582 1370 1494.5 1373Q1407 1376 1279 1376H384Z" glyph-name="Rcaron" horiz-adv-x="2112" unicode="&#344;" /><glyph d="M1008 -121H1200L1072 -505H944ZM1952 0H1760V288Q1760 358 1757.5 408.5Q1755 459 1740.5 495Q1726 531 1695 553Q1664 575 1607 587Q1550 599 1462.5 603.5Q1375 608 1247 608H384V0H192V1536H1279Q1455 1536 1575.5 1523.5Q1696 1511 1774.5 1486Q1853 1461 1895.5 1424Q1938 1387 1957.5 1337Q1977 1287 1980.5 1225Q1984 1163 1984 1088Q1984 992 1970.5 919.5Q1957 847 1925 796Q1893 745 1840 714.5Q1787 684 1707 672Q1787 660 1835 630Q1883 600 1909 552Q1935 504 1943.5 438Q1952 372 1952 288ZM384 768H1279Q1407 768 1494.5 772.5Q1582 777 1639 789Q1696 801 1727 823Q1758 845 1772.5 881Q1787 917 1789.5 967.5Q1792 1018 1792 1088Q1792 1153 1789.5 1200Q1787 1247 1772.5 1279Q1758 1311 1727 1330Q1696 1349 1639 1359.5Q1582 1370 1494.5 1373Q1407 1376 1279 1376H384Z" glyph-name="Rcommaaccent" horiz-adv-x="2112" unicode="&#342;" /><glyph d="M1160 864Q1318 864 1431 851Q1544 838 1621.5 812.5Q1699 787 1745 749Q1791 711 1816 662.5Q1841 614 1848.5 554Q1856 494 1856 424Q1856 354 1843.5 292.5Q1831 231 1799 180Q1767 129 1712 89Q1657 49 1572 21Q1487 -7 1367.5 -21.5Q1248 -36 1088 -36H832Q688 -36 580 -25Q472 -14 394 8.5Q316 31 265 65.5Q214 100 183.5 146.5Q153 193 141 252.5Q129 312 129 384H321Q321 294 347 243Q373 192 433 166.5Q493 141 590.5 134.5Q688 128 832 128H1088Q1256 128 1367 144Q1478 160 1544 195Q1610 230 1637 286.5Q1664 343 1664 424Q1664 505 1645.5 559Q1627 613 1572.5 645Q1518 677 1419 690.5Q1320 704 1160 704H896Q720 704 594.5 717Q469 730 384 754.5Q299 779 248 815.5Q197 852 170.5 899Q144 946 136 1003.5Q128 1061 128 1128Q128 1198 140.5 1258Q153 1318 187 1366.5Q221 1415 280 1453Q339 1491 431.5 1516.5Q524 1542 654 1555Q784 1568 960 1568H1152Q1296 1568 1404 1557.5Q1512 1547 1590 1524.5Q1668 1502 1719.5 1468.5Q1771 1435 1801.5 1388.5Q1832 1342 1844 1283Q1856 1224 1856 1152H1664Q1664 1242 1638 1293Q1612 1344 1552 1369.5Q1492 1395 1394 1401.5Q1296 1408 1152 1408H960Q768 1408 644 1394.5Q520 1381 448 1349Q376 1317 348 1263Q320 1209 320 1128Q320 1078 327 1039Q334 1000 355.5 970.5Q377 941 416 921Q455 901 519 888Q583 875 675.5 869.5Q768 864 896 864Z" glyph-name="S" horiz-adv-x="1984" unicode="S" /><glyph d="M1696 2074 1568 2266 992 1786 1056 1690ZM1160 864Q1318 864 1431 851Q1544 838 1621.5 812.5Q1699 787 1745 749Q1791 711 1816 662.5Q1841 614 1848.5 554Q1856 494 1856 424Q1856 354 1843.5 292.5Q1831 231 1799 180Q1767 129 1712 89Q1657 49 1572 21Q1487 -7 1367.5 -21.5Q1248 -36 1088 -36H832Q688 -36 580 -25Q472 -14 394 8.5Q316 31 265 65.5Q214 100 183.5 146.5Q153 193 141 252.5Q129 312 129 384H321Q321 294 347 243Q373 192 433 166.5Q493 141 590.5 134.5Q688 128 832 128H1088Q1256 128 1367 144Q1478 160 1544 195Q1610 230 1637 286.5Q1664 343 1664 424Q1664 505 1645.5 559Q1627 613 1572.5 645Q1518 677 1419 690.5Q1320 704 1160 704H896Q720 704 594.5 717Q469 730 384 754.5Q299 779 248 815.5Q197 852 170.5 899Q144 946 136 1003.5Q128 1061 128 1128Q128 1198 140.5 1258Q153 1318 187 1366.5Q221 1415 280 1453Q339 1491 431.5 1516.5Q524 1542 654 1555Q784 1568 960 1568H1152Q1296 1568 1404 1557.5Q1512 1547 1590 1524.5Q1668 1502 1719.5 1468.5Q1771 1435 1801.5 1388.5Q1832 1342 1844 1283Q1856 1224 1856 1152H1664Q1664 1242 1638 1293Q1612 1344 1552 1369.5Q1492 1395 1394 1401.5Q1296 1408 1152 1408H960Q768 1408 644 1394.5Q520 1381 448 1349Q376 1317 348 1263Q320 1209 320 1128Q320 1078 327 1039Q334 1000 355.5 970.5Q377 941 416 921Q455 901 519 888Q583 875 675.5 869.5Q768 864 896 864Z" glyph-name="Sacute" horiz-adv-x="1984" unicode="&#346;" /><glyph d="M1160 864Q1318 864 1431 851Q1544 838 1621.5 812.5Q1699 787 1745 749Q1791 711 1816 662.5Q1841 614 1848.5 554Q1856 494 1856 424Q1856 354 1843.5 292.5Q1831 231 1799 180Q1767 129 1712 89Q1657 49 1572 21Q1487 -7 1367.5 -21.5Q1248 -36 1088 -36H832Q688 -36 580 -25Q472 -14 394 8.5Q316 31 265 65.5Q214 100 183.5 146.5Q153 193 141 252.5Q129 312 129 384H321Q321 294 347 243Q373 192 433 166.5Q493 141 590.5 134.5Q688 128 832 128H1088Q1256 128 1367 144Q1478 160 1544 195Q1610 230 1637 286.5Q1664 343 1664 424Q1664 505 1645.5 559Q1627 613 1572.5 645Q1518 677 1419 690.5Q1320 704 1160 704H896Q720 704 594.5 717Q469 730 384 754.5Q299 779 248 815.5Q197 852 170.5 899Q144 946 136 1003.5Q128 1061 128 1128Q128 1198 140.5 1258Q153 1318 187 1366.5Q221 1415 280 1453Q339 1491 431.5 1516.5Q524 1542 654 1555Q784 1568 960 1568H1152Q1296 1568 1404 1557.5Q1512 1547 1590 1524.5Q1668 1502 1719.5 1468.5Q1771 1435 1801.5 1388.5Q1832 1342 1844 1283Q1856 1224 1856 1152H1664Q1664 1242 1638 1293Q1612 1344 1552 1369.5Q1492 1395 1394 1401.5Q1296 1408 1152 1408H960Q768 1408 644 1394.5Q520 1381 448 1349Q376 1317 348 1263Q320 1209 320 1128Q320 1078 327 1039Q334 1000 355.5 970.5Q377 941 416 921Q455 901 519 888Q583 875 675.5 869.5Q768 864 896 864ZM992 1856 704 2304 576 2208 896 1728H1088L1408 2208L1280 2304Z" glyph-name="Scaron" horiz-adv-x="1984" unicode="&#352;" /><glyph d="M896 -462Q944 -462 980 -460.5Q1016 -459 1040 -450Q1064 -441 1076 -421.5Q1088 -402 1088 -366Q1088 -354 1085 -342.5Q1082 -331 1064 -322Q1046 -313 1007 -307.5Q968 -302 896 -302V-14H1024V-206Q1072 -206 1118 -213Q1164 -220 1200 -238Q1236 -256 1258 -287Q1280 -318 1280 -366Q1280 -450 1247 -500.5Q1214 -551 1160 -578Q1106 -605 1037 -613.5Q968 -622 896 -622ZM1160 864Q1318 864 1431 851Q1544 838 1621.5 812.5Q1699 787 1745 749Q1791 711 1816 662.5Q1841 614 1848.5 554Q1856 494 1856 424Q1856 354 1843.5 292.5Q1831 231 1799 180Q1767 129 1712 89Q1657 49 1572 21Q1487 -7 1367.5 -21.5Q1248 -36 1088 -36H832Q688 -36 580 -25Q472 -14 394 8.5Q316 31 265 65.5Q214 100 183.5 146.5Q153 193 141 252.5Q129 312 129 384H321Q321 294 347 243Q373 192 433 166.5Q493 141 590.5 134.5Q688 128 832 128H1088Q1256 128 1367 144Q1478 160 1544 195Q1610 230 1637 286.5Q1664 343 1664 424Q1664 505 1645.5 559Q1627 613 1572.5 645Q1518 677 1419 690.5Q1320 704 1160 704H896Q720 704 594.5 717Q469 730 384 754.5Q299 779 248 815.5Q197 852 170.5 899Q144 946 136 1003.5Q128 1061 128 1128Q128 1198 140.5 1258Q153 1318 187 1366.5Q221 1415 280 1453Q339 1491 431.5 1516.5Q524 1542 654 1555Q784 1568 960 1568H1152Q1296 1568 1404 1557.5Q1512 1547 1590 1524.5Q1668 1502 1719.5 1468.5Q1771 1435 1801.5 1388.5Q1832 1342 1844 1283Q1856 1224 1856 1152H1664Q1664 1242 1638 1293Q1612 1344 1552 1369.5Q1492 1395 1394 1401.5Q1296 1408 1152 1408H960Q768 1408 644 1394.5Q520 1381 448 1349Q376 1317 348 1263Q320 1209 320 1128Q320 1078 327 1039Q334 1000 355.5 970.5Q377 941 416 921Q455 901 519 888Q583 875 675.5 869.5Q768 864 896 864Z" glyph-name="Scedilla" horiz-adv-x="1984" unicode="&#350;" /><glyph d="M1344 1690 1472 1786 1152 2266H960L640 1786L768 1690L1056 2138ZM1160 864Q1318 864 1431 851Q1544 838 1621.5 812.5Q1699 787 1745 749Q1791 711 1816 662.5Q1841 614 1848.5 554Q1856 494 1856 424Q1856 354 1843.5 292.5Q1831 231 1799 180Q1767 129 1712 89Q1657 49 1572 21Q1487 -7 1367.5 -21.5Q1248 -36 1088 -36H832Q688 -36 580 -25Q472 -14 394 8.5Q316 31 265 65.5Q214 100 183.5 146.5Q153 193 141 252.5Q129 312 129 384H321Q321 294 347 243Q373 192 433 166.5Q493 141 590.5 134.5Q688 128 832 128H1088Q1256 128 1367 144Q1478 160 1544 195Q1610 230 1637 286.5Q1664 343 1664 424Q1664 505 1645.5 559Q1627 613 1572.5 645Q1518 677 1419 690.5Q1320 704 1160 704H896Q720 704 594.5 717Q469 730 384 754.5Q299 779 248 815.5Q197 852 170.5 899Q144 946 136 1003.5Q128 1061 128 1128Q128 1198 140.5 1258Q153 1318 187 1366.5Q221 1415 280 1453Q339 1491 431.5 1516.5Q524 1542 654 1555Q784 1568 960 1568H1152Q1296 1568 1404 1557.5Q1512 1547 1590 1524.5Q1668 1502 1719.5 1468.5Q1771 1435 1801.5 1388.5Q1832 1342 1844 1283Q1856 1224 1856 1152H1664Q1664 1242 1638 1293Q1612 1344 1552 1369.5Q1492 1395 1394 1401.5Q1296 1408 1152 1408H960Q768 1408 644 1394.5Q520 1381 448 1349Q376 1317 348 1263Q320 1209 320 1128Q320 1078 327 1039Q334 1000 355.5 970.5Q377 941 416 921Q455 901 519 888Q583 875 675.5 869.5Q768 864 896 864Z" glyph-name="Scircumflex" horiz-adv-x="1984" unicode="&#348;" /><glyph d="M1856 1536V1376H1088V0H896V1376H128V1536Z" glyph-name="T" horiz-adv-x="1984" unicode="T" /><glyph d="M1856 1536V1376H1088V0H896V1376H128V1536ZM605 672H1373V512H605Z" glyph-name="Tbar" horiz-adv-x="1984" unicode="&#358;" /><glyph d="M992 1818 704 2266 576 2170 896 1690H1088L1408 2170L1280 2266ZM1856 1536V1376H1088V0H896V1376H128V1536Z" glyph-name="Tcaron" horiz-adv-x="1984" unicode="&#356;" /><glyph d="M928 -427Q976 -427 1012 -425.5Q1048 -424 1072 -415Q1096 -406 1108 -386.5Q1120 -367 1120 -331Q1120 -319 1117 -307.5Q1114 -296 1096 -287Q1078 -278 1039 -272.5Q1000 -267 928 -267V21H1056V-171Q1104 -171 1150 -178Q1196 -185 1232 -203Q1268 -221 1290 -252Q1312 -283 1312 -331Q1312 -415 1279 -465.5Q1246 -516 1192 -543Q1138 -570 1069 -578.5Q1000 -587 928 -587ZM1856 1536V1376H1088V0H896V1376H128V1536Z" glyph-name="Tcommaaccent" horiz-adv-x="1984" unicode="&#354;" /><glyph d="M128 0H320V416H1151Q1327 416 1447.5 430Q1568 444 1646.5 471Q1725 498 1767.5 538.5Q1810 579 1829.5 632.5Q1849 686 1852.5 752Q1856 818 1856 896Q1856 971 1853.5 1033Q1851 1095 1835 1145Q1819 1195 1784.5 1232Q1750 1269 1686 1294Q1622 1319 1523.5 1331.5Q1425 1344 1282 1344H320V1536H128ZM320 1184H1151Q1279 1184 1366.5 1181Q1454 1178 1511 1167.5Q1568 1157 1599 1138Q1630 1119 1644.5 1087Q1659 1055 1661.5 1008Q1664 961 1664 896Q1664 826 1661.5 775.5Q1659 725 1644.5 689Q1630 653 1599 631Q1568 609 1511 597Q1454 585 1366.5 580.5Q1279 576 1151 576H320Z" glyph-name="Thorn" horiz-adv-x="1920" unicode="&#222;" /><glyph d="M1985 1536V768Q1985 632 1981.5 520Q1978 408 1958.5 319Q1939 230 1897 164Q1855 98 1777 54.5Q1699 11 1578.5 -10.5Q1458 -32 1282 -32H832Q656 -32 535.5 -10.5Q415 11 337 54.5Q259 98 216.5 164Q174 230 154.5 319Q135 408 132 520Q129 632 129 768V1536H321V768Q321 624 323.5 520.5Q326 417 340 346Q354 275 384.5 232Q415 189 472 166Q529 143 616.5 135.5Q704 128 832 128H1282Q1409 128 1497 135.5Q1585 143 1641.5 166Q1698 189 1729 232Q1760 275 1774.5 346Q1789 417 1791 520.5Q1793 624 1793 768L1792 1536Z" glyph-name="U" horiz-adv-x="2113" unicode="U" /><glyph d="M1985 1536V768Q1985 632 1981.5 520Q1978 408 1958.5 319Q1939 230 1897 164Q1855 98 1777 54.5Q1699 11 1578.5 -10.5Q1458 -32 1282 -32H832Q656 -32 535.5 -10.5Q415 11 337 54.5Q259 98 216.5 164Q174 230 154.5 319Q135 408 132 520Q129 632 129 768V1536H321V768Q321 624 323.5 520.5Q326 417 340 346Q354 275 384.5 232Q415 189 472 166Q529 143 616.5 135.5Q704 128 832 128H1282Q1409 128 1497 135.5Q1585 143 1641.5 166Q1698 189 1729 232Q1760 275 1774.5 346Q1789 417 1791 520.5Q1793 624 1793 768L1792 1536ZM1408 2112 1280 2304 704 1824 768 1728Z" glyph-name="Uacute" horiz-adv-x="2113" unicode="&#218;" /><glyph d="M673 2010Q673 1842 769 1766Q865 1690 1057 1690Q1249 1690 1345 1766Q1441 1842 1441 2010H1281Q1281 1938 1264 1899Q1247 1860 1217 1842Q1187 1824 1146 1821Q1105 1818 1057 1818Q1009 1818 968 1821Q927 1824 897 1842Q867 1860 850 1899Q833 1938 833 2010ZM1985 1536V768Q1985 632 1981.5 520Q1978 408 1958.5 319Q1939 230 1897 164Q1855 98 1777 54.5Q1699 11 1578.5 -10.5Q1458 -32 1282 -32H832Q656 -32 535.5 -10.5Q415 11 337 54.5Q259 98 216.5 164Q174 230 154.5 319Q135 408 132 520Q129 632 129 768V1536H321V768Q321 624 323.5 520.5Q326 417 340 346Q354 275 384.5 232Q415 189 472 166Q529 143 616.5 135.5Q704 128 832 128H1282Q1409 128 1497 135.5Q1585 143 1641.5 166Q1698 189 1729 232Q1760 275 1774.5 346Q1789 417 1791 520.5Q1793 624 1793 768L1792 1536Z" glyph-name="Ubreve" horiz-adv-x="2113" unicode="&#364;" /><glyph d="M1985 1536V768Q1985 632 1981.5 520Q1978 408 1958.5 319Q1939 230 1897 164Q1855 98 1777 54.5Q1699 11 1578.5 -10.5Q1458 -32 1282 -32H832Q656 -32 535.5 -10.5Q415 11 337 54.5Q259 98 216.5 164Q174 230 154.5 319Q135 408 132 520Q129 632 129 768V1536H321V768Q321 624 323.5 520.5Q326 417 340 346Q354 275 384.5 232Q415 189 472 166Q529 143 616.5 135.5Q704 128 832 128H1282Q1409 128 1497 135.5Q1585 143 1641.5 166Q1698 189 1729 232Q1760 275 1774.5 346Q1789 417 1791 520.5Q1793 624 1793 768L1792 1536ZM1344 1728 1472 1824 1152 2304H960L640 1824L768 1728L1056 2176Z" glyph-name="Ucircumflex" horiz-adv-x="2113" unicode="&#219;" /><glyph d="M1985 1536V768Q1985 632 1981.5 520Q1978 408 1958.5 319Q1939 230 1897 164Q1855 98 1777 54.5Q1699 11 1578.5 -10.5Q1458 -32 1282 -32H832Q656 -32 535.5 -10.5Q415 11 337 54.5Q259 98 216.5 164Q174 230 154.5 319Q135 408 132 520Q129 632 129 768V1536H321V768Q321 624 323.5 520.5Q326 417 340 346Q354 275 384.5 232Q415 189 472 166Q529 143 616.5 135.5Q704 128 832 128H1282Q1409 128 1497 135.5Q1585 143 1641.5 166Q1698 189 1729 232Q1760 275 1774.5 346Q1789 417 1791 520.5Q1793 624 1793 768L1792 1536ZM768 1984H576V1792H768ZM1536 1984H1344V1792H1536Z" glyph-name="Udieresis" horiz-adv-x="2113" unicode="&#220;" /><glyph d="M1985 1536V768Q1985 632 1981.5 520Q1978 408 1958.5 319Q1939 230 1897 164Q1855 98 1777 54.5Q1699 11 1578.5 -10.5Q1458 -32 1282 -32H832Q656 -32 535.5 -10.5Q415 11 337 54.5Q259 98 216.5 164Q174 230 154.5 319Q135 408 132 520Q129 632 129 768V1536H321V768Q321 624 323.5 520.5Q326 417 340 346Q354 275 384.5 232Q415 189 472 166Q529 143 616.5 135.5Q704 128 832 128H1282Q1409 128 1497 135.5Q1585 143 1641.5 166Q1698 189 1729 232Q1760 275 1774.5 346Q1789 417 1791 520.5Q1793 624 1793 768L1792 1536ZM704 2112 832 2304 1408 1824 1344 1728Z" glyph-name="Ugrave" horiz-adv-x="2113" unicode="&#217;" /><glyph d="M1420 2074 1292 2266 716 1786 780 1690ZM1973 2074 1845 2266 1269 1786 1333 1690ZM1985 1536V768Q1985 632 1981.5 520Q1978 408 1958.5 319Q1939 230 1897 164Q1855 98 1777 54.5Q1699 11 1578.5 -10.5Q1458 -32 1282 -32H832Q656 -32 535.5 -10.5Q415 11 337 54.5Q259 98 216.5 164Q174 230 154.5 319Q135 408 132 520Q129 632 129 768V1536H321V768Q321 624 323.5 520.5Q326 417 340 346Q354 275 384.5 232Q415 189 472 166Q529 143 616.5 135.5Q704 128 832 128H1282Q1409 128 1497 135.5Q1585 143 1641.5 166Q1698 189 1729 232Q1760 275 1774.5 346Q1789 417 1791 520.5Q1793 624 1793 768L1792 1536Z" glyph-name="Uhungarumlaut" horiz-adv-x="2113" unicode="&#368;" /><glyph d="M673 1690H1441V1850H673ZM1985 1536V768Q1985 632 1981.5 520Q1978 408 1958.5 319Q1939 230 1897 164Q1855 98 1777 54.5Q1699 11 1578.5 -10.5Q1458 -32 1282 -32H832Q656 -32 535.5 -10.5Q415 11 337 54.5Q259 98 216.5 164Q174 230 154.5 319Q135 408 132 520Q129 632 129 768V1536H321V768Q321 624 323.5 520.5Q326 417 340 346Q354 275 384.5 232Q415 189 472 166Q529 143 616.5 135.5Q704 128 832 128H1282Q1409 128 1497 135.5Q1585 143 1641.5 166Q1698 189 1729 232Q1760 275 1774.5 346Q1789 417 1791 520.5Q1793 624 1793 768L1792 1536Z" glyph-name="Umacron" horiz-adv-x="2113" unicode="&#362;" /><glyph d="M1121 -587Q1049 -587 980 -574Q911 -561 857 -531Q803 -501 770 -452Q737 -403 737 -331Q737 -295 748 -262Q759 -229 777 -200Q795 -171 818 -145.5Q841 -120 865 -99Q893 -74.5 925 -52.5Q957 -30.5 993 -11H1121Q1049 -59 1010 -105.5Q971 -152 953 -191Q935 -230 932 -258.5Q929 -287 929 -299Q929 -371 976.5 -399Q1024 -427 1121 -427ZM1985 1536V768Q1985 632 1981.5 520Q1978 408 1958.5 319Q1939 230 1897 164Q1855 98 1777 54.5Q1699 11 1578.5 -10.5Q1458 -32 1282 -32H832Q656 -32 535.5 -10.5Q415 11 337 54.5Q259 98 216.5 164Q174 230 154.5 319Q135 408 132 520Q129 632 129 768V1536H321V768Q321 624 323.5 520.5Q326 417 340 346Q354 275 384.5 232Q415 189 472 166Q529 143 616.5 135.5Q704 128 832 128H1282Q1409 128 1497 135.5Q1585 143 1641.5 166Q1698 189 1729 232Q1760 275 1774.5 346Q1789 417 1791 520.5Q1793 624 1793 768L1792 1536Z" glyph-name="Uogonek" horiz-adv-x="2113" unicode="&#370;" /><glyph d="M1057 2330Q961 2330 894 2302.5Q827 2275 785 2230Q743 2185 724 2127.5Q705 2070 705 2010Q705 1950 724 1892.5Q743 1835 785 1790Q827 1745 894 1717.5Q961 1690 1057 1690Q1153 1690 1220 1717.5Q1287 1745 1329 1790Q1371 1835 1390 1892.5Q1409 1950 1409 2010Q1409 2070 1390 2127.5Q1371 2185 1329 2230Q1287 2275 1220 2302.5Q1153 2330 1057 2330ZM1057 1818Q997 1818 959.5 1834.5Q922 1851 901 1878Q880 1905 872.5 1939.5Q865 1974 865 2010Q865 2046 872.5 2080.5Q880 2115 901 2142Q922 2169 959.5 2185.5Q997 2202 1057 2202Q1117 2202 1154.5 2185.5Q1192 2169 1213 2142Q1234 2115 1241.5 2080.5Q1249 2046 1249 2010Q1249 1974 1241.5 1939.5Q1234 1905 1213 1878Q1192 1851 1154.5 1834.5Q1117 1818 1057 1818ZM1985 1536V768Q1985 632 1981.5 520Q1978 408 1958.5 319Q1939 230 1897 164Q1855 98 1777 54.5Q1699 11 1578.5 -10.5Q1458 -32 1282 -32H832Q656 -32 535.5 -10.5Q415 11 337 54.5Q259 98 216.5 164Q174 230 154.5 319Q135 408 132 520Q129 632 129 768V1536H321V768Q321 624 323.5 520.5Q326 417 340 346Q354 275 384.5 232Q415 189 472 166Q529 143 616.5 135.5Q704 128 832 128H1282Q1409 128 1497 135.5Q1585 143 1641.5 166Q1698 189 1729 232Q1760 275 1774.5 346Q1789 417 1791 520.5Q1793 624 1793 768L1792 1536Z" glyph-name="Uring" horiz-adv-x="2113" unicode="&#366;" /><glyph d="M865 1786Q910 1786 948.5 1771Q987 1756 1030 1738Q1073 1720 1125 1705Q1177 1690 1249 1690Q1285 1690 1329.5 1702.5Q1374 1715 1413 1744.5Q1452 1774 1478.5 1823Q1505 1872 1505 1946H1313Q1313 1916 1309 1897Q1305 1878 1297 1867.5Q1289 1857 1277 1853.5Q1265 1850 1249 1850Q1204 1850 1165.5 1865Q1127 1880 1084 1898.5Q1041 1917 989 1932Q937 1947 865 1947Q829 1947 784.5 1935.5Q740 1924 701 1895Q662 1866 635.5 1816Q609 1766 609 1690H801Q801 1721 805 1740Q809 1759 817 1769Q825 1779 837 1782.5Q849 1786 865 1786ZM1985 1536V768Q1985 632 1981.5 520Q1978 408 1958.5 319Q1939 230 1897 164Q1855 98 1777 54.5Q1699 11 1578.5 -10.5Q1458 -32 1282 -32H832Q656 -32 535.5 -10.5Q415 11 337 54.5Q259 98 216.5 164Q174 230 154.5 319Q135 408 132 520Q129 632 129 768V1536H321V768Q321 624 323.5 520.5Q326 417 340 346Q354 275 384.5 232Q415 189 472 166Q529 143 616.5 135.5Q704 128 832 128H1282Q1409 128 1497 135.5Q1585 143 1641.5 166Q1698 189 1729 232Q1760 275 1774.5 346Q1789 417 1791 520.5Q1793 624 1793 768L1792 1536Z" glyph-name="Utilde" horiz-adv-x="2113" unicode="&#360;" /><glyph d="M1760 1536H1984L1152 0H896L64 1536H288L1024 128Z" glyph-name="V" horiz-adv-x="2048" unicode="V" /><glyph d="M1584 1536H1808L2432 160L3040 1536H3264L2560 0H2304L1696 1344L1088 0H832L64 1536H288L960 160Z" glyph-name="W" horiz-adv-x="3328" unicode="W" /><glyph d="M2016 1690 2144 1786 1824 2266H1632L1312 1786L1440 1690L1728 2138ZM1648 1536H1872L2496 160L3104 1536H3328L2624 0H2368L1760 1344L1152 0H896L128 1536H352L1024 160Z" glyph-name="Wcircumflex" horiz-adv-x="3456" unicode="&#372;" /><glyph d="M1209 810 2112 0H1840L1075 686L336 0H64L937 810L128 1536H400L1070 934L1719 1536H1991Z" glyph-name="X" horiz-adv-x="2176" unicode="X" /><glyph d="M128 1536H384L1088 784L1792 1536H2048L1184 640V0H992V640Z" glyph-name="Y" horiz-adv-x="2200" unicode="Y" /><glyph d="M128 1536H384L1088 784L1792 1536H2048L1184 640V0H992V640ZM1452 2112 1324 2304 748 1824 812 1728Z" glyph-name="Yacute" horiz-adv-x="2176" unicode="&#221;" /><glyph d="M1376 1690 1504 1786 1184 2266H992L672 1786L800 1690L1088 2138ZM128 1536H384L1088 784L1792 1536H2048L1184 640V0H992V640Z" glyph-name="Ycircumflex" horiz-adv-x="2200" unicode="&#374;" /><glyph d="M128 1536H384L1088 784L1792 1536H2048L1184 640V0H992V640ZM812 1984H620V1792H812ZM1580 1984H1388V1792H1580Z" glyph-name="Ydieresis" horiz-adv-x="2200" unicode="&#376;" /><glyph d="M128 0V160L1614 1376H192V1536H1888V1376L394 160H1920V0Z" glyph-name="Z" horiz-adv-x="2046" unicode="Z" /><glyph d="M1680 2074 1552 2266 976 1786 1040 1690ZM128 0V160L1614 1376H192V1536H1888V1376L394 160H1920V0Z" glyph-name="Zacute" horiz-adv-x="2046" unicode="&#377;" /><glyph d="M128 0V160L1614 1376H192V1536H1888V1376L394 160H1920V0ZM1023 1856 735 2304 607 2208 927 1728H1119L1439 2208L1311 2304Z" glyph-name="Zcaron" horiz-adv-x="2046" unicode="&#381;" /><glyph d="M1136 1882H944V1690H1136ZM128 0V160L1614 1376H192V1536H1888V1376L394 160H1920V0Z" glyph-name="Zdotaccent" horiz-adv-x="2046" unicode="&#379;" /><glyph d="M1275 158Q1273.5 152 1262.25 137Q1251 122 1230 98Q1200 62 1150 34.5Q1100 7 1016.5 -8.5Q974.75 -16.25 919.875 -20.125Q865 -24 797 -24Q616 -24 488 -5.5Q360 13 279 51.5Q198 90 160.5 150Q123 210 123 293Q123 380 143.5 440.5Q164 501 203.5 542Q243 583 299 606Q355 629 426.5 641Q498 653 583 656Q668 659 764 659Q901 659 993 647.5Q1085 636 1143.5 618.5Q1202 601 1232 581Q1262 561 1275 544Q1275 656 1265.5 735Q1256 814 1234.5 867Q1213 920 1179 951.5Q1145 983 1095.5 999Q1046 1015 980 1019.5Q914 1024 829 1024Q697 1024 610 1017.5Q523 1011 472 992Q421 973 400 939.5Q379 906 379 852H187Q187 943 219.5 1006Q252 1069 327.5 1108.5Q403 1148 526 1166Q649 1184 829 1184Q1005 1184 1127 1155Q1249 1126 1324.5 1053Q1400 980 1433.5 856.5Q1467 733 1467 544V0H1275ZM829 128Q956 128 1041.5 140Q1127 152 1179 176Q1231 200 1253 236Q1275 272 1275 320Q1275 368 1249.5 401.5Q1224 435 1164.5 456Q1105 477 1007 486.5Q909 496 765 496Q621 496 532.5 491Q444 486 396 468Q348 450 331.5 415Q315 380 315 320Q315 260 332.5 222.5Q350 185 404 164Q458 143 559.5 135.5Q661 128 829 128Z" glyph-name="a" horiz-adv-x="1595" unicode="a" /><glyph d="M1280 158Q1278.5 152 1267.25 137Q1256 122 1235 98Q1205 62 1155 34.5Q1105 7 1021.5 -8.5Q979.75 -16.25 924.875 -20.125Q870 -24 802 -24Q621 -24 493 -5.5Q365 13 284 51.5Q203 90 165.5 150Q128 210 128 293Q128 380 148.5 440.5Q169 501 208.5 542Q248 583 304 606Q360 629 431.5 641Q503 653 588 656Q673 659 769 659Q906 659 998 647.5Q1090 636 1148.5 618.5Q1207 601 1237 581Q1267 561 1280 544Q1280 656 1270.5 735Q1261 814 1239.5 867Q1218 920 1184 951.5Q1150 983 1100.5 999Q1051 1015 985 1019.5Q919 1024 834 1024Q702 1024 615 1017.5Q528 1011 477 992Q426 973 405 939.5Q384 906 384 852H192Q192 943 224.5 1006Q257 1069 332.5 1108.5Q408 1148 531 1166Q654 1184 834 1184Q1010 1184 1132 1155Q1254 1126 1329.5 1053Q1405 980 1438.5 856.5Q1472 733 1472 544V0H1280ZM834 128Q961 128 1046.5 140Q1132 152 1184 176Q1236 200 1258 236Q1280 272 1280 320Q1280 368 1254.5 401.5Q1229 435 1169.5 456Q1110 477 1012 486.5Q914 496 770 496Q626 496 537.5 491Q449 486 401 468Q353 450 336.5 415Q320 380 320 320Q320 260 337.5 222.5Q355 185 409 164Q463 143 564.5 135.5Q666 128 834 128ZM1152 1664 1024 1856 448 1376 512 1280Z" glyph-name="aacute" horiz-adv-x="1600" unicode="&#225;" /><glyph d="M1280 158Q1278.5 152 1267.25 137Q1256 122 1235 98Q1205 62 1155 34.5Q1105 7 1021.5 -8.5Q979.75 -16.25 924.875 -20.125Q870 -24 802 -24Q621 -24 493 -5.5Q365 13 284 51.5Q203 90 165.5 150Q128 210 128 293Q128 380 148.5 440.5Q169 501 208.5 542Q248 583 304 606Q360 629 431.5 641Q503 653 588 656Q673 659 769 659Q906 659 998 647.5Q1090 636 1148.5 618.5Q1207 601 1237 581Q1267 561 1280 544Q1280 656 1270.5 735Q1261 814 1239.5 867Q1218 920 1184 951.5Q1150 983 1100.5 999Q1051 1015 985 1019.5Q919 1024 834 1024Q702 1024 615 1017.5Q528 1011 477 992Q426 973 405 939.5Q384 906 384 852H192Q192 943 224.5 1006Q257 1069 332.5 1108.5Q408 1148 531 1166Q654 1184 834 1184Q1010 1184 1132 1155Q1254 1126 1329.5 1053Q1405 980 1438.5 856.5Q1472 733 1472 544V0H1280ZM834 128Q961 128 1046.5 140Q1132 152 1184 176Q1236 200 1258 236Q1280 272 1280 320Q1280 368 1254.5 401.5Q1229 435 1169.5 456Q1110 477 1012 486.5Q914 496 770 496Q626 496 537.5 491Q449 486 401 468Q353 450 336.5 415Q320 380 320 320Q320 260 337.5 222.5Q355 185 409 164Q463 143 564.5 135.5Q666 128 834 128ZM1088 1280 1216 1376 896 1856H704L384 1376L512 1280L800 1728Z" glyph-name="acircumflex" horiz-adv-x="1600" unicode="&#226;" /><glyph d="M832 1664 704 1856 128 1376 192 1280Z" glyph-name="acute" horiz-adv-x="960" unicode="&#180;" /><glyph d="M1280 158Q1278.5 152 1267.25 137Q1256 122 1235 98Q1205 62 1155 34.5Q1105 7 1021.5 -8.5Q979.75 -16.25 924.875 -20.125Q870 -24 802 -24Q621 -24 493 -5.5Q365 13 284 51.5Q203 90 165.5 150Q128 210 128 293Q128 380 148.5 440.5Q169 501 208.5 542Q248 583 304 606Q360 629 431.5 641Q503 653 588 656Q673 659 769 659Q906 659 998 647.5Q1090 636 1148.5 618.5Q1207 601 1237 581Q1267 561 1280 544Q1280 656 1270.5 735Q1261 814 1239.5 867Q1218 920 1184 951.5Q1150 983 1100.5 999Q1051 1015 985 1019.5Q919 1024 834 1024Q702 1024 615 1017.5Q528 1011 477 992Q426 973 405 939.5Q384 906 384 852H192Q192 943 224.5 1006Q257 1069 332.5 1108.5Q408 1148 531 1166Q654 1184 834 1184Q1010 1184 1132 1155Q1254 1126 1329.5 1053Q1405 980 1438.5 856.5Q1472 733 1472 544V0H1280ZM834 128Q961 128 1046.5 140Q1132 152 1184 176Q1236 200 1258 236Q1280 272 1280 320Q1280 368 1254.5 401.5Q1229 435 1169.5 456Q1110 477 1012 486.5Q914 496 770 496Q626 496 537.5 491Q449 486 401 468Q353 450 336.5 415Q320 380 320 320Q320 260 337.5 222.5Q355 185 409 164Q463 143 564.5 135.5Q666 128 834 128ZM512 1536H320V1344H512ZM1280 1536H1088V1344H1280Z" glyph-name="adieresis" horiz-adv-x="1600" unicode="&#228;" /><glyph d="M1984 -32Q1869 -32 1775.5 -23Q1682 -14 1607.5 7Q1533 28 1477 61.5Q1421 95 1382 145Q1368 126.5 1349.75 109.75Q1331.5 93 1309 78Q1277 57 1232 36.5Q1187 16 1125.5 0Q1064 -16 984 -26Q904 -36 802 -36Q621 -36 493 -17Q365 2 284 42.5Q203 83 165.5 145Q128 207 128 293Q128 380 148.5 440.5Q169 501 208.5 542Q248 583 304 606Q360 629 431.5 641Q503 653 588 656Q673 659 769 659Q853 659 919.5 654Q986 649 1038 641Q1090 633 1128 622.5Q1166 612 1193 601Q1224.5 588 1246.25 573.75Q1268 559.5 1280 544Q1280 640 1270.5 708Q1261 776 1239.5 822.5Q1218 869 1184 896Q1150 923 1100.5 937.5Q1051 952 985 956Q919 960 834 960Q702 960 615 952.5Q528 945 477 924Q426 903 405 865.5Q384 828 384 768H192Q192 864 224.5 931Q257 998 332.5 1040Q408 1082 531 1101Q654 1120 834 1120Q939 1120 1023.5 1112Q1108 1104 1175 1080Q1242 1056 1293 1012Q1344 968 1382 896Q1416 968 1471 1012Q1526 1056 1602 1080Q1678 1104 1773.5 1112Q1869 1120 1984 1120Q2121 1120 2221.5 1101.5Q2322 1083 2393.5 1049Q2465 1015 2509.5 966Q2554 917 2579.5 857Q2605 797 2614.5 726Q2624 655 2624 576L2608 512H1472V486Q1474 363 1501.5 291.5Q1529 220 1589.5 184Q1650 148 1746.5 138Q1843 128 1984 128Q2116 128 2202.5 135.5Q2289 143 2340 164Q2391 185 2411.5 222.5Q2432 260 2432 320H2624Q2624 224 2591.5 157Q2559 90 2484 48Q2409 6 2286.5 -13Q2164 -32 1984 -32ZM834 128Q961 128 1046.5 140Q1132 152 1184 176Q1236 200 1258 236Q1280 272 1280 320Q1280 368 1254.5 401.5Q1229 435 1169.5 456Q1110 477 1012 486.5Q914 496 770 496Q626 496 537.5 491Q449 486 401 468Q353 450 336.5 415Q320 380 320 320Q320 260 337.5 222.5Q355 185 409 164Q463 143 564.5 135.5Q666 128 834 128ZM1984 960Q1840 960 1742 950.5Q1644 941 1584 908Q1524 875 1498 811.5Q1472 748 1472 640H2432Q2432 736 2407 798Q2382 860 2328 896Q2274 932 2189 946Q2104 960 1984 960Z" glyph-name="ae" horiz-adv-x="2752" unicode="&#230;" /><glyph d="M2273 1627 2145 1819 1569 1339 1633 1243ZM1280 158Q1278.5 152 1267.25 137Q1256 122 1235 98Q1205 62 1155 34.5Q1105 7 1021.5 -8.5Q979.75 -16.25 924.875 -20.125Q870 -24 802 -24Q621 -24 493 -5.5Q365 13 284 51.5Q203 90 165.5 150Q128 210 128 293Q128 380 148.5 440.5Q169 501 208.5 542Q248 583 304 606Q360 629 431.5 641Q503 653 588 656Q673 659 769 659Q906 659 998 647.5Q1090 636 1148.5 618.5Q1207 601 1237 581Q1267 561 1280 544Q1280 656 1270.5 735Q1261 814 1239.5 867Q1218 920 1184 951.5Q1150 983 1100.5 999Q1051 1015 985 1019.5Q919 1024 834 1024Q702 1024 615 1017.5Q528 1011 477 992Q426 973 405 939.5Q384 906 384 852H192Q192 943 224.5 1006Q257 1069 332.5 1108.5Q408 1148 531 1166Q654 1184 834 1184Q1010 1184 1132 1155Q1254 1126 1329.5 1053Q1405 980 1438.5 856.5Q1472 733 1472 544V0H1280ZM834 128Q961 128 1046.5 140Q1132 152 1184 176Q1236 200 1258 236Q1280 272 1280 320Q1280 368 1254.5 401.5Q1229 435 1169.5 456Q1110 477 1012 486.5Q914 496 770 496Q626 496 537.5 491Q449 486 401 468Q353 450 336.5 415Q320 380 320 320Q320 260 337.5 222.5Q355 185 409 164Q463 143 564.5 135.5Q666 128 834 128ZM2432 -22Q2240 -22 2106 4.5Q1972 31 1888 96Q1804 161 1766 270Q1728 379 1728 544Q1728 733 1766 856.5Q1804 980 1888 1053Q1972 1126 2106 1155Q2240 1184 2432 1184Q2569 1184 2669.5 1164Q2770 1144 2841.5 1106Q2913 1068 2957.5 1014Q3002 960 3027.5 900.5Q3053 841 3062.5 761Q3072 681 3072 592L3056 528H1920Q1920 396 1946 311.5Q1972 227 2032 188Q2092 149 2190 138.5Q2288 128 2432 128Q2564 128 2650.5 135.5Q2737 143 2788 164Q2839 185 2859.5 222.5Q2880 260 2880 320H3072Q3072 227 3039.5 161.5Q3007 96 2932 55.5Q2857 15 2734.5 -3.5Q2612 -22 2432 -22ZM2432 1024Q2336 1024 2260.5 1020Q2185 1016 2128.5 1002.5Q2072 989 2032 963.5Q1992 938 1967.5 903.5Q1943 869 1931.5 806.5Q1920 744 1920 656H2880Q2880 773 2855 839.5Q2830 906 2776 949Q2722 992 2637 1008Q2552 1024 2432 1024Z" glyph-name="aeacute" horiz-adv-x="3200" unicode="&#509;" /><glyph d="M1280 158Q1278.5 152 1267.25 137Q1256 122 1235 98Q1205 62 1155 34.5Q1105 7 1021.5 -8.5Q979.75 -16.25 924.875 -20.125Q870 -24 802 -24Q621 -24 493 -5.5Q365 13 284 51.5Q203 90 165.5 150Q128 210 128 293Q128 380 148.5 440.5Q169 501 208.5 542Q248 583 304 606Q360 629 431.5 641Q503 653 588 656Q673 659 769 659Q906 659 998 647.5Q1090 636 1148.5 618.5Q1207 601 1237 581Q1267 561 1280 544Q1280 656 1270.5 735Q1261 814 1239.5 867Q1218 920 1184 951.5Q1150 983 1100.5 999Q1051 1015 985 1019.5Q919 1024 834 1024Q702 1024 615 1017.5Q528 1011 477 992Q426 973 405 939.5Q384 906 384 852H192Q192 943 224.5 1006Q257 1069 332.5 1108.5Q408 1148 531 1166Q654 1184 834 1184Q1010 1184 1132 1155Q1254 1126 1329.5 1053Q1405 980 1438.5 856.5Q1472 733 1472 544V0H1280ZM834 128Q961 128 1046.5 140Q1132 152 1184 176Q1236 200 1258 236Q1280 272 1280 320Q1280 368 1254.5 401.5Q1229 435 1169.5 456Q1110 477 1012 486.5Q914 496 770 496Q626 496 537.5 491Q449 486 401 468Q353 450 336.5 415Q320 380 320 320Q320 260 337.5 222.5Q355 185 409 164Q463 143 564.5 135.5Q666 128 834 128ZM448 1664 576 1856 1152 1376 1088 1280Z" glyph-name="agrave" horiz-adv-x="1600" unicode="&#224;" /><glyph d="M450 1244H1218V1404H450ZM1280 158Q1278.5 152 1267.25 137Q1256 122 1235 98Q1205 62 1155 34.5Q1105 7 1021.5 -8.5Q979.75 -16.25 924.875 -20.125Q870 -24 802 -24Q621 -24 493 -5.5Q365 13 284 51.5Q203 90 165.5 150Q128 210 128 293Q128 380 148.5 440.5Q169 501 208.5 542Q248 583 304 606Q360 629 431.5 641Q503 653 588 656Q673 659 769 659Q906 659 998 647.5Q1090 636 1148.5 618.5Q1207 601 1237 581Q1267 561 1280 544Q1280 656 1270.5 735Q1261 814 1239.5 867Q1218 920 1184 951.5Q1150 983 1100.5 999Q1051 1015 985 1019.5Q919 1024 834 1024Q702 1024 615 1017.5Q528 1011 477 992Q426 973 405 939.5Q384 906 384 852H192Q192 943 224.5 1006Q257 1069 332.5 1108.5Q408 1148 531 1166Q654 1184 834 1184Q1010 1184 1132 1155Q1254 1126 1329.5 1053Q1405 980 1438.5 856.5Q1472 733 1472 544V0H1280ZM834 128Q961 128 1046.5 140Q1132 152 1184 176Q1236 200 1258 236Q1280 272 1280 320Q1280 368 1254.5 401.5Q1229 435 1169.5 456Q1110 477 1012 486.5Q914 496 770 496Q626 496 537.5 491Q449 486 401 468Q353 450 336.5 415Q320 380 320 320Q320 260 337.5 222.5Q355 185 409 164Q463 143 564.5 135.5Q666 128 834 128Z" glyph-name="amacron" horiz-adv-x="1600" unicode="&#257;" /><glyph d="M1760 768H1952V704Q1952 550 1941.5 438Q1931 326 1899 248Q1867 170 1808 121.5Q1749 73 1653 46Q1557 19 1418.5 9.5Q1280 0 1088 0Q912 0 772.5 2.5Q633 5 526.5 19Q420 33 344 64Q268 95 220 152Q172 209 150 296.5Q128 384 128 512Q128 608 149.5 678.5Q171 749 205 799Q239 849 280 880Q321 911 360 929Q399 947 431.5 953.5Q464 960 480 960Q444 984 414.5 1009Q385 1034 364 1064Q343 1094 331.5 1131Q320 1168 320 1216Q320 1312 351.5 1375.5Q383 1439 436.5 1478Q490 1517 560.5 1536Q631 1555 709 1562Q787 1569 868 1568.5Q949 1568 1024 1568Q1184 1568 1303.5 1563.5Q1423 1559 1508 1544Q1593 1529 1648 1500Q1703 1471 1735 1421Q1767 1371 1779.5 1297.5Q1792 1224 1792 1120H1600Q1600 1192 1593 1241.5Q1586 1291 1564.5 1323Q1543 1355 1504 1372Q1465 1389 1401 1397Q1337 1405 1244.5 1406.5Q1152 1408 1024 1408Q880 1408 782 1405Q684 1402 624 1384Q564 1366 538 1327Q512 1288 512 1216Q512 1190 520 1165.5Q528 1141 546.5 1117Q565 1093 595.5 1070Q626 1047 672 1024L2304 192L2240 32L640 833Q568 833 509 815Q450 797 408 758.5Q366 720 343 659Q320 598 320 512Q320 432 332.5 377Q345 322 377 286.5Q409 251 464 232Q519 213 604.5 204Q690 195 809 193.5Q928 192 1088 192Q1216 192 1315.5 193.5Q1415 195 1489.5 203.5Q1564 212 1615.5 231Q1667 250 1699 285.5Q1731 321 1745.5 376Q1760 431 1760 512Z" glyph-name="ampersand" horiz-adv-x="2432" unicode="&amp;" /><glyph d="M1413 -572Q1341 -572 1272 -559Q1203 -546 1149 -516Q1095 -486 1062 -437Q1029 -388 1029 -316Q1029 -280 1040 -247Q1051 -214 1069 -185Q1087 -156 1110 -130.5Q1133 -105 1157 -84Q1185 -59.5 1217 -37.5Q1249 -15.5 1285 4H1413Q1341 -44 1302 -90.5Q1263 -137 1245 -176Q1227 -215 1224 -243.5Q1221 -272 1221 -284Q1221 -356 1268.5 -384Q1316 -412 1413 -412ZM1280 158Q1278.5 152 1267.25 137Q1256 122 1235 98Q1205 62 1155 34.5Q1105 7 1021.5 -8.5Q979.75 -16.25 924.875 -20.125Q870 -24 802 -24Q621 -24 493 -5.5Q365 13 284 51.5Q203 90 165.5 150Q128 210 128 293Q128 380 148.5 440.5Q169 501 208.5 542Q248 583 304 606Q360 629 431.5 641Q503 653 588 656Q673 659 769 659Q906 659 998 647.5Q1090 636 1148.5 618.5Q1207 601 1237 581Q1267 561 1280 544Q1280 656 1270.5 735Q1261 814 1239.5 867Q1218 920 1184 951.5Q1150 983 1100.5 999Q1051 1015 985 1019.5Q919 1024 834 1024Q702 1024 615 1017.5Q528 1011 477 992Q426 973 405 939.5Q384 906 384 852H192Q192 943 224.5 1006Q257 1069 332.5 1108.5Q408 1148 531 1166Q654 1184 834 1184Q1010 1184 1132 1155Q1254 1126 1329.5 1053Q1405 980 1438.5 856.5Q1472 733 1472 544V0H1280ZM834 128Q961 128 1046.5 140Q1132 152 1184 176Q1236 200 1258 236Q1280 272 1280 320Q1280 368 1254.5 401.5Q1229 435 1169.5 456Q1110 477 1012 486.5Q914 496 770 496Q626 496 537.5 491Q449 486 401 468Q353 450 336.5 415Q320 380 320 320Q320 260 337.5 222.5Q355 185 409 164Q463 143 564.5 135.5Q666 128 834 128Z" glyph-name="aogonek" horiz-adv-x="1600" unicode="&#261;" /><glyph d="M384 543Q368 543 356 539.5Q344 536 336 526Q328 516 324 497Q320 478 320 447H128Q128 523 154.5 573Q181 623 220 651.5Q259 680 303.5 691.5Q348 703 384 703Q456 703 508 688Q560 673 603 655Q646 637 684.5 622Q723 607 768 607Q784 607 796 610.5Q808 614 816 624.5Q824 635 828 654Q832 673 832 703H1024Q1024 629 997.5 580Q971 531 932 501.5Q893 472 848.5 459.5Q804 447 768 447Q696 447 644 462Q592 477 549 495Q506 513 467.5 528Q429 543 384 543ZM384 928Q368 928 356 924.5Q344 921 336 911Q328 901 324 882Q320 863 320 832H128Q128 908 154.5 958Q181 1008 220 1036.5Q259 1065 303.5 1076.5Q348 1088 384 1088Q456 1088 508 1073Q560 1058 603 1040Q646 1022 684.5 1007Q723 992 768 992Q784 992 796 995.5Q808 999 816 1009.5Q824 1020 828 1039Q832 1058 832 1088H1024Q1024 1014 997.5 965Q971 916 932 886.5Q893 857 848.5 844.5Q804 832 768 832Q696 832 644 847Q592 862 549 880Q506 898 467.5 913Q429 928 384 928Z" glyph-name="approxequal" horiz-adv-x="1152" unicode="&#8776;" /><glyph d="M1280 158Q1278.5 152 1267.25 137Q1256 122 1235 98Q1205 62 1155 34.5Q1105 7 1021.5 -8.5Q979.75 -16.25 924.875 -20.125Q870 -24 802 -24Q621 -24 493 -5.5Q365 13 284 51.5Q203 90 165.5 150Q128 210 128 293Q128 380 148.5 440.5Q169 501 208.5 542Q248 583 304 606Q360 629 431.5 641Q503 653 588 656Q673 659 769 659Q906 659 998 647.5Q1090 636 1148.5 618.5Q1207 601 1237 581Q1267 561 1280 544Q1280 656 1270.5 735Q1261 814 1239.5 867Q1218 920 1184 951.5Q1150 983 1100.5 999Q1051 1015 985 1019.5Q919 1024 834 1024Q702 1024 615 1017.5Q528 1011 477 992Q426 973 405 939.5Q384 906 384 852H192Q192 943 224.5 1006Q257 1069 332.5 1108.5Q408 1148 531 1166Q654 1184 834 1184Q1010 1184 1132 1155Q1254 1126 1329.5 1053Q1405 980 1438.5 856.5Q1472 733 1472 544V0H1280ZM834 128Q961 128 1046.5 140Q1132 152 1184 176Q1236 200 1258 236Q1280 272 1280 320Q1280 368 1254.5 401.5Q1229 435 1169.5 456Q1110 477 1012 486.5Q914 496 770 496Q626 496 537.5 491Q449 486 401 468Q353 450 336.5 415Q320 380 320 320Q320 260 337.5 222.5Q355 185 409 164Q463 143 564.5 135.5Q666 128 834 128ZM800 1920Q704 1920 637 1892.5Q570 1865 528 1820Q486 1775 467 1717.5Q448 1660 448 1600Q448 1540 467 1482.5Q486 1425 528 1380Q570 1335 637 1307.5Q704 1280 800 1280Q896 1280 963 1307.5Q1030 1335 1072 1380Q1114 1425 1133 1482.5Q1152 1540 1152 1600Q1152 1660 1133 1717.5Q1114 1775 1072 1820Q1030 1865 963 1892.5Q896 1920 800 1920ZM800 1408Q740 1408 702.5 1424.5Q665 1441 644 1468Q623 1495 615.5 1529.5Q608 1564 608 1600Q608 1636 615.5 1670.5Q623 1705 644 1732Q665 1759 702.5 1775.5Q740 1792 800 1792Q860 1792 897.5 1775.5Q935 1759 956 1732Q977 1705 984.5 1670.5Q992 1636 992 1600Q992 1564 984.5 1529.5Q977 1495 956 1468Q935 1441 897.5 1424.5Q860 1408 800 1408Z" glyph-name="aring" horiz-adv-x="1600" unicode="&#229;" /><glyph d="M1440 2426 1312 2618 736 2138 800 2042ZM1280 158Q1278.5 152 1267.25 137Q1256 122 1235 98Q1205 62 1155 34.5Q1105 7 1021.5 -8.5Q979.75 -16.25 924.875 -20.125Q870 -24 802 -24Q621 -24 493 -5.5Q365 13 284 51.5Q203 90 165.5 150Q128 210 128 293Q128 380 148.5 440.5Q169 501 208.5 542Q248 583 304 606Q360 629 431.5 641Q503 653 588 656Q673 659 769 659Q906 659 998 647.5Q1090 636 1148.5 618.5Q1207 601 1237 581Q1267 561 1280 544Q1280 656 1270.5 735Q1261 814 1239.5 867Q1218 920 1184 951.5Q1150 983 1100.5 999Q1051 1015 985 1019.5Q919 1024 834 1024Q702 1024 615 1017.5Q528 1011 477 992Q426 973 405 939.5Q384 906 384 852H192Q192 943 224.5 1006Q257 1069 332.5 1108.5Q408 1148 531 1166Q654 1184 834 1184Q1010 1184 1132 1155Q1254 1126 1329.5 1053Q1405 980 1438.5 856.5Q1472 733 1472 544V0H1280ZM834 128Q961 128 1046.5 140Q1132 152 1184 176Q1236 200 1258 236Q1280 272 1280 320Q1280 368 1254.5 401.5Q1229 435 1169.5 456Q1110 477 1012 486.5Q914 496 770 496Q626 496 537.5 491Q449 486 401 468Q353 450 336.5 415Q320 380 320 320Q320 260 337.5 222.5Q355 185 409 164Q463 143 564.5 135.5Q666 128 834 128ZM800 1920Q704 1920 637 1892.5Q570 1865 528 1820Q486 1775 467 1717.5Q448 1660 448 1600Q448 1540 467 1482.5Q486 1425 528 1380Q570 1335 637 1307.5Q704 1280 800 1280Q896 1280 963 1307.5Q1030 1335 1072 1380Q1114 1425 1133 1482.5Q1152 1540 1152 1600Q1152 1660 1133 1717.5Q1114 1775 1072 1820Q1030 1865 963 1892.5Q896 1920 800 1920ZM800 1408Q740 1408 702.5 1424.5Q665 1441 644 1468Q623 1495 615.5 1529.5Q608 1564 608 1600Q608 1636 615.5 1670.5Q623 1705 644 1732Q665 1759 702.5 1775.5Q740 1792 800 1792Q860 1792 897.5 1775.5Q935 1759 956 1732Q977 1705 984.5 1670.5Q992 1636 992 1600Q992 1564 984.5 1529.5Q977 1495 956 1468Q935 1441 897.5 1424.5Q860 1408 800 1408Z" glyph-name="aringacute" horiz-adv-x="1600" unicode="&#507;" /><glyph d="M544 1408 192 896 64 992 448 1536H640L1024 992L896 896Z" glyph-name="asciicircum" horiz-adv-x="1088" unicode="^" /><glyph d="M384 928Q429 928 467.5 913Q506 898 549 880Q592 862 644 847Q696 832 768 832Q804 832 848.5 844.5Q893 857 932 886.5Q971 916 997.5 965Q1024 1014 1024 1088H832Q832 1058 828 1039Q824 1020 816 1009.5Q808 999 796 995.5Q784 992 768 992Q723 992 684.5 1007Q646 1022 603 1040Q560 1058 508 1073Q456 1088 384 1088Q348 1088 303.5 1076.5Q259 1065 220 1036.5Q181 1008 154.5 958Q128 908 128 832H320Q320 863 324 882Q328 901 336 911Q344 921 356 924.5Q368 928 384 928Z" glyph-name="asciitilde" horiz-adv-x="1152" unicode="~" /><glyph d="M420 384 264 495 628 896 128 1072 228 1250 660 992 612 1536H804L756 992L1187 1250L1287 1072L788 896L1152 495L996 384L708 834Z" glyph-name="asterisk" horiz-adv-x="1415" unicode="*" /><glyph d="M1117 288Q1224 288 1298 295.5Q1372 303 1417.5 331.5Q1463 360 1483.5 417Q1504 474 1504 573Q1504 674 1483.5 732Q1463 790 1417.5 819.5Q1372 849 1298 856.5Q1224 864 1117 864Q1022 864 954 860.5Q886 857 840.5 846.5Q795 836 768 816Q741 796 726.5 764Q712 732 708 686Q704 640 704 576Q704 512 708 466Q712 420 726.5 388Q741 356 768 336Q795 316 840.5 305.5Q886 295 954 291.5Q1022 288 1117 288ZM2112 480Q2112 384 2100 317Q2088 250 2053 208Q2018 166 1955.5 147Q1893 128 1791 128Q1718 128 1674 147.5Q1630 167 1606 195.5Q1582 224 1574.5 257.5Q1567 291 1567 320Q1554.5 293 1534.25 269Q1514 245 1486 224Q1462 206 1428.5 188.5Q1395 171 1349.5 157.5Q1304 144 1246.5 136Q1189 128 1117 128Q990 128 895.5 137.5Q801 147 734 168Q667 189 624 223Q581 257 556 307Q531 357 521.5 423.5Q512 490 512 576Q512 662 521.5 728.5Q531 795 556 845Q581 895 624 929Q667 963 734 984Q801 1005 895.5 1014.5Q990 1024 1117 1024Q1179 1024 1228.5 1017Q1278 1010 1317 999Q1356 988 1385 973.5Q1414 959 1435 944Q1459 926.5 1476.25 906.5Q1493.5 886.5 1504 864V992H1696V480Q1696 418 1699 380.5Q1702 343 1711.5 322.5Q1721 302 1740 295Q1759 288 1791 288Q1833 288 1858.5 295Q1884 302 1897.5 322.5Q1911 343 1915.5 380.5Q1920 418 1920 480V768Q1920 864 1907.5 934.5Q1895 1005 1863 1055Q1831 1105 1775.5 1136Q1720 1167 1635 1185Q1550 1203 1431 1209.5Q1312 1216 1152 1216Q976 1216 846 1211Q716 1206 623.5 1185.5Q531 1165 472 1124Q413 1083 379.5 1012Q346 941 333.5 834.5Q321 728 321 576Q321 432 334 328.5Q347 225 380.5 154Q414 83 473 40Q532 -3 624 -26Q716 -49 846 -56.5Q976 -64 1791 -64V-224H1152Q928 -224 765 -202.5Q602 -181 488.5 -137.5Q375 -94 304 -28Q233 38 194 127Q155 216 141.5 328Q128 440 128 576Q128 736 141.5 857.5Q155 979 194 1068Q233 1157 304 1216Q375 1275 488.5 1310.5Q602 1346 765 1361Q928 1376 1152 1376Q1344 1376 1490 1362Q1636 1348 1742.5 1318Q1849 1288 1920 1240Q1991 1192 2033.5 1124.5Q2054.75 1090.75 2074.375 929.625Q2094 768.5 2112 480Z" glyph-name="at" horiz-adv-x="2240" unicode="@" /><glyph d="M1280 158Q1278.5 152 1267.25 137Q1256 122 1235 98Q1205 62 1155 34.5Q1105 7 1021.5 -8.5Q979.75 -16.25 924.875 -20.125Q870 -24 802 -24Q621 -24 493 -5.5Q365 13 284 51.5Q203 90 165.5 150Q128 210 128 293Q128 380 148.5 440.5Q169 501 208.5 542Q248 583 304 606Q360 629 431.5 641Q503 653 588 656Q673 659 769 659Q906 659 998 647.5Q1090 636 1148.5 618.5Q1207 601 1237 581Q1267 561 1280 544Q1280 656 1270.5 735Q1261 814 1239.5 867Q1218 920 1184 951.5Q1150 983 1100.5 999Q1051 1015 985 1019.5Q919 1024 834 1024Q702 1024 615 1017.5Q528 1011 477 992Q426 973 405 939.5Q384 906 384 852H192Q192 943 224.5 1006Q257 1069 332.5 1108.5Q408 1148 531 1166Q654 1184 834 1184Q1010 1184 1132 1155Q1254 1126 1329.5 1053Q1405 980 1438.5 856.5Q1472 733 1472 544V0H1280ZM834 128Q961 128 1046.5 140Q1132 152 1184 176Q1236 200 1258 236Q1280 272 1280 320Q1280 368 1254.5 401.5Q1229 435 1169.5 456Q1110 477 1012 486.5Q914 496 770 496Q626 496 537.5 491Q449 486 401 468Q353 450 336.5 415Q320 380 320 320Q320 260 337.5 222.5Q355 185 409 164Q463 143 564.5 135.5Q666 128 834 128ZM608 1440Q653 1440 691.5 1425Q730 1410 773 1392Q816 1374 868 1359Q920 1344 992 1344Q1028 1344 1072.5 1356.5Q1117 1369 1156 1398.5Q1195 1428 1221.5 1477Q1248 1526 1248 1600H1056Q1056 1570 1052 1551Q1048 1532 1040 1521.5Q1032 1511 1020 1507.5Q1008 1504 992 1504Q947 1504 908.5 1519Q870 1534 827 1552.5Q784 1571 732 1586Q680 1601 608 1601Q572 1601 527.5 1589.5Q483 1578 444 1549Q405 1520 378.5 1470Q352 1420 352 1344H544Q544 1375 548 1394Q552 1413 560 1423Q568 1433 580 1436.5Q592 1440 608 1440Z" glyph-name="atilde" horiz-adv-x="1600" unicode="&#227;" /><glyph d="M832 -22Q694 -22 602.5 -3.5Q511 15 453 36.5Q395 58 365 104.5Q335 151 320 177V0H128V1536H320V1043Q333 1064 363.5 1088.5Q394 1113 452.5 1134.5Q511 1156 603 1170Q695 1184 832 1184Q1024 1184 1158 1155Q1292 1126 1376 1056Q1460 986 1498 868.5Q1536 751 1536 574Q1536 400 1498 285Q1460 170 1376 102Q1292 34 1158 6Q1024 -22 832 -22ZM832 128Q944 128 1025.5 135Q1107 142 1164 160Q1221 178 1256.5 210Q1292 242 1311.5 291.5Q1331 341 1337.5 410.5Q1344 480 1344 574Q1344 668 1337.5 738Q1331 808 1311.5 857.5Q1292 907 1256.5 939.5Q1221 972 1164 990.5Q1107 1009 1025.5 1016Q944 1023 832 1023Q736 1023 661 1018.5Q586 1014 529 998Q472 982 432.5 952Q393 922 368 872Q343 822 331.5 748Q320 674 320 571Q320 469 331.5 396.5Q343 324 368 275Q393 226 432.5 196.5Q472 167 529 152Q586 137 661 132.5Q736 128 832 128Z" glyph-name="b" horiz-adv-x="1632" unicode="b" /><glyph d="M960 0H768L64 1536H256Z" glyph-name="backslash" horiz-adv-x="1023" unicode="\" /><glyph d="M128 -128H320V1600H128Z" glyph-name="bar" horiz-adv-x="448" unicode="|" /><glyph d="M320 536Q320 470 322.5 400.5Q325 331 339 264Q353 197 384 137.5Q415 78 472 33Q529 -12 616.5 -38Q704 -64 832 -64V96Q751 96 696 109.5Q641 123 605.5 148.5Q570 174 551 212Q532 250 523.5 299Q515 348 513.5 407.5Q512 467 512 536Q512 565 510 596Q508 627 496 657Q484 687 458 715.5Q432 744 384 768Q432 792 458 820.5Q484 849 496 879Q508 909 510 940Q512 971 512 1000Q512 1069 513 1128.5Q514 1188 523 1237Q532 1286 551 1324Q570 1362 605.5 1387.5Q641 1413 696 1426.5Q751 1440 832 1440V1600Q704 1600 616.5 1574Q529 1548 472 1503Q415 1458 384 1398.5Q353 1339 339 1272Q325 1205 322.5 1135Q320 1065 320 1000Q320 964 317 935.5Q314 907 296 887.5Q278 868 239 858Q200 848 128 848V688Q200 688 239 678.5Q278 669 296 650Q314 631 317 602.5Q320 574 320 536Z" glyph-name="braceleft" horiz-adv-x="960" unicode="{" /><glyph d="M640 536Q640 574 643 602.5Q646 631 664 650Q682 669 721 678.5Q760 688 832 688V848Q760 848 721 858Q682 868 664 887.5Q646 907 643 935.5Q640 964 640 1000Q640 1065 637 1135Q634 1205 620.5 1272Q607 1339 576 1398.5Q545 1458 488 1503Q431 1548 343.5 1574Q256 1600 128 1600V1440Q208 1440 263.5 1426.5Q319 1413 354.5 1387.5Q390 1362 409 1324Q428 1286 436.5 1237Q445 1188 446.5 1128.5Q448 1069 448 1000Q448 971 450 940Q452 909 464 879Q476 849 502 820.5Q528 792 576 768Q528 744 502 715.5Q476 687 464 657Q452 627 450 596Q448 565 448 536Q448 467 446.5 407.5Q445 348 436.5 299Q428 250 409 212Q390 174 354.5 148.5Q319 123 263.5 109.5Q208 96 128 96V-64Q256 -64 343.5 -38Q431 -12 488 33Q545 78 576 137.5Q607 197 621 264Q635 331 637.5 401Q640 471 640 536Z" glyph-name="braceright" horiz-adv-x="960" unicode="}" /><glyph d="M128 1536H704V1376H320V160H704V0H128Z" glyph-name="bracketleft" horiz-adv-x="832" unicode="[" /><glyph d="M704 0H128V160H512V1376H128V1536H704Z" glyph-name="bracketright" horiz-adv-x="832" unicode="]" /><glyph d="M256 1600Q256 1432 352 1356Q448 1280 640 1280Q832 1280 928 1356Q1024 1432 1024 1600H864Q864 1528 847 1489Q830 1450 800 1432Q770 1414 729 1411Q688 1408 640 1408Q592 1408 551 1411Q510 1414 480 1432Q450 1450 433 1489Q416 1528 416 1600Z" glyph-name="breve" horiz-adv-x="1280" unicode="&#728;" /><glyph d="M128 896H320V1600H128ZM128 -128H320V576H128Z" glyph-name="brokenbar" horiz-adv-x="448" unicode="&#166;" /><glyph d="M640 256Q694 256 740.5 269Q787 282 821.5 312Q856 342 876 391Q896 440 896 512Q896 584 876 633Q856 682 821.5 712Q787 742 740.5 755Q694 768 640 768Q586 768 539 755Q492 742 457.5 712Q423 682 403.5 633Q384 584 384 512Q384 440 403.5 391Q423 342 457.5 312Q492 282 539 269Q586 256 640 256Z" glyph-name="bullet" horiz-adv-x="1280" unicode="&#8226;" /><glyph d="M96 574Q96 694 108 786Q120 878 150.5 946Q181 1014 232.5 1059.5Q284 1105 362.5 1133Q441 1161 549 1173Q657 1185 801 1185Q993 1185 1117 1161.5Q1241 1138 1313 1089.5Q1385 1041 1413 966.5Q1441 892 1441 789H1249Q1249 826 1247 858Q1245 890 1232.5 916Q1220 942 1193 962.5Q1166 983 1116 997Q1066 1011 989.5 1018Q913 1025 801 1025Q673 1025 585.5 1016Q498 1007 441 986.5Q384 966 353 931.5Q322 897 308 847Q294 797 291.5 729.5Q289 662 289 574Q289 488 291.5 421.5Q294 355 308 305.5Q322 256 353 222Q384 188 441 167Q498 146 585.5 137Q673 128 801 128Q913 128 989.5 136Q1066 144 1116 159Q1166 174 1193 196Q1220 218 1232.5 246.5Q1245 275 1247 309.5Q1249 344 1249 384H1441Q1441 279 1413 202Q1385 125 1313 75.5Q1241 26 1117 2Q993 -22 801 -22Q657 -22 549 -10Q441 2 362.5 29.5Q284 57 232.5 102Q181 147 150.5 213Q120 279 108 368.5Q96 458 96 574Z" glyph-name="c" horiz-adv-x="1569" unicode="c" /><glyph d="M544 1408 256 1856 128 1760 448 1280H640L960 1760L832 1856Z" glyph-name="caron" horiz-adv-x="1088" unicode="&#711;" /><glyph d="M833 1372 545 1820 417 1724 737 1244H929L1249 1724L1121 1820ZM128 574Q128 694 140 786Q152 878 182.5 946Q213 1014 264.5 1059.5Q316 1105 394.5 1133Q473 1161 581 1173Q689 1185 833 1185Q1025 1185 1149 1161.5Q1273 1138 1345 1089.5Q1417 1041 1445 966.5Q1473 892 1473 789H1281Q1281 826 1279 858Q1277 890 1264.5 916Q1252 942 1225 962.5Q1198 983 1148 997Q1098 1011 1021.5 1018Q945 1025 833 1025Q705 1025 617.5 1016Q530 1007 473 986.5Q416 966 385 931.5Q354 897 340 847Q326 797 323.5 729.5Q321 662 321 574Q321 488 323.5 421.5Q326 355 340 305.5Q354 256 385 222Q416 188 473 167Q530 146 617.5 137Q705 128 833 128Q945 128 1021.5 136Q1098 144 1148 159Q1198 174 1225 196Q1252 218 1264.5 246.5Q1277 275 1279 309.5Q1281 344 1281 384H1473Q1473 279 1445 202Q1417 125 1345 75.5Q1273 26 1149 2Q1025 -22 833 -22Q689 -22 581 -10Q473 2 394.5 29.5Q316 57 264.5 102Q213 147 182.5 213Q152 279 140 368.5Q128 458 128 574Z" glyph-name="ccaron" horiz-adv-x="1601" unicode="&#269;" /><glyph d="M704 -544Q776 -544 845 -535.5Q914 -527 968 -500Q1022 -473 1055 -422.5Q1088 -372 1088 -288Q1088 -240 1066 -209Q1044 -178 1008 -160Q972 -142 926 -135Q880 -128 832 -128V-32H833Q1025 -32 1149 -7.5Q1273 17 1345 68Q1417 119 1445 197.5Q1473 276 1473 384H1281Q1281 344 1279 309.5Q1277 275 1264.5 246.5Q1252 218 1225 196Q1198 174 1148 159Q1098 144 1021.5 136Q945 128 833 128Q705 128 617.5 136.5Q530 145 473 164.5Q416 184 385 216Q354 248 340 294Q326 340 323.5 402Q321 464 321 544Q321 624 323.5 686Q326 748 340 794Q354 840 385 872Q416 904 473 923.5Q530 943 617.5 951.5Q705 960 833 960Q945 960 1021.5 952Q1098 944 1148 929Q1198 914 1225 892Q1252 870 1264.5 841.5Q1277 813 1279 778.5Q1281 744 1281 704H1473Q1473 812 1445 890.5Q1417 969 1345 1020Q1273 1071 1149 1095.5Q1025 1120 833 1120Q689 1120 581 1108.5Q473 1097 394.5 1070.5Q316 1044 264.5 1000Q213 956 182.5 892Q152 828 140 742Q128 656 128 544Q128 432 140 346Q152 260 182.5 196Q213 132 264.5 88Q316 44 394.5 17.5Q433.75 4.25 480.375 -5.125Q527 -14.5 581 -20Q609 -23 639.75 -25.25Q670.5 -27.5 704 -29V-224Q776 -224 815 -229.5Q854 -235 872 -244Q890 -253 893 -264.5Q896 -276 896 -288Q896 -324 884 -343.5Q872 -363 848 -372Q824 -381 788 -382.5Q752 -384 704 -384Z" glyph-name="ccedilla" horiz-adv-x="1601" unicode="&#231;" /><glyph d="M1121 1244 1249 1340 929 1820H737L417 1340L545 1244L833 1692ZM128 574Q128 694 140 786Q152 878 182.5 946Q213 1014 264.5 1059.5Q316 1105 394.5 1133Q473 1161 581 1173Q689 1185 833 1185Q1025 1185 1149 1161.5Q1273 1138 1345 1089.5Q1417 1041 1445 966.5Q1473 892 1473 789H1281Q1281 826 1279 858Q1277 890 1264.5 916Q1252 942 1225 962.5Q1198 983 1148 997Q1098 1011 1021.5 1018Q945 1025 833 1025Q705 1025 617.5 1016Q530 1007 473 986.5Q416 966 385 931.5Q354 897 340 847Q326 797 323.5 729.5Q321 662 321 574Q321 488 323.5 421.5Q326 355 340 305.5Q354 256 385 222Q416 188 473 167Q530 146 617.5 137Q705 128 833 128Q945 128 1021.5 136Q1098 144 1148 159Q1198 174 1225 196Q1252 218 1264.5 246.5Q1277 275 1279 309.5Q1281 344 1281 384H1473Q1473 279 1445 202Q1417 125 1345 75.5Q1273 26 1149 2Q1025 -22 833 -22Q689 -22 581 -10Q473 2 394.5 29.5Q316 57 264.5 102Q213 147 182.5 213Q152 279 140 368.5Q128 458 128 574Z" glyph-name="ccircumflex" horiz-adv-x="1601" unicode="&#265;" /><glyph d="M929 1436H737V1244H929ZM128 574Q128 694 140 786Q152 878 182.5 946Q213 1014 264.5 1059.5Q316 1105 394.5 1133Q473 1161 581 1173Q689 1185 833 1185Q1025 1185 1149 1161.5Q1273 1138 1345 1089.5Q1417 1041 1445 966.5Q1473 892 1473 789H1281Q1281 826 1279 858Q1277 890 1264.5 916Q1252 942 1225 962.5Q1198 983 1148 997Q1098 1011 1021.5 1018Q945 1025 833 1025Q705 1025 617.5 1016Q530 1007 473 986.5Q416 966 385 931.5Q354 897 340 847Q326 797 323.5 729.5Q321 662 321 574Q321 488 323.5 421.5Q326 355 340 305.5Q354 256 385 222Q416 188 473 167Q530 146 617.5 137Q705 128 833 128Q945 128 1021.5 136Q1098 144 1148 159Q1198 174 1225 196Q1252 218 1264.5 246.5Q1277 275 1279 309.5Q1281 344 1281 384H1473Q1473 279 1445 202Q1417 125 1345 75.5Q1273 26 1149 2Q1025 -22 833 -22Q689 -22 581 -10Q473 2 394.5 29.5Q316 57 264.5 102Q213 147 182.5 213Q152 279 140 368.5Q128 458 128 574Z" glyph-name="cdotaccent" horiz-adv-x="1601" unicode="&#267;" /><glyph d="M128 -384Q176 -384 212 -382.5Q248 -381 272 -372Q296 -363 308 -343.5Q320 -324 320 -288Q320 -276 317 -264.5Q314 -253 296 -244Q278 -235 239 -229.5Q200 -224 128 -224V64H256V-128Q304 -128 350 -135Q396 -142 432 -160Q468 -178 490 -209Q512 -240 512 -288Q512 -372 479 -422.5Q446 -473 392 -500Q338 -527 269 -535.5Q200 -544 128 -544Z" glyph-name="cedilla" horiz-adv-x="640" unicode="&#184;" /><glyph d="M128 544Q128 432 140 346Q152 260 182.5 196Q213 132 264.5 88Q316 44 394.5 17.5Q473 -9 581 -20.5Q689 -32 833 -32Q1025 -32 1149 -7.5Q1273 17 1345 68Q1417 119 1445 197.5Q1473 276 1473 384H1281Q1281 344 1279 309.5Q1277 275 1264.5 246.5Q1252 218 1225 196Q1198 174 1148 159Q1098 144 1021.5 136Q945 128 833 128Q705 128 617.5 136.5Q530 145 473 164.5Q416 184 385 216Q354 248 340 294Q326 340 323.5 402Q321 464 321 544Q321 624 323.5 686Q326 748 340 794Q354 840 385 872Q416 904 473 923.5Q530 943 617.5 951.5Q705 960 833 960Q945 960 1021.5 952Q1098 944 1148 929Q1198 914 1225 892Q1252 870 1264.5 841.5Q1277 813 1279 778.5Q1281 744 1281 704H1473Q1473 812 1445 890.5Q1417 969 1345 1020Q1273 1071 1149 1095.5Q1025 1120 833 1120Q689 1120 581 1108.5Q473 1097 394.5 1070.5Q316 1044 264.5 1000Q213 956 182.5 892Q152 828 140 742Q128 656 128 544Z" glyph-name="cent" horiz-adv-x="1601" unicode="&#162;" /><glyph d="M832 1280 960 1376 640 1856H448L128 1376L256 1280L544 1728Z" glyph-name="circumflex" horiz-adv-x="1088" unicode="&#710;" /><glyph d="M392 896H200V1088H392ZM392 320H200V512H392Z" glyph-name="colon" horiz-adv-x="592" unicode=":" /><glyph d="M128 128H320L192 -256H64Z" glyph-name="comma" horiz-adv-x="448" unicode="," /><glyph d="M960 1664Q784 1664 654 1642.5Q524 1621 431.5 1577.5Q339 1534 280 1468Q221 1402 187 1313Q153 1224 140.5 1112Q128 1000 128 864Q128 728 140.5 616Q153 504 187 415Q221 326 280 260Q339 194 431.5 150.5Q524 107 654 85.5Q784 64 960 64Q1136 64 1266 85.5Q1396 107 1488.5 150.5Q1581 194 1640 260Q1699 326 1733 415Q1767 504 1779.5 616Q1792 728 1792 864Q1792 1000 1779.5 1112Q1767 1224 1733 1313Q1699 1402 1640 1468Q1581 1534 1488.5 1577.5Q1396 1621 1266 1642.5Q1136 1664 960 1664ZM960 224Q832 224 735 231.5Q638 239 566.5 262Q495 285 448 328Q401 371 372.5 442Q344 513 332 616.5Q320 720 320 864Q320 1008 332 1111.5Q344 1215 372.5 1286Q401 1357 448 1400Q495 1443 566.5 1466Q638 1489 735 1496.5Q832 1504 960 1504Q1088 1504 1185 1496.5Q1282 1489 1353.5 1466Q1425 1443 1472 1400Q1519 1357 1547.5 1286Q1576 1215 1588 1111.5Q1600 1008 1600 864Q1600 720 1588 616.5Q1576 513 1547.5 442Q1519 371 1472 328Q1425 285 1353.5 262Q1282 239 1185 231.5Q1088 224 960 224ZM448 893Q448 752 469 659Q490 566 546.5 510.5Q603 455 702.5 432.5Q802 410 959 410Q1111 410 1210 430.5Q1309 451 1367.5 493.5Q1426 536 1449 602Q1472 668 1472 759H1312Q1312 725 1310 696.5Q1308 668 1297.5 644Q1287 620 1265.5 601.5Q1244 583 1204.5 570Q1165 557 1105 550.5Q1045 544 959 544Q872 544 812.5 551Q753 558 714 574.5Q675 591 654 618Q633 645 623 683.5Q613 722 611.5 774Q610 826 610 893Q610 960 611.5 1012Q613 1064 623 1102.5Q633 1141 654 1167.5Q675 1194 714 1210.5Q753 1227 812.5 1234Q872 1241 959 1241Q1045 1241 1105 1234.5Q1165 1228 1204.5 1215.5Q1244 1203 1265.5 1184.5Q1287 1166 1297.5 1142Q1308 1118 1310 1089Q1312 1060 1312 1027H1472Q1472 1117 1449 1183Q1426 1249 1367.5 1291.5Q1309 1334 1210 1354.5Q1111 1375 959 1375Q802 1375 702.5 1352.5Q603 1330 546.5 1274.5Q490 1219 469 1126.5Q448 1034 448 893Z" glyph-name="copyright" horiz-adv-x="1920" unicode="&#169;" /><glyph d="M640 928Q553 928 479 908.5Q405 889 346 848L196 977L112 880L256 756Q225 708 208.5 647.5Q192 587 192 512Q192 436 208.5 376Q225 316 256 268L112 144L196 47L346 176Q404 134 478.5 115Q553 96 640 96Q726 96 800.5 115Q875 134 933 175L1084 47L1168 144L1023 268Q1054 316 1071 376Q1088 436 1088 512Q1088 587 1071.5 647.5Q1055 708 1023 756L1168 880L1084 977L934 848Q875 889 800.5 908.5Q726 928 640 928ZM640 256Q586 256 539 269Q492 282 457.5 312Q423 342 403.5 391Q384 440 384 512Q384 584 403.5 633Q423 682 457.5 712Q492 742 539 755Q586 768 640 768Q694 768 740.5 755Q787 742 821.5 712Q856 682 876 633Q896 584 896 512Q896 440 876 391Q856 342 821.5 312Q787 282 740.5 269Q694 256 640 256Z" glyph-name="currency" horiz-adv-x="1280" unicode="&#164;" /><glyph d="M800 -22Q608 -22 474 6Q340 34 256 102Q172 170 134 285Q96 400 96 574Q96 754 134 872Q172 990 256 1059Q340 1128 474 1156Q608 1184 800 1184Q936 1184 1028 1170Q1120 1156 1178.5 1135Q1237 1114 1267.5 1089.5Q1298 1065 1312 1044V1536H1504V0H1312V171Q1312 171 1300 156.75Q1288 142.5 1264 114Q1222 73 1171 48Q1120 23 1028 0.5Q982 -10.75 925 -16.375Q868 -22 800 -22ZM800 128Q896 128 971 132.5Q1046 137 1103 152Q1160 167 1199.5 196.5Q1239 226 1264 275Q1289 324 1300.5 396.5Q1312 469 1312 571Q1312 677 1300.5 751.5Q1289 826 1264 876.5Q1239 927 1199.5 956Q1160 985 1103 1000.5Q1046 1016 971 1020Q896 1024 800 1024Q688 1024 606.5 1017Q525 1010 468 992Q411 974 375.5 942Q340 910 320.5 860Q301 810 294.5 739.5Q288 669 288 574Q288 480 294.5 410.5Q301 341 320.5 291.5Q340 242 375.5 210Q411 178 468 160Q525 142 606.5 135Q688 128 800 128Z" glyph-name="d" horiz-adv-x="1632" unicode="d" /><glyph d="M832 928V1088H576V1600H384V1088H128V928H384V-128H576V928Z" glyph-name="dagger" horiz-adv-x="960" unicode="&#8224;" /><glyph d="M832 320V480H576V928H832V1088H576V1600H384V1088H128V928H384V480H128V320H384V-128H576V320Z" glyph-name="daggerdbl" horiz-adv-x="960" unicode="&#8225;" /><glyph d="M896 1409H1344V1536H1536V1409H1664V1249H1536V0H1344V127Q1331.5 104.5 1309.5 84.5Q1287.5 64.5 1256 47Q1229 32 1191 18Q1153 4 1101 -7.5Q1049 -19 982.5 -25.5Q916 -32 832 -32Q640 -32 506 -5Q372 22 288 88Q204 154 166 265Q128 376 128 544Q128 712 166 823Q204 934 288 1000Q372 1066 506 1093Q640 1120 832 1120Q916 1120 982.5 1113Q1049 1106 1101 1095Q1153 1084 1191 1069.5Q1229 1055 1256 1040Q1287.5 1022.5 1309.5 1002.5Q1331.5 982.5 1344 960V1249H896ZM832 128Q928 128 1003 132Q1078 136 1135 150.5Q1192 165 1231.5 192Q1271 219 1296 264.5Q1321 310 1332.5 378Q1344 446 1344 541Q1344 638 1332.5 706.5Q1321 775 1296 821.5Q1271 868 1231.5 895.5Q1192 923 1135 937.5Q1078 952 1003 956Q928 960 832 960Q720 960 638.5 953.5Q557 947 500 930Q443 913 407.5 884Q372 855 352.5 808.5Q333 762 326.5 697Q320 632 320 544Q320 456 326.5 391Q333 326 352.5 279.5Q372 233 407.5 204Q443 175 500 158Q557 141 638.5 134.5Q720 128 832 128Z" glyph-name="dcroat" horiz-adv-x="1664" unicode="&#273;" /><glyph d="M640 928Q544 928 462 903.5Q380 879 320 828Q260 777 226 698.5Q192 620 192 512Q192 404 226 325.5Q260 247 320 196Q380 145 462 120.5Q544 96 640 96Q736 96 818 120.5Q900 145 960 196Q1020 247 1054 325.5Q1088 404 1088 512Q1088 620 1054 698.5Q1020 777 960 828Q900 879 818 903.5Q736 928 640 928ZM640 256Q586 256 539 269Q492 282 457.5 312Q423 342 403.5 391Q384 440 384 512Q384 584 403.5 633Q423 682 457.5 712Q492 742 539 755Q586 768 640 768Q694 768 740.5 755Q787 742 821.5 712Q856 682 876 633Q896 584 896 512Q896 440 876 391Q856 342 821.5 312Q787 282 740.5 269Q694 256 640 256Z" glyph-name="degree" horiz-adv-x="1280" unicode="&#176;" /><glyph d="M256 1536H64V1344H256ZM1024 1536H832V1344H1024Z" glyph-name="dieresis" horiz-adv-x="1088" unicode="&#168;" /><glyph d="M128 512H1152V672H128ZM768 960H576V768H768ZM768 384H576V192H768Z" glyph-name="divide" horiz-adv-x="1280" unicode="&#247;" /><glyph d="M913 -36H832Q688 -36 580 -25Q472 -14 394 8.5Q316 31 265 65.5Q214 100 183.5 146.5Q153 193 141 252.5Q129 312 129 384H321Q321 294 347 243Q373 192 433 166.5Q493 141 590.5 134.5Q688 128 832 128H913V704H896Q720 704 594.5 717Q469 730 384 754.5Q299 779 248 815.5Q197 852 170.5 899Q144 946 136 1003.5Q128 1061 128 1128Q128 1198 140.5 1258Q153 1318 187 1366.5Q221 1415 280 1453Q339 1491 431.5 1516.5Q477.75 1529.25 533.375 1538.875Q589 1548.5 654 1555Q710 1560.5 774.75 1563.75Q839.5 1567 913 1568V1664H1105V1568H1152Q1296 1568 1404 1557.5Q1512 1547 1590 1524.5Q1668 1502 1719.5 1468.5Q1771 1435 1801.5 1388.5Q1832 1342 1844 1283Q1856 1224 1856 1152H1664Q1664 1242 1638 1293Q1612 1344 1552 1369.5Q1492 1395 1394 1401.5Q1296 1408 1152 1408H1105V864H1160Q1318 864 1431 851Q1544 838 1621.5 812.5Q1699 787 1745 749Q1791 711 1816 662.5Q1841 614 1848.5 554Q1856 494 1856 424Q1856 354 1843.5 292.5Q1831 231 1799 180Q1767 129 1712 89Q1657 49 1572 21Q1529.5 7 1478.25 -3.5Q1427 -14 1367 -21Q1310.5 -28 1245 -31.75Q1179.5 -35.5 1105 -36V-128H913ZM913 864V1408Q832.5 1407 765.25 1403.5Q698 1400 644 1394Q520 1381 448 1349Q376 1317 348 1263Q334 1236 327 1202.25Q320 1168.5 320 1128Q320 1078 327 1039Q334 1000 355.5 970.5Q377 941 416 921Q455 901 519 888Q583 875 675.5 869.5Q768 864 896 864ZM1105 704V128Q1183.5 128.5 1249 132.5Q1314.5 136.5 1367 144Q1478 160 1544 195Q1610 230 1637 286.5Q1650.5 314.75 1657.25 349.125Q1664 383.5 1664 424Q1664 505 1645.5 559Q1627 613 1572.5 645Q1518 677 1419 690.5Q1320 704 1160 704Z" glyph-name="dollar" horiz-adv-x="2018" unicode="$" /><glyph d="M320 1536H128V1344H320Z" glyph-name="dotaccent" horiz-adv-x="448" unicode="&#729;" /><glyph d="M128 0H320V1088H128Z" glyph-name="dotlessi" horiz-adv-x="448" unicode="&#305;" /><glyph d="M480 1088H288V-64Q288 -112 281 -143Q274 -174 256 -192Q238 -210 207 -217Q176 -224 128 -224V-384Q248 -384 318 -361.5Q388 -339 424 -297.5Q460 -256 470 -197Q480 -138 480 -64Z" glyph-name="dotlessj" horiz-adv-x="608" unicode="&#567;" /><glyph d="M1321 1280 1385 1376 809 1856 681 1664ZM768 1280 832 1376 256 1856 128 1664Z" glyph-name="doublegrave" horiz-adv-x="1512" /><glyph d="M800 -22Q608 -22 474 4.5Q340 31 256 96Q172 161 134 270Q96 379 96 544Q96 733 134 856.5Q172 980 256 1053Q340 1126 474 1155Q608 1184 800 1184Q937 1184 1037.5 1164Q1138 1144 1209.5 1106Q1281 1068 1325.5 1014Q1370 960 1395.5 900.5Q1421 841 1430.5 761Q1440 681 1440 592L1424 528H288Q288 396 314 311.5Q340 227 400 188Q460 149 558 138.5Q656 128 800 128Q932 128 1018.5 135.5Q1105 143 1156 164Q1207 185 1227.5 222.5Q1248 260 1248 320H1440Q1440 227 1407.5 161.5Q1375 96 1300 55.5Q1225 15 1102.5 -3.5Q980 -22 800 -22ZM800 1024Q704 1024 628.5 1020Q553 1016 496.5 1002.5Q440 989 400 963.5Q360 938 335.5 903.5Q311 869 299.5 806.5Q288 744 288 656H1248Q1248 773 1223 839.5Q1198 906 1144 949Q1090 992 1005 1008Q920 1024 800 1024Z" glyph-name="e" horiz-adv-x="1568" unicode="e" /><glyph d="M832 -22Q640 -22 506 4.5Q372 31 288 96Q204 161 166 270Q128 379 128 544Q128 733 166 856.5Q204 980 288 1053Q372 1126 506 1155Q640 1184 832 1184Q969 1184 1069.5 1164Q1170 1144 1241.5 1106Q1313 1068 1357.5 1014Q1402 960 1427.5 900.5Q1453 841 1462.5 761Q1472 681 1472 592L1456 528H320Q320 396 346 311.5Q372 227 432 188Q492 149 590 138.5Q688 128 832 128Q964 128 1050.5 135.5Q1137 143 1188 164Q1239 185 1259.5 222.5Q1280 260 1280 320H1472Q1472 227 1439.5 161.5Q1407 96 1332 55.5Q1257 15 1134.5 -3.5Q1012 -22 832 -22ZM832 1024Q736 1024 660.5 1020Q585 1016 528.5 1002.5Q472 989 432 963.5Q392 938 367.5 903.5Q343 869 331.5 806.5Q320 744 320 656H1280Q1280 773 1255 839.5Q1230 906 1176 949Q1122 992 1037 1008Q952 1024 832 1024ZM1152 1664 1024 1856 448 1376 512 1280Z" glyph-name="eacute" horiz-adv-x="1600" unicode="&#233;" /><glyph d="M832 1371 544 1819 416 1723 736 1243H928L1248 1723L1120 1819ZM832 -22Q640 -22 506 4.5Q372 31 288 96Q204 161 166 270Q128 379 128 544Q128 733 166 856.5Q204 980 288 1053Q372 1126 506 1155Q640 1184 832 1184Q969 1184 1069.5 1164Q1170 1144 1241.5 1106Q1313 1068 1357.5 1014Q1402 960 1427.5 900.5Q1453 841 1462.5 761Q1472 681 1472 592L1456 528H320Q320 396 346 311.5Q372 227 432 188Q492 149 590 138.5Q688 128 832 128Q964 128 1050.5 135.5Q1137 143 1188 164Q1239 185 1259.5 222.5Q1280 260 1280 320H1472Q1472 227 1439.5 161.5Q1407 96 1332 55.5Q1257 15 1134.5 -3.5Q1012 -22 832 -22ZM832 1024Q736 1024 660.5 1020Q585 1016 528.5 1002.5Q472 989 432 963.5Q392 938 367.5 903.5Q343 869 331.5 806.5Q320 744 320 656H1280Q1280 773 1255 839.5Q1230 906 1176 949Q1122 992 1037 1008Q952 1024 832 1024Z" glyph-name="ecaron" horiz-adv-x="1600" unicode="&#283;" /><glyph d="M832 -22Q640 -22 506 4.5Q372 31 288 96Q204 161 166 270Q128 379 128 544Q128 733 166 856.5Q204 980 288 1053Q372 1126 506 1155Q640 1184 832 1184Q969 1184 1069.5 1164Q1170 1144 1241.5 1106Q1313 1068 1357.5 1014Q1402 960 1427.5 900.5Q1453 841 1462.5 761Q1472 681 1472 592L1456 528H320Q320 396 346 311.5Q372 227 432 188Q492 149 590 138.5Q688 128 832 128Q964 128 1050.5 135.5Q1137 143 1188 164Q1239 185 1259.5 222.5Q1280 260 1280 320H1472Q1472 227 1439.5 161.5Q1407 96 1332 55.5Q1257 15 1134.5 -3.5Q1012 -22 832 -22ZM832 1024Q736 1024 660.5 1020Q585 1016 528.5 1002.5Q472 989 432 963.5Q392 938 367.5 903.5Q343 869 331.5 806.5Q320 744 320 656H1280Q1280 773 1255 839.5Q1230 906 1176 949Q1122 992 1037 1008Q952 1024 832 1024ZM1088 1280 1216 1376 896 1856H704L384 1376L512 1280L800 1728Z" glyph-name="ecircumflex" horiz-adv-x="1600" unicode="&#234;" /><glyph d="M832 -22Q640 -22 506 4.5Q372 31 288 96Q204 161 166 270Q128 379 128 544Q128 733 166 856.5Q204 980 288 1053Q372 1126 506 1155Q640 1184 832 1184Q969 1184 1069.5 1164Q1170 1144 1241.5 1106Q1313 1068 1357.5 1014Q1402 960 1427.5 900.5Q1453 841 1462.5 761Q1472 681 1472 592L1456 528H320Q320 396 346 311.5Q372 227 432 188Q492 149 590 138.5Q688 128 832 128Q964 128 1050.5 135.5Q1137 143 1188 164Q1239 185 1259.5 222.5Q1280 260 1280 320H1472Q1472 227 1439.5 161.5Q1407 96 1332 55.5Q1257 15 1134.5 -3.5Q1012 -22 832 -22ZM832 1024Q736 1024 660.5 1020Q585 1016 528.5 1002.5Q472 989 432 963.5Q392 938 367.5 903.5Q343 869 331.5 806.5Q320 744 320 656H1280Q1280 773 1255 839.5Q1230 906 1176 949Q1122 992 1037 1008Q952 1024 832 1024ZM512 1536H320V1344H512ZM1280 1536H1088V1344H1280Z" glyph-name="edieresis" horiz-adv-x="1600" unicode="&#235;" /><glyph d="M928 1436H736V1244H928ZM832 -22Q640 -22 506 4.5Q372 31 288 96Q204 161 166 270Q128 379 128 544Q128 733 166 856.5Q204 980 288 1053Q372 1126 506 1155Q640 1184 832 1184Q969 1184 1069.5 1164Q1170 1144 1241.5 1106Q1313 1068 1357.5 1014Q1402 960 1427.5 900.5Q1453 841 1462.5 761Q1472 681 1472 592L1456 528H320Q320 396 346 311.5Q372 227 432 188Q492 149 590 138.5Q688 128 832 128Q964 128 1050.5 135.5Q1137 143 1188 164Q1239 185 1259.5 222.5Q1280 260 1280 320H1472Q1472 227 1439.5 161.5Q1407 96 1332 55.5Q1257 15 1134.5 -3.5Q1012 -22 832 -22ZM832 1024Q736 1024 660.5 1020Q585 1016 528.5 1002.5Q472 989 432 963.5Q392 938 367.5 903.5Q343 869 331.5 806.5Q320 744 320 656H1280Q1280 773 1255 839.5Q1230 906 1176 949Q1122 992 1037 1008Q952 1024 832 1024Z" glyph-name="edotaccent" horiz-adv-x="1600" unicode="&#279;" /><glyph d="M832 -22Q640 -22 506 4.5Q372 31 288 96Q204 161 166 270Q128 379 128 544Q128 733 166 856.5Q204 980 288 1053Q372 1126 506 1155Q640 1184 832 1184Q969 1184 1069.5 1164Q1170 1144 1241.5 1106Q1313 1068 1357.5 1014Q1402 960 1427.5 900.5Q1453 841 1462.5 761Q1472 681 1472 592L1456 528H320Q320 396 346 311.5Q372 227 432 188Q492 149 590 138.5Q688 128 832 128Q964 128 1050.5 135.5Q1137 143 1188 164Q1239 185 1259.5 222.5Q1280 260 1280 320H1472Q1472 227 1439.5 161.5Q1407 96 1332 55.5Q1257 15 1134.5 -3.5Q1012 -22 832 -22ZM832 1024Q736 1024 660.5 1020Q585 1016 528.5 1002.5Q472 989 432 963.5Q392 938 367.5 903.5Q343 869 331.5 806.5Q320 744 320 656H1280Q1280 773 1255 839.5Q1230 906 1176 949Q1122 992 1037 1008Q952 1024 832 1024ZM448 1664 576 1856 1152 1376 1088 1280Z" glyph-name="egrave" horiz-adv-x="1600" unicode="&#232;" /><glyph d="M1154 1568Q1370 1568 1507 1541Q1644 1514 1722 1462Q1799 1409 1828 1331.5Q1857 1254 1857 1152Q1857 1095 1847 1044.5Q1837 994 1812 952Q1786 910 1743 875.5Q1700 841 1633 816Q1709 788 1759 749Q1809 710 1838 661Q1866 612 1877.5 554.5Q1889 497 1889 432Q1889 357 1877 293.5Q1865 230 1835 179Q1805 127 1753.5 87.5Q1702 48 1624 22Q1546 -5 1437.5 -18.5Q1329 -32 1185 -32H864Q648 -32 511 -1.5Q374 29 297 88Q219 147 190 233.5Q161 320 161 432Q161 497 172 554.5Q183 612 212 661Q241 710 290.5 749Q340 788 417 816Q350 841 306.5 875.5Q263 910 238 952Q213 994 203 1044.5Q193 1095 193 1152Q193 1254 222 1331.5Q251 1409 329 1462Q406 1514 543 1541Q680 1568 896 1568ZM1185 128Q1297 128 1378.5 134.5Q1460 141 1517 156Q1573 170 1608.5 193Q1644 216 1664 250Q1683 284 1690 329Q1697 374 1697 432Q1697 488 1690.5 532.5Q1684 577 1665 611Q1645 644 1609.5 668Q1574 692 1517 707Q1460 722 1378.5 729Q1297 736 1185 736H864Q752 736 670.5 729Q589 722 533 707Q476 692 440.5 668Q405 644 386 611Q366 577 359.5 532.5Q353 488 353 432Q353 374 360 329Q367 284 387 250Q406 216 441 193Q476 170 533 156Q590 141 671 134.5Q752 128 864 128ZM1185 896Q1342 896 1436.5 907.5Q1531 919 1582 948Q1632 977 1648.5 1026.5Q1665 1076 1665 1152Q1665 1202 1658.5 1240.5Q1652 1279 1633 1308Q1613 1336 1577.5 1355Q1542 1374 1485 1386Q1428 1398 1346.5 1403Q1265 1408 1153 1408H896Q784 1408 702.5 1403Q621 1398 565 1386Q508 1374 472.5 1355Q437 1336 418 1308Q398 1279 391.5 1240.5Q385 1202 385 1152Q385 1100 392 1061Q399 1022 419 994Q438 965 473 946Q508 927 565 916Q622 905 703 900.5Q784 896 896 896Z" glyph-name="eight" horiz-adv-x="2050" unicode="8" /><glyph d="M1216 0H1024V192H1216ZM768 0H576V192H768ZM320 0H128V192H320Z" glyph-name="ellipsis" horiz-adv-x="1344" unicode="&#8230;" /><glyph d="M448 1244H1216V1404H448ZM832 -22Q640 -22 506 4.5Q372 31 288 96Q204 161 166 270Q128 379 128 544Q128 733 166 856.5Q204 980 288 1053Q372 1126 506 1155Q640 1184 832 1184Q969 1184 1069.5 1164Q1170 1144 1241.5 1106Q1313 1068 1357.5 1014Q1402 960 1427.5 900.5Q1453 841 1462.5 761Q1472 681 1472 592L1456 528H320Q320 396 346 311.5Q372 227 432 188Q492 149 590 138.5Q688 128 832 128Q964 128 1050.5 135.5Q1137 143 1188 164Q1239 185 1259.5 222.5Q1280 260 1280 320H1472Q1472 227 1439.5 161.5Q1407 96 1332 55.5Q1257 15 1134.5 -3.5Q1012 -22 832 -22ZM832 1024Q736 1024 660.5 1020Q585 1016 528.5 1002.5Q472 989 432 963.5Q392 938 367.5 903.5Q343 869 331.5 806.5Q320 744 320 656H1280Q1280 773 1255 839.5Q1230 906 1176 949Q1122 992 1037 1008Q952 1024 832 1024Z" glyph-name="emacron" horiz-adv-x="1600" unicode="&#275;" /><glyph d="M0 512H1088V672H0Z" glyph-name="emdash" horiz-adv-x="1088" unicode="&#8212;" /><glyph d="M128 512H960V672H128Z" glyph-name="endash" horiz-adv-x="1088" unicode="&#8211;" /><glyph d="M1063 -587Q991 -587 922 -574Q853 -561 799 -531Q745 -501 712 -452Q679 -403 679 -331Q679 -295 690 -262Q701 -229 719 -200Q737 -171 760 -145.5Q783 -120 807 -99Q835 -74.5 867 -52.5Q899 -30.5 935 -11H1063Q991 -59 952 -105.5Q913 -152 895 -191Q877 -230 874 -258.5Q871 -287 871 -299Q871 -371 918.5 -399Q966 -427 1063 -427ZM832 -22Q640 -22 506 4.5Q372 31 288 96Q204 161 166 270Q128 379 128 544Q128 733 166 856.5Q204 980 288 1053Q372 1126 506 1155Q640 1184 832 1184Q969 1184 1069.5 1164Q1170 1144 1241.5 1106Q1313 1068 1357.5 1014Q1402 960 1427.5 900.5Q1453 841 1462.5 761Q1472 681 1472 592L1456 528H320Q320 396 346 311.5Q372 227 432 188Q492 149 590 138.5Q688 128 832 128Q964 128 1050.5 135.5Q1137 143 1188 164Q1239 185 1259.5 222.5Q1280 260 1280 320H1472Q1472 227 1439.5 161.5Q1407 96 1332 55.5Q1257 15 1134.5 -3.5Q1012 -22 832 -22ZM832 1024Q736 1024 660.5 1020Q585 1016 528.5 1002.5Q472 989 432 963.5Q392 938 367.5 903.5Q343 869 331.5 806.5Q320 744 320 656H1280Q1280 773 1255 839.5Q1230 906 1176 949Q1122 992 1037 1008Q952 1024 832 1024Z" glyph-name="eogonek" horiz-adv-x="1600" unicode="&#281;" /><glyph d="M128 1024H1344V864H128ZM128 480H1344V320H128Z" glyph-name="equal" horiz-adv-x="1472" unicode="=" /><glyph d="M1324 1026 1631 1136Q1647.5 1078 1655.75 1002Q1664 926 1664 832Q1638 848 1605.5 861Q1573 874 1528 885Q1483 896 1422 904Q1361 912 1277 917.5Q1193 923 1083 925.5Q973 928 831 928Q615 928 478 898Q341 868 263.5 808Q186 748 157 658Q128 568 128 448Q128 328 157 238Q186 148 263.5 88Q341 28 478 -2Q615 -32 831 -32H1152Q1328 -32 1448.5 -10.5Q1569 11 1647.5 54.5Q1726 98 1768 164Q1810 230 1829.5 319Q1849 408 1852.5 520Q1856 632 1856 768Q1856 899 1842 1005Q1828 1111 1796 1196L2047 1286L2004 1406L1739 1311Q1694 1378 1629.5 1427Q1565 1476 1477.5 1507Q1390 1538 1277.5 1553Q1165 1568 1024 1568Q848 1568 718 1555Q588 1542 495.5 1516Q403 1490 344 1452Q285 1414 251.5 1364Q218 1314 205.5 1253Q193 1192 193 1120H352Q352 1160 357.5 1197Q363 1234 384 1266Q405 1298 448 1324Q491 1350 565.5 1369Q640 1388 752 1398Q864 1408 1024 1408Q1129 1408 1215.5 1403.5Q1302 1399 1371 1383.5Q1440 1368 1491.5 1337Q1543 1306 1579 1253L1281 1146ZM831 768Q1016 768 1150 765.5Q1284 763 1376.5 754Q1469 745 1525.5 728Q1582 711 1613 682.5Q1644 654 1654 612Q1664 570 1664 512Q1664 392 1643 317Q1622 242 1565.5 200Q1509 158 1409 143Q1309 128 1152 128H831Q719 128 637.5 134Q556 140 499.5 154Q443 168 407.5 192Q372 216 352.5 251.5Q333 287 326.5 335.5Q320 384 320 448Q320 512 327 560.5Q334 609 353.5 644.5Q373 680 408 704Q443 728 500 742Q557 756 638 762Q719 768 831 768Z" glyph-name="eth" horiz-adv-x="1984" unicode="&#240;" /><glyph d="M128 1536H320L272 448H176ZM320 0H128V192H320Z" glyph-name="exclam" horiz-adv-x="448" unicode="!" /><glyph d="M128 0.0922H320L272 1088.0269H176ZM320 1536H128V1344.0115H320Z" glyph-name="exclamdown" horiz-adv-x="448" unicode="&#161;" /><glyph d="M512 1006V0H320V1006H128V1152H320V1162Q320 1279 346 1357Q372 1435 432 1482Q492 1529 590.5 1548.5Q689 1568 833 1568H1056V1408H832Q741 1408 680 1404Q619 1400 581.5 1377Q544 1354 528 1304Q512 1254 512 1162V1152H1056V1006Z" glyph-name="f" horiz-adv-x="1056" unicode="f" /><glyph d="M512 1006V0H320V1006H128V1152H320V1162Q320 1279 346 1357Q372 1435 432 1482Q492 1529 590.5 1548.5Q689 1568 833 1568H1056V1408H832Q741 1408 680 1404Q619 1400 581.5 1377Q544 1354 528 1304Q512 1254 512 1162V1152H1056V1006ZM1312 1152H1504V0H1312ZM1504 1344H1312V1536H1504Z" glyph-name="fi" horiz-adv-x="1632" unicode="&#64257;" /><glyph d="M1313 1056Q1441 1056 1533.5 1042.5Q1626 1029 1690 1001Q1754 972 1793 928Q1832 884 1854 824Q1875 763 1882 685.5Q1889 608 1889 512Q1889 387 1867.5 297.5Q1846 208 1802 148Q1757 87 1689 51.5Q1621 16 1529 -3Q1436 -21 1318.5 -26.5Q1201 -32 1057 -32Q913 -32 790.5 -30Q668 -28 569 -14Q469 0 393 30.5Q317 61 266 118Q214 175 187.5 263Q161 351 161 480H353Q353 404 356.5 348.5Q360 293 380 254Q399 215 441 190.5Q483 166 562 152Q640 138 760.5 133Q881 128 1057 128Q1185 128 1282 130Q1379 132 1451 143Q1522 154 1569 177.5Q1616 201 1645 244Q1673 287 1685 352.5Q1697 418 1697 513Q1697 641 1682 717Q1667 793 1625 833Q1583 872 1508 884Q1433 896 1313 896H801Q669 896 587 884.5Q505 873 457 852Q409 831 387 801.5Q365 772 353 736H161V1536H1825V1376H353V896Q354 898 361.5 910.5Q369 923 388 941Q406 959 437.5 979Q469 999 519 1016Q568 1033 637.5 1044.5Q707 1056 801 1056Z" glyph-name="five" horiz-adv-x="2050" unicode="5" /><glyph d="M512 1006V0H320V1006H128V1152H320V1162Q320 1279 346 1357Q372 1435 432 1482Q492 1529 590.5 1548.5Q689 1568 833 1568H1056V1408H832Q741 1408 680 1404Q619 1400 581.5 1377Q544 1354 528 1304Q512 1254 512 1162V1152H1056V1006ZM1312 1536H1504V0H1312Z" glyph-name="fl" horiz-adv-x="1632" unicode="&#64258;" /><glyph d="M320 960H128V1088H320V1152Q320 1272 346 1352Q372 1432 432 1480Q492 1528 590.5 1548Q689 1568 833 1568H960V1408H832Q741 1408 680 1404Q619 1400 581.5 1376Q544 1352 528 1300Q512 1248 512 1152V1088H960V960H512V128Q512 8 486 -72Q460 -152 400 -200Q340 -248 241.5 -268Q143 -288 -1 -288L0 -128Q91 -128 152 -124Q213 -120 250.5 -96Q288 -72 304 -20Q320 32 320 128Z" glyph-name="florin" horiz-adv-x="1184" unicode="&#402;" /><glyph d="M1665 320V0H1473V320H129V512L1409 1536H1665V480H1921V320ZM1473 480V1408L321 480Z" glyph-name="four" horiz-adv-x="2050" unicode="4" /><glyph d="M1344 192V352H1152V1088H896L128 384V192H960V0H1152V192ZM320 352 960 960V352Z" glyph-name="foursuperior" horiz-adv-x="1472" unicode="&#8308;" /><glyph d="M64 0H256L960 1536H768Z" glyph-name="fraction" horiz-adv-x="1023" unicode="&#8260;" /><glyph d="M800 1024Q688 1024 606.5 1017Q525 1010 468 992Q411 974 375.5 942Q340 910 320.5 860Q301 810 294.5 739.5Q288 669 288 574Q288 480 294.5 410.5Q301 341 320.5 291.5Q340 242 375.5 210Q411 178 468 160Q525 142 606.5 135Q688 128 800 128Q896 128 971 132.5Q1046 137 1103 152.5Q1160 168 1199.5 197.5Q1239 227 1264 276.5Q1289 326 1300.5 399.5Q1312 473 1312 577Q1312 681 1300.5 755Q1289 829 1264 878.5Q1239 928 1199.5 957Q1160 986 1103 1001Q1046 1016 971 1020Q896 1024 800 1024ZM1504 160Q1504 -8 1466 -119Q1428 -230 1344 -298.5Q1260 -367 1126 -394Q992 -421 800 -421Q620 -421 497.5 -405Q375 -389 300 -354.5Q225 -320 192.5 -265.5Q160 -211 160 -133H352Q352 -172 372.5 -197Q393 -222 444 -236Q495 -250 581.5 -255.5Q668 -261 800 -261Q944 -261 1042 -250.5Q1140 -240 1200 -201Q1260 -162 1286 -83Q1312 -4 1312 128Q1298 104 1267.5 76Q1237 48 1178.5 24Q1120 0 1028 -16Q936 -32 800 -32Q608 -32 474 -3.5Q340 25 256 94Q172 163 134 280Q96 397 96 574Q96 754 134 872Q172 990 256 1059Q340 1128 474 1156Q608 1184 800 1184Q936 1184 1028 1170Q1120 1156 1178.5 1135Q1237 1114 1267.5 1089.5Q1298 1065 1312 1045V1152H1504Z" glyph-name="g" horiz-adv-x="1632" unicode="g" /><glyph d="M448 1564Q448 1396 544 1320Q640 1244 832 1244Q1024 1244 1120 1320Q1216 1396 1216 1564H1056Q1056 1492 1039 1453Q1022 1414 992 1396Q962 1378 921 1375Q880 1372 832 1372Q784 1372 743 1375Q702 1378 672 1396Q642 1414 625 1453Q608 1492 608 1564ZM832 1024Q720 1024 638.5 1017Q557 1010 500 992Q443 974 407.5 942Q372 910 352.5 860Q333 810 326.5 739.5Q320 669 320 574Q320 480 326.5 410.5Q333 341 352.5 291.5Q372 242 407.5 210Q443 178 500 160Q557 142 638.5 135Q720 128 832 128Q928 128 1003 132.5Q1078 137 1135 152.5Q1192 168 1231.5 197.5Q1271 227 1296 276.5Q1321 326 1332.5 399.5Q1344 473 1344 577Q1344 681 1332.5 755Q1321 829 1296 878.5Q1271 928 1231.5 957Q1192 986 1135 1001Q1078 1016 1003 1020Q928 1024 832 1024ZM1536 160Q1536 -8 1498 -119Q1460 -230 1376 -298.5Q1292 -367 1158 -394Q1024 -421 832 -421Q652 -421 529.5 -405Q407 -389 332 -354.5Q257 -320 224.5 -265.5Q192 -211 192 -133H384Q384 -172 404.5 -197Q425 -222 476 -236Q527 -250 613.5 -255.5Q700 -261 832 -261Q976 -261 1074 -250.5Q1172 -240 1232 -201Q1292 -162 1318 -83Q1344 -4 1344 128Q1330 104 1299.5 76Q1269 48 1210.5 24Q1152 0 1060 -16Q968 -32 832 -32Q640 -32 506 -3.5Q372 25 288 94Q204 163 166 280Q128 397 128 574Q128 754 166 872Q204 990 288 1059Q372 1128 506 1156Q640 1184 832 1184Q968 1184 1060 1170Q1152 1156 1210.5 1135Q1269 1114 1299.5 1089.5Q1330 1065 1344 1045V1152H1536Z" glyph-name="gbreve" horiz-adv-x="1664" unicode="&#287;" /><glyph d="M832 1371 544 1819 416 1723 736 1243H928L1248 1723L1120 1819ZM832 1024Q720 1024 638.5 1017Q557 1010 500 992Q443 974 407.5 942Q372 910 352.5 860Q333 810 326.5 739.5Q320 669 320 574Q320 480 326.5 410.5Q333 341 352.5 291.5Q372 242 407.5 210Q443 178 500 160Q557 142 638.5 135Q720 128 832 128Q928 128 1003 132.5Q1078 137 1135 152.5Q1192 168 1231.5 197.5Q1271 227 1296 276.5Q1321 326 1332.5 399.5Q1344 473 1344 577Q1344 681 1332.5 755Q1321 829 1296 878.5Q1271 928 1231.5 957Q1192 986 1135 1001Q1078 1016 1003 1020Q928 1024 832 1024ZM1536 160Q1536 -8 1498 -119Q1460 -230 1376 -298.5Q1292 -367 1158 -394Q1024 -421 832 -421Q652 -421 529.5 -405Q407 -389 332 -354.5Q257 -320 224.5 -265.5Q192 -211 192 -133H384Q384 -172 404.5 -197Q425 -222 476 -236Q527 -250 613.5 -255.5Q700 -261 832 -261Q976 -261 1074 -250.5Q1172 -240 1232 -201Q1292 -162 1318 -83Q1344 -4 1344 128Q1330 104 1299.5 76Q1269 48 1210.5 24Q1152 0 1060 -16Q968 -32 832 -32Q640 -32 506 -3.5Q372 25 288 94Q204 163 166 280Q128 397 128 574Q128 754 166 872Q204 990 288 1059Q372 1128 506 1156Q640 1184 832 1184Q968 1184 1060 1170Q1152 1156 1210.5 1135Q1269 1114 1299.5 1089.5Q1330 1065 1344 1045V1152H1536Z" glyph-name="gcaron" horiz-adv-x="1664" unicode="&#487;" /><glyph d="M1120 1244 1248 1340 928 1820H736L416 1340L544 1244L832 1692ZM832 1024Q720 1024 638.5 1017Q557 1010 500 992Q443 974 407.5 942Q372 910 352.5 860Q333 810 326.5 739.5Q320 669 320 574Q320 480 326.5 410.5Q333 341 352.5 291.5Q372 242 407.5 210Q443 178 500 160Q557 142 638.5 135Q720 128 832 128Q928 128 1003 132.5Q1078 137 1135 152.5Q1192 168 1231.5 197.5Q1271 227 1296 276.5Q1321 326 1332.5 399.5Q1344 473 1344 577Q1344 681 1332.5 755Q1321 829 1296 878.5Q1271 928 1231.5 957Q1192 986 1135 1001Q1078 1016 1003 1020Q928 1024 832 1024ZM1536 160Q1536 -8 1498 -119Q1460 -230 1376 -298.5Q1292 -367 1158 -394Q1024 -421 832 -421Q652 -421 529.5 -405Q407 -389 332 -354.5Q257 -320 224.5 -265.5Q192 -211 192 -133H384Q384 -172 404.5 -197Q425 -222 476 -236Q527 -250 613.5 -255.5Q700 -261 832 -261Q976 -261 1074 -250.5Q1172 -240 1232 -201Q1292 -162 1318 -83Q1344 -4 1344 128Q1330 104 1299.5 76Q1269 48 1210.5 24Q1152 0 1060 -16Q968 -32 832 -32Q640 -32 506 -3.5Q372 25 288 94Q204 163 166 280Q128 397 128 574Q128 754 166 872Q204 990 288 1059Q372 1128 506 1156Q640 1184 832 1184Q968 1184 1060 1170Q1152 1156 1210.5 1135Q1269 1114 1299.5 1089.5Q1330 1065 1344 1045V1152H1536Z" glyph-name="gcircumflex" horiz-adv-x="1664" unicode="&#285;" /><glyph d="M928 1436H736V1244H928ZM832 1024Q720 1024 638.5 1017Q557 1010 500 992Q443 974 407.5 942Q372 910 352.5 860Q333 810 326.5 739.5Q320 669 320 574Q320 480 326.5 410.5Q333 341 352.5 291.5Q372 242 407.5 210Q443 178 500 160Q557 142 638.5 135Q720 128 832 128Q928 128 1003 132.5Q1078 137 1135 152.5Q1192 168 1231.5 197.5Q1271 227 1296 276.5Q1321 326 1332.5 399.5Q1344 473 1344 577Q1344 681 1332.5 755Q1321 829 1296 878.5Q1271 928 1231.5 957Q1192 986 1135 1001Q1078 1016 1003 1020Q928 1024 832 1024ZM1536 160Q1536 -8 1498 -119Q1460 -230 1376 -298.5Q1292 -367 1158 -394Q1024 -421 832 -421Q652 -421 529.5 -405Q407 -389 332 -354.5Q257 -320 224.5 -265.5Q192 -211 192 -133H384Q384 -172 404.5 -197Q425 -222 476 -236Q527 -250 613.5 -255.5Q700 -261 832 -261Q976 -261 1074 -250.5Q1172 -240 1232 -201Q1292 -162 1318 -83Q1344 -4 1344 128Q1330 104 1299.5 76Q1269 48 1210.5 24Q1152 0 1060 -16Q968 -32 832 -32Q640 -32 506 -3.5Q372 25 288 94Q204 163 166 280Q128 397 128 574Q128 754 166 872Q204 990 288 1059Q372 1128 506 1156Q640 1184 832 1184Q968 1184 1060 1170Q1152 1156 1210.5 1135Q1269 1114 1299.5 1089.5Q1330 1065 1344 1045V1152H1536Z" glyph-name="gdotaccent" horiz-adv-x="1664" unicode="&#289;" /><glyph d="M769 1536Q625 1536 521.5 1523Q418 1510 346.5 1483.5Q275 1457 232 1417Q189 1377 166 1324Q143 1271 135.5 1204.5Q128 1138 128 1058V-128H320V1058Q320 1129 327 1180.5Q334 1232 353.5 1267.5Q373 1303 408 1324.5Q443 1346 500 1357.5Q557 1369 639 1372.5Q721 1376 833 1376H1216Q1312 1376 1384 1368.5Q1456 1361 1504 1339.5Q1552 1318 1576 1278Q1600 1238 1600 1174Q1600 1085 1586 1030.5Q1572 976 1530.5 946Q1489 916 1413.5 906Q1338 896 1215 896H512V736H1215Q1327 736 1409 732.5Q1491 729 1548 719Q1605 709 1640 691.5Q1675 674 1694.5 645.5Q1714 617 1721 575.5Q1728 534 1728 478Q1728 406 1721 355Q1714 304 1694.5 268.5Q1675 233 1640 211.5Q1605 190 1548 178.5Q1491 167 1409 163.5Q1327 160 1215 160H512V0H1279Q1423 0 1526.5 13Q1630 26 1701.5 52.5Q1773 79 1816 119Q1859 159 1882 212Q1905 265 1912.5 331.5Q1920 398 1920 478Q1920 544 1906 594.5Q1892 645 1869.5 682.5Q1847 720 1818.5 745.5Q1790 771 1760 788Q1725 807.5 1685 818.5Q1645 829.5 1600 832Q1627 834.5 1651 845.25Q1675 856 1696 875Q1714 891 1731 915.5Q1748 940 1761.5 976Q1775 1012 1783.5 1061Q1792 1110 1792 1174Q1792 1262 1766 1330Q1740 1398 1680 1443.5Q1620 1489 1522 1512.5Q1424 1536 1280 1536Z" glyph-name="germandbls" horiz-adv-x="2048" unicode="&#223;" /><glyph glyph-name="glyph1" horiz-adv-x="0" /><glyph d="M128 1664 256 1856 832 1376 768 1280Z" glyph-name="grave" horiz-adv-x="960" unicode="`" /><glyph d="M1024 928V736L128 192V448L880 832L128 1216V1472Z" glyph-name="greater" horiz-adv-x="1152" unicode="&gt;" /><glyph d="M1024 928V736L128 192V448L880 832L128 1216V1472ZM128 128H1022V-32H128Z" glyph-name="greaterequal" horiz-adv-x="1152" unicode="&#8805;" /><glyph d="M768 256 672 128 128 512V704L672 1088L768 960L256 608ZM1216 256 1120 128 576 512V704L1120 1088L1216 960L704 608Z" glyph-name="guillemotleft" horiz-adv-x="1344" unicode="&#171;" /><glyph d="M640 608 128 960 224 1088 768 704V512L224 128L128 256ZM1088 608 576 960 672 1088 1216 704V512L672 128L576 256Z" glyph-name="guillemotright" horiz-adv-x="1344" unicode="&#187;" /><glyph d="M256 608 768 960 672 1088 128 704V512L672 128L768 256Z" glyph-name="guilsinglleft" horiz-adv-x="896" unicode="&#8249;" /><glyph d="M128 256 224 128 768 512V704L224 1088L128 960L640 608Z" glyph-name="guilsinglright" horiz-adv-x="896" unicode="&#8250;" /><glyph d="M1280 0V650Q1280 754 1264 825.5Q1248 897 1200 941Q1152 985 1064 1004.5Q976 1024 832 1024Q676 1024 576.5 1001.5Q477 979 420 938.5Q363 898 341.5 841Q320 784 320 714V0H128V1536H320V970Q340 1017 377 1051Q414 1085 462.5 1109Q511 1133 567 1147.5Q623 1162 680.5 1170Q738 1178 793.5 1181Q849 1184 896 1184Q1024 1184 1116.5 1168.5Q1209 1153 1273.5 1122.5Q1338 1092 1377 1047Q1416 1002 1437.5 942.5Q1459 883 1466 809.5Q1473 736 1473 650L1472 0Z" glyph-name="h" horiz-adv-x="1601" unicode="h" /><glyph d="M1088 1658 1216 1754 896 2234H704L384 1754L512 1658L800 2106ZM1280 0V650Q1280 754 1264 825.5Q1248 897 1200 941Q1152 985 1064 1004.5Q976 1024 832 1024Q676 1024 576.5 1001.5Q477 979 420 938.5Q363 898 341.5 841Q320 784 320 714V0H128V1536H320V970Q340 1017 377 1051Q414 1085 462.5 1109Q511 1133 567 1147.5Q623 1162 680.5 1170Q738 1178 793.5 1181Q849 1184 896 1184Q1024 1184 1116.5 1168.5Q1209 1153 1273.5 1122.5Q1338 1092 1377 1047Q1416 1002 1437.5 942.5Q1459 883 1466 809.5Q1473 736 1473 650L1472 0Z" glyph-name="hcircumflex" horiz-adv-x="1601" unicode="&#293;" /><glyph d="M832 1664 704 1856 128 1376 192 1280ZM1385 1664 1257 1856 681 1376 745 1280Z" glyph-name="hungarumlaut" horiz-adv-x="1512" unicode="&#733;" /><glyph d="M128 672H896V512H128Z" glyph-name="hyphen" horiz-adv-x="1024" unicode="-" /><glyph d="M192 1152H384V0H192ZM384 1344H192V1536H384Z" glyph-name="i" horiz-adv-x="576" unicode="i" /><glyph d="M128 0H320V1088H128ZM579 1664 451 1856 -125 1376 -61 1280Z" glyph-name="iacute" horiz-adv-x="448" unicode="&#237;" /><glyph d="M-159 1563Q-159 1395 -63 1319Q33 1243 225 1243Q417 1243 513 1319Q609 1395 609 1563H449Q449 1491 432 1452Q415 1413 385 1395Q355 1377 314 1374Q273 1371 225 1371Q177 1371 136 1374Q95 1377 65 1395Q35 1413 18 1452Q1 1491 1 1563ZM128 0H320V1088H128Z" glyph-name="ibreve" horiz-adv-x="448" unicode="&#301;" /><glyph d="M128 0H320V1088H128ZM515 1280 643 1376 323 1856H131L-189 1376L-61 1280L227 1728Z" glyph-name="icircumflex" horiz-adv-x="448" unicode="&#238;" /><glyph d="M128 0H320V1088H128ZM-61 1536H-253V1344H-61ZM707 1536H515V1344H707Z" glyph-name="idieresis" horiz-adv-x="448" unicode="&#239;" /><glyph d="M128 0H320V1088H128ZM-125 1664 3 1856 579 1376 515 1280Z" glyph-name="igrave" horiz-adv-x="448" unicode="&#236;" /><glyph d="M928 -64Q928 -138 918 -197Q908 -256 872 -297.5Q836 -339 766 -361.5Q696 -384 576 -384V-224Q624 -224 655 -217Q686 -210 704 -192Q722 -174 729 -143Q736 -112 736 -64V1152H928ZM928 1344H736V1536H928ZM129 1152H321V0H129ZM321 1344H129V1536H321Z" glyph-name="ij" horiz-adv-x="1056" unicode="&#307;" /><glyph d="M-158 1244H610V1404H-158ZM128 0H320V1088H128Z" glyph-name="imacron" horiz-adv-x="448" unicode="&#299;" /><glyph d="M1854 -32Q1757 -32 1669.5 7.5Q1582 47 1505.5 109Q1429 171 1365 246.5Q1301 322 1251 393Q1200 321 1135 246Q1070 171 993 109Q916 47 827.5 7.5Q739 -32 642 -32Q536 -32 442.5 -5Q349 22 279 88Q209 154 168.5 265Q128 376 128 544Q128 712 168.5 823Q209 934 279 1000Q349 1066 442.5 1093Q536 1120 642 1120Q747 1120 835.5 1082Q924 1044 999.5 982.5Q1075 921 1139 843.5Q1203 766 1259 687Q1292 735 1331.5 786Q1371 837 1415.5 885Q1460 933 1510.5 976Q1561 1019 1616 1051Q1671 1083 1730.5 1101.5Q1790 1120 1854 1120Q1960 1120 2053.5 1093Q2147 1066 2217 1000Q2287 934 2327.5 823Q2368 712 2368 544Q2368 376 2327.5 265Q2287 154 2217 88Q2147 22 2053.5 -5Q1960 -32 1854 -32ZM642 128Q709 128 778 164.5Q847 201 914 259Q981 317 1042.5 390Q1104 463 1156 535Q1106 610 1048.5 686Q991 762 926.5 823Q862 884 791 922Q720 960 642 960Q602 960 562.5 956Q523 952 487.5 937.5Q452 923 421 896Q390 869 367.5 822.5Q345 776 332.5 708Q320 640 320 544Q320 412 348 330.5Q376 249 421 204Q466 159 524 143.5Q582 128 642 128ZM1854 960Q1789 960 1722 923Q1655 886 1590 827Q1525 768 1465 694.5Q1405 621 1355 548Q1406 475 1466 400.5Q1526 326 1590.5 265.5Q1655 205 1722 166.5Q1789 128 1854 128Q1914 128 1972 143.5Q2030 159 2075 204Q2120 249 2148 330.5Q2176 412 2176 544Q2176 640 2163.5 708Q2151 776 2128.5 822.5Q2106 869 2075 896Q2044 923 2008.5 937.5Q1973 952 1933.5 956Q1894 960 1854 960Z" glyph-name="infinity" horiz-adv-x="2496" unicode="&#8734;" /><glyph d="M449 1152Q449 1272 475 1352Q501 1432 561 1480Q621 1528 719 1548Q817 1568 961 1568V1408Q870 1408 809 1404Q748 1400 710.5 1376Q673 1352 657 1300Q641 1248 641 1152V128Q641 8 615 -72Q589 -152 529 -200Q469 -248 370.5 -268Q272 -288 128 -288L129 -128Q220 -128 281 -124Q342 -120 379.5 -96Q417 -72 433 -20Q449 32 449 128Z" glyph-name="integral" horiz-adv-x="1089" unicode="&#8747;" /><glyph d="M290 -555Q218 -555 149 -542Q80 -529 26 -499Q-28 -469 -61 -420Q-94 -371 -94 -299Q-94 -263 -83 -230Q-72 -197 -54 -168Q-36 -139 -13 -113.5Q10 -88 34 -67Q62 -42.5 94 -20.5Q126 1.5 162 21H290Q218 -27 179 -73.5Q140 -120 122 -159Q104 -198 101 -226.5Q98 -255 98 -267Q98 -339 145.5 -367Q193 -395 290 -395ZM129 1152H321V0H129ZM321 1344H129V1536H321Z" glyph-name="iogonek" horiz-adv-x="448" unicode="&#303;" /><glyph d="M34 1340Q79 1340 117.5 1325Q156 1310 199 1292Q242 1274 294 1259Q346 1244 418 1244Q454 1244 498.5 1256.5Q543 1269 582 1298.5Q621 1328 647.5 1377Q674 1426 674 1500H482Q482 1470 478 1451Q474 1432 466 1421.5Q458 1411 446 1407.5Q434 1404 418 1404Q373 1404 334.5 1419Q296 1434 253 1452.5Q210 1471 158 1486Q106 1501 34 1501Q-2 1501 -46.5 1489.5Q-91 1478 -130 1449Q-169 1420 -195.5 1370Q-222 1320 -222 1244H-30Q-30 1275 -26 1294Q-22 1313 -14 1323Q-6 1333 6 1336.5Q18 1340 34 1340ZM128 0H320V1088H128Z" glyph-name="itilde" horiz-adv-x="448" unicode="&#297;" /><glyph d="M480 -64Q480 -138 470 -197Q460 -256 424 -297.5Q388 -339 318 -361.5Q248 -384 128 -384V-224Q176 -224 207 -217Q238 -210 256 -192Q274 -174 281 -143Q288 -112 288 -64V1152H480ZM480 1344H288V1536H480Z" glyph-name="j" horiz-adv-x="672" unicode="j" /><glyph d="M674 1244 802 1340 482 1820H290L-30 1340L98 1244L386 1692ZM480 1088H288V-64Q288 -112 281 -143Q274 -174 256 -192Q238 -210 207 -217Q176 -224 128 -224V-384Q248 -384 318 -361.5Q388 -339 424 -297.5Q460 -256 470 -197Q480 -138 480 -64Z" glyph-name="jcircumflex" horiz-adv-x="608" unicode="&#309;" /><glyph d="M128 1536H320V696H384L1088 1152H1376L560 616L1408 0H1120L384 552H320V0H128Z" glyph-name="k" horiz-adv-x="1408" unicode="k" /><glyph d="M704 -120H896L768 -504H640ZM128 1536H320V696H384L1088 1152H1376L560 616L1408 0H1120L384 552H320V0H128Z" glyph-name="kcommaaccent" horiz-adv-x="1408" unicode="&#311;" /><glyph d="M128 0H320V512H384L1120 0H1408L560 576L1376 1088H1088L384 656H320V1536H128Z" glyph-name="kgreenlandic" horiz-adv-x="1408" unicode="&#312;" /><glyph d="M192 1536H384V0H192Z" glyph-name="l" horiz-adv-x="576" unicode="l" /><glyph d="M864 2042 736 2234 160 1754 224 1658ZM129 1536H321V0H129Z" glyph-name="lacute" horiz-adv-x="448" unicode="&#314;" /><glyph d="M567 1536H759L631 1152H503ZM129 1536H321V0H129Z" glyph-name="lcaron" horiz-adv-x="448" unicode="&#318;" /><glyph d="M160 -120H352L224 -504H96ZM129 1536H321V0H129Z" glyph-name="lcommaaccent" horiz-adv-x="448" unicode="&#316;" /><glyph d="M768 896H576V704H768ZM129 1536H321V0H129Z" glyph-name="ldot" horiz-adv-x="896" unicode="&#320;" /><glyph d="M1024 1472V1216L272 832L1024 448V192L128 736V928Z" glyph-name="less" horiz-adv-x="1152" unicode="&lt;" /><glyph d="M1024 1472V1216L272 832L1024 448V192L128 736V928ZM128 128H1022V-32H128Z" glyph-name="lessequal" horiz-adv-x="1152" unicode="&#8804;" /><glyph d="M1088 640H896V928H128V1088H1088Z" glyph-name="logicalnot" horiz-adv-x="1216" unicode="&#172;" /><glyph d="M1152 768 704 1536H576L128 768L576 0H704ZM352 768 640 1280 928 768 640 256Z" glyph-name="lozenge" horiz-adv-x="1280" unicode="&#9674;" /><glyph d="M0 768 576 928V1088L0 928ZM128 0H320V1536H128Z" glyph-name="lslash" horiz-adv-x="512" unicode="&#322;" /><glyph d="M1344 0H1152V650Q1152 754 1138.5 825.5Q1125 897 1083.5 941Q1042 985 966.5 1004.5Q891 1024 768 1024Q633 1024 546 1001.5Q459 979 409 938.5Q359 898 339.5 841Q320 784 320 714V0H128V1152H320V970Q321 973 329 990Q337 1007 357.5 1030.5Q378 1054 413.5 1081Q449 1108 505.5 1131Q562 1154 642 1169Q722 1184 832 1184Q940 1184 1019.5 1170.5Q1099 1157 1155.5 1130.5Q1212 1104 1247.5 1064.5Q1283 1025 1304 974Q1321 1001 1357 1037Q1393 1073 1457.5 1106Q1522 1139 1619 1161.5Q1716 1184 1856 1184Q1971 1184 2053.5 1168.5Q2136 1153 2193 1122.5Q2250 1092 2284.5 1047Q2319 1002 2337.5 942.5Q2356 883 2362 809.5Q2368 736 2368 650V0H2176V650Q2176 754 2162.5 825.5Q2149 897 2107.5 941Q2066 985 1990.5 1004.5Q1915 1024 1792 1024Q1657 1024 1570 1001.5Q1483 979 1433 938.5Q1383 898 1363.5 841Q1344 784 1344 714Z" glyph-name="m" horiz-adv-x="2496" unicode="m" /><glyph d="M128 1344H896V1504H128Z" glyph-name="macron" horiz-adv-x="1024" unicode="&#175;" /><glyph d="M128 512H1344V672H128Z" glyph-name="minus" horiz-adv-x="1472" unicode="&#8722;" /><glyph d="M129 -384Q129 -226 129 -103.5Q129 19 128.5 117Q128 215 128 293.5Q128 372 128 442.5Q128 513 128 580Q128 647 128.5 722.5Q129 798 129 886.5Q129 975 129 1088H321V512Q321 405 337 331.5Q353 258 401 213Q449 168 537 148Q625 128 769 128Q925 128 1024.5 151Q1124 174 1181 216Q1238 258 1259.5 317Q1281 376 1281 448V1088H1473V0H1281V191Q1280 189 1271.5 171.5Q1263 154 1240.5 129Q1218 104 1178.5 76Q1139 48 1075.5 24Q1012 0 921 -16Q830 -32 705 -32Q573 -32 479.5 -15.5Q386 1 321 33V-384Z" glyph-name="mu" horiz-adv-x="1601" unicode="&#181;" /><glyph d="M1125 1181 989 1317 672 1000 355 1317 219 1181 536 864 219 547 355 411 672 728 989 411 1125 547 808 864Z" glyph-name="multiply" horiz-adv-x="1344" unicode="&#215;" /><glyph d="M1280 0V640Q1280 747 1264 820.5Q1248 894 1200 939Q1152 984 1064 1004Q976 1024 832 1024Q676 1024 576.5 1001Q477 978 420 936Q363 894 341.5 835Q320 776 320 704V0H128V1152H320V960Q341 1009 380 1044.5Q419 1080 468 1105Q517 1130 574 1145.5Q631 1161 688 1169.5Q745 1178 798.5 1181Q852 1184 896 1184Q1024 1184 1116.5 1168Q1209 1152 1273.5 1121Q1338 1090 1377 1044Q1416 998 1437.5 937.5Q1459 877 1466 802.5Q1473 728 1473 640L1472 0Z" glyph-name="n" horiz-adv-x="1601" unicode="n" /><glyph d="M1504 1627 1376 1819 800 1339 864 1243ZM1344 0V640Q1344 747 1328 820.5Q1312 894 1264 939Q1216 984 1128 1004Q1040 1024 896 1024Q740 1024 640.5 1001Q541 978 484 936Q427 894 405.5 835Q384 776 384 704V0H192V1152H384V960Q405 1009 444 1044.5Q483 1080 532 1105Q581 1130 638 1145.5Q695 1161 752 1169.5Q809 1178 862.5 1181Q916 1184 960 1184Q1088 1184 1180.5 1168Q1273 1152 1337.5 1121Q1402 1090 1441 1044Q1480 998 1501.5 937.5Q1523 877 1530 802.5Q1537 728 1537 640L1536 0Z" glyph-name="nacute" horiz-adv-x="1601" unicode="&#324;" /><glyph d="M864 1371 576 1819 448 1723 768 1243H960L1280 1723L1152 1819ZM1344 0V640Q1344 747 1328 820.5Q1312 894 1264 939Q1216 984 1128 1004Q1040 1024 896 1024Q740 1024 640.5 1001Q541 978 484 936Q427 894 405.5 835Q384 776 384 704V0H192V1152H384V960Q405 1009 444 1044.5Q483 1080 532 1105Q581 1130 638 1145.5Q695 1161 752 1169.5Q809 1178 862.5 1181Q916 1184 960 1184Q1088 1184 1180.5 1168Q1273 1152 1337.5 1121Q1402 1090 1441 1044Q1480 998 1501.5 937.5Q1523 877 1530 802.5Q1537 728 1537 640L1536 0Z" glyph-name="ncaron" horiz-adv-x="1601" unicode="&#328;" /><glyph d="M800 -121H992L864 -505H736ZM1344 0V640Q1344 747 1328 820.5Q1312 894 1264 939Q1216 984 1128 1004Q1040 1024 896 1024Q740 1024 640.5 1001Q541 978 484 936Q427 894 405.5 835Q384 776 384 704V0H192V1152H384V960Q405 1009 444 1044.5Q483 1080 532 1105Q581 1130 638 1145.5Q695 1161 752 1169.5Q809 1178 862.5 1181Q916 1184 960 1184Q1088 1184 1180.5 1168Q1273 1152 1337.5 1121Q1402 1090 1441 1044Q1480 998 1501.5 937.5Q1523 877 1530 802.5Q1537 728 1537 640L1536 0Z" glyph-name="ncommaaccent" horiz-adv-x="1601" unicode="&#326;" /><glyph d="M1057 128Q1212 128 1319.5 133Q1427 138 1498 157Q1569 175 1609 212Q1649 249 1669 313Q1688 377 1692.5 472.5Q1697 568 1697 704Q1619 657 1495 632.5Q1371 608 1185 608H864Q648 608 511 638Q374 668 297 728Q219 788 190 878Q161 968 161 1088Q161 1208 190 1298Q219 1388 297 1448Q374 1508 511 1538Q648 1568 864 1568H1185Q1361 1568 1481.5 1546.5Q1602 1525 1681 1482Q1759 1438 1801 1372Q1843 1306 1863 1217Q1882 1128 1885.5 1016Q1889 904 1889 768Q1889 624 1885 508.5Q1881 393 1858 305Q1835 216 1785 152Q1735 88 1643 48Q1550 7 1407.5 -12.5Q1265 -32 1057 -32Q881 -32 751 -19Q621 -6 529 20Q436 46 377 84Q318 122 285 172Q251 222 238.5 283Q226 344 226 416H385Q385 376 391 339Q397 302 418 270Q438 238 481 212Q524 186 599 167Q673 148 785 138Q897 128 1057 128ZM1185 768Q1342 768 1442 775Q1542 782 1599 808Q1655 834 1676 885Q1697 936 1697 1024Q1697 1144 1676 1219Q1655 1294 1599 1336Q1542 1378 1442 1393Q1342 1408 1185 1408H864Q752 1408 670.5 1402Q589 1396 533 1382Q476 1368 440.5 1344Q405 1320 386 1285Q366 1249 359.5 1200.5Q353 1152 353 1088Q353 1024 360 975.5Q367 927 387 892Q406 856 441 832Q476 808 533 794Q590 780 671 774Q752 768 864 768Z" glyph-name="nine" horiz-adv-x="2050" unicode="9" /><glyph glyph-name="nonmarkingreturn" horiz-adv-x="0" unicode="" /><glyph d="M384 -64 544 -128 1152 1408 992 1472ZM128 864H1344V1024H128ZM128 320H1344V480H128Z" glyph-name="notequal" horiz-adv-x="1472" unicode="&#8800;" /><glyph d="M1280 0V640Q1280 747 1264 820.5Q1248 894 1200 939Q1152 984 1064 1004Q976 1024 832 1024Q676 1024 576.5 1001Q477 978 420 936Q363 894 341.5 835Q320 776 320 704V0H128V1152H320V960Q341 1009 380 1044.5Q419 1080 468 1105Q517 1130 574 1145.5Q631 1161 688 1169.5Q745 1178 798.5 1181Q852 1184 896 1184Q1024 1184 1116.5 1168Q1209 1152 1273.5 1121Q1338 1090 1377 1044Q1416 998 1437.5 937.5Q1459 877 1466 802.5Q1473 728 1473 640L1472 0ZM609 1440Q654 1440 692.5 1425Q731 1410 774 1392Q817 1374 869 1359Q921 1344 993 1344Q1029 1344 1073.5 1356.5Q1118 1369 1157 1398.5Q1196 1428 1222.5 1477Q1249 1526 1249 1600H1057Q1057 1570 1053 1551Q1049 1532 1041 1521.5Q1033 1511 1021 1507.5Q1009 1504 993 1504Q948 1504 909.5 1519Q871 1534 828 1552.5Q785 1571 733 1586Q681 1601 609 1601Q573 1601 528.5 1589.5Q484 1578 445 1549Q406 1520 379.5 1470Q353 1420 353 1344H545Q545 1375 549 1394Q553 1413 561 1423Q569 1433 581 1436.5Q593 1440 609 1440Z" glyph-name="ntilde" horiz-adv-x="1602" unicode="&#241;" /><glyph d="M835 320H526L415 -128L255 -80L354 320H128V480H393L489 864H192V1024H528L640 1472L800 1424L700 1024H1009L1121 1472L1281 1424L1181 1024H1408V864H1142L1046 480H1344V320H1007L896 -128L736 -80ZM565 480H874L970 864H661Z" glyph-name="numbersign" horiz-adv-x="1536" unicode="#" /><glyph d="M96 584Q96 761 134 877Q172 993 256 1061Q340 1129 474 1156.5Q608 1184 800 1184Q992 1184 1126 1156.5Q1260 1129 1344 1061Q1428 993 1466 877Q1504 761 1504 584Q1504 407 1466 290Q1428 173 1344 104Q1260 35 1126 6.5Q992 -22 800 -22Q608 -22 474 6.5Q340 35 256 104Q172 173 134 290Q96 407 96 584ZM288 584Q288 488 295 417Q302 346 321.5 295Q341 244 376 212Q411 180 468 161Q525 142 606.5 135Q688 128 800 128Q896 128 971.5 132.5Q1047 137 1103.5 153Q1160 169 1200 198.5Q1240 228 1264.5 279Q1289 330 1300.5 404.5Q1312 479 1312 584Q1312 687 1300.5 759.5Q1289 832 1264.5 881Q1240 930 1200 958.5Q1160 987 1103.5 1001.5Q1047 1016 971.5 1020Q896 1024 800 1024Q704 1024 628.5 1020Q553 1016 496.5 1001.5Q440 987 400 958.5Q360 930 335.5 881Q311 832 299.5 759.5Q288 687 288 584Z" glyph-name="o" horiz-adv-x="1600" unicode="o" /><glyph d="M128 584Q128 761 166 877Q204 993 288 1061Q372 1129 506 1156.5Q640 1184 832 1184Q1024 1184 1158 1156.5Q1292 1129 1376 1061Q1460 993 1498 877Q1536 761 1536 584Q1536 407 1498 290Q1460 173 1376 104Q1292 35 1158 6.5Q1024 -22 832 -22Q640 -22 506 6.5Q372 35 288 104Q204 173 166 290Q128 407 128 584ZM320 584Q320 488 327 417Q334 346 353.5 295Q373 244 408 212Q443 180 500 161Q557 142 638.5 135Q720 128 832 128Q928 128 1003.5 132.5Q1079 137 1135.5 153Q1192 169 1232 198.5Q1272 228 1296.5 279Q1321 330 1332.5 404.5Q1344 479 1344 584Q1344 687 1332.5 759.5Q1321 832 1296.5 881Q1272 930 1232 958.5Q1192 987 1135.5 1001.5Q1079 1016 1003.5 1020Q928 1024 832 1024Q736 1024 660.5 1020Q585 1016 528.5 1001.5Q472 987 432 958.5Q392 930 367.5 881Q343 832 331.5 759.5Q320 687 320 584ZM1184 1664 1056 1856 480 1376 544 1280Z" glyph-name="oacute" horiz-adv-x="1664" unicode="&#243;" /><glyph d="M448 1563Q448 1395 544 1319Q640 1243 832 1243Q1024 1243 1120 1319Q1216 1395 1216 1563H1056Q1056 1491 1039 1452Q1022 1413 992 1395Q962 1377 921 1374Q880 1371 832 1371Q784 1371 743 1374Q702 1377 672 1395Q642 1413 625 1452Q608 1491 608 1563ZM128 584Q128 761 166 877Q204 993 288 1061Q372 1129 506 1156.5Q640 1184 832 1184Q1024 1184 1158 1156.5Q1292 1129 1376 1061Q1460 993 1498 877Q1536 761 1536 584Q1536 407 1498 290Q1460 173 1376 104Q1292 35 1158 6.5Q1024 -22 832 -22Q640 -22 506 6.5Q372 35 288 104Q204 173 166 290Q128 407 128 584ZM320 584Q320 488 327 417Q334 346 353.5 295Q373 244 408 212Q443 180 500 161Q557 142 638.5 135Q720 128 832 128Q928 128 1003.5 132.5Q1079 137 1135.5 153Q1192 169 1232 198.5Q1272 228 1296.5 279Q1321 330 1332.5 404.5Q1344 479 1344 584Q1344 687 1332.5 759.5Q1321 832 1296.5 881Q1272 930 1232 958.5Q1192 987 1135.5 1001.5Q1079 1016 1003.5 1020Q928 1024 832 1024Q736 1024 660.5 1020Q585 1016 528.5 1001.5Q472 987 432 958.5Q392 930 367.5 881Q343 832 331.5 759.5Q320 687 320 584Z" glyph-name="obreve" horiz-adv-x="1664" unicode="&#335;" /><glyph d="M128 584Q128 761 166 877Q204 993 288 1061Q372 1129 506 1156.5Q640 1184 832 1184Q1024 1184 1158 1156.5Q1292 1129 1376 1061Q1460 993 1498 877Q1536 761 1536 584Q1536 407 1498 290Q1460 173 1376 104Q1292 35 1158 6.5Q1024 -22 832 -22Q640 -22 506 6.5Q372 35 288 104Q204 173 166 290Q128 407 128 584ZM320 584Q320 488 327 417Q334 346 353.5 295Q373 244 408 212Q443 180 500 161Q557 142 638.5 135Q720 128 832 128Q928 128 1003.5 132.5Q1079 137 1135.5 153Q1192 169 1232 198.5Q1272 228 1296.5 279Q1321 330 1332.5 404.5Q1344 479 1344 584Q1344 687 1332.5 759.5Q1321 832 1296.5 881Q1272 930 1232 958.5Q1192 987 1135.5 1001.5Q1079 1016 1003.5 1020Q928 1024 832 1024Q736 1024 660.5 1020Q585 1016 528.5 1001.5Q472 987 432 958.5Q392 930 367.5 881Q343 832 331.5 759.5Q320 687 320 584ZM1120 1280 1248 1376 928 1856H736L416 1376L544 1280L832 1728Z" glyph-name="ocircumflex" horiz-adv-x="1664" unicode="&#244;" /><glyph d="M128 584Q128 761 166 877Q204 993 288 1061Q372 1129 506 1156.5Q640 1184 832 1184Q1024 1184 1158 1156.5Q1292 1129 1376 1061Q1460 993 1498 877Q1536 761 1536 584Q1536 407 1498 290Q1460 173 1376 104Q1292 35 1158 6.5Q1024 -22 832 -22Q640 -22 506 6.5Q372 35 288 104Q204 173 166 290Q128 407 128 584ZM320 584Q320 488 327 417Q334 346 353.5 295Q373 244 408 212Q443 180 500 161Q557 142 638.5 135Q720 128 832 128Q928 128 1003.5 132.5Q1079 137 1135.5 153Q1192 169 1232 198.5Q1272 228 1296.5 279Q1321 330 1332.5 404.5Q1344 479 1344 584Q1344 687 1332.5 759.5Q1321 832 1296.5 881Q1272 930 1232 958.5Q1192 987 1135.5 1001.5Q1079 1016 1003.5 1020Q928 1024 832 1024Q736 1024 660.5 1020Q585 1016 528.5 1001.5Q472 987 432 958.5Q392 930 367.5 881Q343 832 331.5 759.5Q320 687 320 584ZM544 1536H352V1344H544ZM1312 1536H1120V1344H1312Z" glyph-name="odieresis" horiz-adv-x="1664" unicode="&#246;" /><glyph d="M128 544Q128 376 166 265Q204 154 288 88Q372 22 506 -5Q640 -32 832 -32Q949 -32 1049.5 -15Q1150 2 1228.5 32Q1307 62 1361.5 103Q1416 144 1440 192Q1464 144 1518 103Q1572 62 1651 32Q1730 2 1830.5 -15Q1931 -32 2048 -32Q2228 -32 2350.5 -13Q2473 6 2548 48Q2623 90 2655.5 157Q2688 224 2688 320H2496Q2496 260 2475.5 222.5Q2455 185 2404 164Q2353 143 2266.5 135.5Q2180 128 2048 128Q1904 128 1806 138.5Q1708 149 1648 188Q1588 227 1562 303.5Q1536 380 1536 512H2672L2688 576Q2688 655 2678.5 726Q2669 797 2643.5 857Q2618 917 2573.5 966Q2529 1015 2457.5 1049Q2386 1083 2285.5 1101.5Q2185 1120 2048 1120Q1931 1120 1826 1103Q1721 1086 1639 1056Q1557 1026 1504.5 985Q1452 944 1440 896Q1428 942 1375 982.5Q1322 1023 1240.5 1053.5Q1159 1084 1054 1102Q949 1120 832 1120Q640 1120 506 1093Q372 1066 288 1000Q204 934 166 823Q128 712 128 544ZM320 544Q320 688 346 771Q372 854 432 896Q492 938 590 949Q688 960 832 960Q976 960 1074 949Q1172 938 1232 896Q1292 854 1318 771Q1344 688 1344 544Q1344 400 1318 317Q1292 234 1232 192Q1172 150 1074 139Q976 128 832 128Q720 128 638.5 134.5Q557 141 500 158Q443 175 408 204Q373 233 353.5 279.5Q334 326 327 391Q320 456 320 544ZM2048 960Q2168 960 2253 946Q2338 932 2392 896Q2446 860 2471 798Q2496 736 2496 640H1536Q1536 748 1562 811.5Q1588 875 1648 908Q1708 941 1806 950.5Q1904 960 2048 960Z" glyph-name="oe" horiz-adv-x="2816" unicode="&#339;" /><glyph d="M512 -512Q440 -512 371 -499Q302 -486 248 -456Q194 -426 161 -377Q128 -328 128 -256Q128 -220 139 -187Q150 -154 168 -125Q186 -96 209 -70.5Q232 -45 256 -24Q284 0.5 316 22.5Q348 44.5 384 64H512Q440 16 401 -30.5Q362 -77 344 -116Q326 -155 323 -183.5Q320 -212 320 -224Q320 -296 367.5 -324Q415 -352 512 -352Z" glyph-name="ogonek" horiz-adv-x="640" unicode="&#731;" /><glyph d="M128 584Q128 761 166 877Q204 993 288 1061Q372 1129 506 1156.5Q640 1184 832 1184Q1024 1184 1158 1156.5Q1292 1129 1376 1061Q1460 993 1498 877Q1536 761 1536 584Q1536 407 1498 290Q1460 173 1376 104Q1292 35 1158 6.5Q1024 -22 832 -22Q640 -22 506 6.5Q372 35 288 104Q204 173 166 290Q128 407 128 584ZM320 584Q320 488 327 417Q334 346 353.5 295Q373 244 408 212Q443 180 500 161Q557 142 638.5 135Q720 128 832 128Q928 128 1003.5 132.5Q1079 137 1135.5 153Q1192 169 1232 198.5Q1272 228 1296.5 279Q1321 330 1332.5 404.5Q1344 479 1344 584Q1344 687 1332.5 759.5Q1321 832 1296.5 881Q1272 930 1232 958.5Q1192 987 1135.5 1001.5Q1079 1016 1003.5 1020Q928 1024 832 1024Q736 1024 660.5 1020Q585 1016 528.5 1001.5Q472 987 432 958.5Q392 930 367.5 881Q343 832 331.5 759.5Q320 687 320 584ZM480 1664 608 1856 1184 1376 1120 1280Z" glyph-name="ograve" horiz-adv-x="1664" unicode="&#242;" /><glyph d="M1196 1627 1068 1819 492 1339 556 1243ZM1749 1627 1621 1819 1045 1339 1109 1243ZM128 584Q128 761 166 877Q204 993 288 1061Q372 1129 506 1156.5Q640 1184 832 1184Q1024 1184 1158 1156.5Q1292 1129 1376 1061Q1460 993 1498 877Q1536 761 1536 584Q1536 407 1498 290Q1460 173 1376 104Q1292 35 1158 6.5Q1024 -22 832 -22Q640 -22 506 6.5Q372 35 288 104Q204 173 166 290Q128 407 128 584ZM320 584Q320 488 327 417Q334 346 353.5 295Q373 244 408 212Q443 180 500 161Q557 142 638.5 135Q720 128 832 128Q928 128 1003.5 132.5Q1079 137 1135.5 153Q1192 169 1232 198.5Q1272 228 1296.5 279Q1321 330 1332.5 404.5Q1344 479 1344 584Q1344 687 1332.5 759.5Q1321 832 1296.5 881Q1272 930 1232 958.5Q1192 987 1135.5 1001.5Q1079 1016 1003.5 1020Q928 1024 832 1024Q736 1024 660.5 1020Q585 1016 528.5 1001.5Q472 987 432 958.5Q392 930 367.5 881Q343 832 331.5 759.5Q320 687 320 584Z" glyph-name="ohungarumlaut" horiz-adv-x="1664" unicode="&#337;" /><glyph d="M448 1244H1216V1404H448ZM128 584Q128 761 166 877Q204 993 288 1061Q372 1129 506 1156.5Q640 1184 832 1184Q1024 1184 1158 1156.5Q1292 1129 1376 1061Q1460 993 1498 877Q1536 761 1536 584Q1536 407 1498 290Q1460 173 1376 104Q1292 35 1158 6.5Q1024 -22 832 -22Q640 -22 506 6.5Q372 35 288 104Q204 173 166 290Q128 407 128 584ZM320 584Q320 488 327 417Q334 346 353.5 295Q373 244 408 212Q443 180 500 161Q557 142 638.5 135Q720 128 832 128Q928 128 1003.5 132.5Q1079 137 1135.5 153Q1192 169 1232 198.5Q1272 228 1296.5 279Q1321 330 1332.5 404.5Q1344 479 1344 584Q1344 687 1332.5 759.5Q1321 832 1296.5 881Q1272 930 1232 958.5Q1192 987 1135.5 1001.5Q1079 1016 1003.5 1020Q928 1024 832 1024Q736 1024 660.5 1020Q585 1016 528.5 1001.5Q472 987 432 958.5Q392 930 367.5 881Q343 832 331.5 759.5Q320 687 320 584Z" glyph-name="omacron" horiz-adv-x="1664" unicode="&#333;" /><glyph d="M870 1536H1126V0H934V1376L486 992L390 1120ZM1871 0H179V160H1871Z" glyph-name="one" horiz-adv-x="2050" unicode="1" /><glyph d="M128 1120 224 992 640 1376V448H832V1536H576ZM1569 1536H1761L1057 0H865ZM1664 4H2722V164H1856Q1856 204 1857.5 232Q1859 260 1868 279.5Q1877 299 1896.5 313Q1916 327 1951.5 338.5Q1987 350 2041.5 361.5Q2096 373 2176 389L2434 440Q2527 458 2588.5 487.5Q2650 517 2686.5 560Q2723 603 2737.5 662Q2752 721 2752 799Q2752 915 2718.5 980.5Q2685 1046 2617.5 1078Q2550 1110 2448 1117Q2346 1124 2209 1124Q2120 1124 2045 1122Q1970 1120 1909 1111Q1848 1102 1802.5 1082.5Q1757 1063 1726 1027.5Q1695 992 1679.5 937.5Q1664 883 1664 804H1856Q1856 837 1857 862Q1858 887 1867 905Q1876 923 1896 934.5Q1916 946 1955.5 952.5Q1995 959 2056.5 961.5Q2118 964 2209 964Q2311 964 2378.5 960.5Q2446 957 2486.5 941Q2527 925 2543.5 891.5Q2560 858 2560 798Q2560 738 2547.5 701.5Q2535 665 2511 643.5Q2487 622 2451.5 611Q2416 600 2370 591L1984 518Q1874 497 1810.5 469Q1747 441 1714.5 405Q1682 369 1673 325Q1664 281 1664 228Z" glyph-name="onehalf" horiz-adv-x="2880" unicode="&#189;" /><glyph d="M128 1120 224 992 640 1376V448H832V1536H576ZM1600 1536H1792L1088 0H896ZM2720 192V352H2528V1088H2272L1504 384V192H2336V0H2528V192ZM1696 352 2336 960V352Z" glyph-name="onequarter" horiz-adv-x="2848" unicode="&#188;" /><glyph d="M64 1120 160 992 576 1376V448H768V1536H512Z" glyph-name="onesuperior" horiz-adv-x="896" unicode="&#185;" /><glyph d="M1280 158Q1278.5 152 1267.25 137Q1256 122 1235 98Q1205 62 1155 34.5Q1105 7 1021.5 -8.5Q979.75 -16.25 924.875 -20.125Q870 -24 802 -24Q621 -24 493 -5.5Q365 13 284 51.5Q203 90 165.5 150Q128 210 128 293Q128 380 148.5 440.5Q169 501 208.5 542Q248 583 304 606Q360 629 431.5 641Q503 653 588 656Q673 659 769 659Q906 659 998 647.5Q1090 636 1148.5 618.5Q1207 601 1237 581Q1267 561 1280 544Q1280 656 1270.5 735Q1261 814 1239.5 867Q1218 920 1184 951.5Q1150 983 1100.5 999Q1051 1015 985 1019.5Q919 1024 834 1024Q702 1024 615 1017.5Q528 1011 477 992Q426 973 405 939.5Q384 906 384 852H192Q192 943 224.5 1006Q257 1069 332.5 1108.5Q408 1148 531 1166Q654 1184 834 1184Q1010 1184 1132 1155Q1254 1126 1329.5 1053Q1405 980 1438.5 856.5Q1472 733 1472 544V0H1280ZM834 128Q961 128 1046.5 140Q1132 152 1184 176Q1236 200 1258 236Q1280 272 1280 320Q1280 368 1254.5 401.5Q1229 435 1169.5 456Q1110 477 1012 486.5Q914 496 770 496Q626 496 537.5 491Q449 486 401 468Q353 450 336.5 415Q320 380 320 320Q320 260 337.5 222.5Q355 185 409 164Q463 143 564.5 135.5Q666 128 834 128Z" glyph-name="ordfeminine" horiz-adv-x="1600" unicode="&#170;" /><glyph d="M128 961Q128 1129 166 1240Q204 1351 288 1417Q372 1483 506 1510Q640 1537 832 1537Q1024 1537 1158 1510Q1292 1483 1376 1417Q1460 1351 1498 1240Q1536 1129 1536 961Q1536 793 1498 682Q1460 571 1376 505Q1292 439 1158 412Q1024 385 832 385Q640 385 506 412Q372 439 288 505Q204 571 166 682Q128 793 128 961ZM320 961Q320 873 327 808Q334 743 353.5 696.5Q373 650 408 621Q443 592 500 575Q557 558 638.5 551.5Q720 545 832 545Q976 545 1074 556Q1172 567 1232 609Q1292 651 1318 734Q1344 817 1344 961Q1344 1105 1318 1188Q1292 1271 1232 1313Q1172 1355 1074 1366Q976 1377 832 1377Q688 1377 590 1366Q492 1355 432 1313Q372 1271 346 1188Q320 1105 320 961Z" glyph-name="ordmasculine" horiz-adv-x="1664" unicode="&#186;" /><glyph d="M128 544Q128 712 166 823Q204 934 288 1000Q372 1066 506 1093Q640 1120 832 1120Q870 1120 905.75 1118.75Q941.5 1117.5 975 1115L1056 1312L1216 1248L1152 1094Q1153.5 1093.5 1155 1093.25Q1156.5 1093 1158 1093Q1292 1066 1376 1000Q1460 934 1498 823Q1517 767.5 1526.5 697.75Q1536 628 1536 544Q1536 376 1498 265Q1460 154 1376 88Q1292 22 1158 -5Q1024 -32 832 -32Q794 -32 758.25 -30.75Q722.5 -29.5 689 -27L608 -224L448 -160L511 -6Q510 -5.5 508.75 -5.25Q507.5 -5 506 -5Q372 22 288 88Q204 154 166 265Q147 320.5 137.5 390.25Q128 460 128 544ZM320 544Q320 456 327 391Q334 326 353.5 279.5Q373 233 408 204Q443 175 500 158Q516 153 534 148.75Q552 144.5 572 141L910 959Q891.5 959.5 872 959.75Q852.5 960 832 960Q688 960 590 949Q492 938 432 896Q372 854 346 771Q320 688 320 544ZM832 128Q976 128 1074 139Q1172 150 1232 192Q1292 234 1318 317Q1344 400 1344 544Q1344 688 1318 771Q1292 854 1232 896Q1204.5 915 1169.25 927.5Q1134 940 1091 946L753 128Q772 128 791.75 128Q811.5 128 832 128Z" glyph-name="oslash" horiz-adv-x="1664" unicode="&#248;" /><glyph d="M1472 1818 1344 2010 768 1530 832 1434ZM128 544Q128 712 166 823Q204 934 288 1000Q372 1066 506 1093Q640 1120 832 1120Q870 1120 905.75 1118.75Q941.5 1117.5 975 1115L1056 1312L1216 1248L1152 1094Q1153.5 1093.5 1155 1093.25Q1156.5 1093 1158 1093Q1292 1066 1376 1000Q1460 934 1498 823Q1517 767.5 1526.5 697.75Q1536 628 1536 544Q1536 376 1498 265Q1460 154 1376 88Q1292 22 1158 -5Q1024 -32 832 -32Q794 -32 758.25 -30.75Q722.5 -29.5 689 -27L608 -224L448 -160L511 -6Q510 -5.5 508.75 -5.25Q507.5 -5 506 -5Q372 22 288 88Q204 154 166 265Q147 320.5 137.5 390.25Q128 460 128 544ZM320 544Q320 456 327 391Q334 326 353.5 279.5Q373 233 408 204Q443 175 500 158Q516 153 534 148.75Q552 144.5 572 141L910 959Q891.5 959.5 872 959.75Q852.5 960 832 960Q688 960 590 949Q492 938 432 896Q372 854 346 771Q320 688 320 544ZM832 128Q976 128 1074 139Q1172 150 1232 192Q1292 234 1318 317Q1344 400 1344 544Q1344 688 1318 771Q1292 854 1232 896Q1204.5 915 1169.25 927.5Q1134 940 1091 946L753 128Q772 128 791.75 128Q811.5 128 832 128Z" glyph-name="oslashacute" horiz-adv-x="1664" unicode="&#511;" /><glyph d="M128 584Q128 761 166 877Q204 993 288 1061Q372 1129 506 1156.5Q640 1184 832 1184Q1024 1184 1158 1156.5Q1292 1129 1376 1061Q1460 993 1498 877Q1536 761 1536 584Q1536 407 1498 290Q1460 173 1376 104Q1292 35 1158 6.5Q1024 -22 832 -22Q640 -22 506 6.5Q372 35 288 104Q204 173 166 290Q128 407 128 584ZM320 584Q320 488 327 417Q334 346 353.5 295Q373 244 408 212Q443 180 500 161Q557 142 638.5 135Q720 128 832 128Q928 128 1003.5 132.5Q1079 137 1135.5 153Q1192 169 1232 198.5Q1272 228 1296.5 279Q1321 330 1332.5 404.5Q1344 479 1344 584Q1344 687 1332.5 759.5Q1321 832 1296.5 881Q1272 930 1232 958.5Q1192 987 1135.5 1001.5Q1079 1016 1003.5 1020Q928 1024 832 1024Q736 1024 660.5 1020Q585 1016 528.5 1001.5Q472 987 432 958.5Q392 930 367.5 881Q343 832 331.5 759.5Q320 687 320 584ZM640 1440Q685 1440 723.5 1425Q762 1410 805 1392Q848 1374 900 1359Q952 1344 1024 1344Q1060 1344 1104.5 1356.5Q1149 1369 1188 1398.5Q1227 1428 1253.5 1477Q1280 1526 1280 1600H1088Q1088 1570 1084 1551Q1080 1532 1072 1521.5Q1064 1511 1052 1507.5Q1040 1504 1024 1504Q979 1504 940.5 1519Q902 1534 859 1552.5Q816 1571 764 1586Q712 1601 640 1601Q604 1601 559.5 1589.5Q515 1578 476 1549Q437 1520 410.5 1470Q384 1420 384 1344H576Q576 1375 580 1394Q584 1413 592 1423Q600 1433 612 1436.5Q624 1440 640 1440Z" glyph-name="otilde" horiz-adv-x="1664" unicode="&#245;" /><glyph d="M832 1184Q1024 1184 1158 1155Q1292 1126 1376 1056Q1460 986 1498 868.5Q1536 751 1536 574Q1536 400 1498 285Q1460 170 1376 102Q1292 34 1158 6Q1024 -22 832 -22Q695 -22 603 -7Q511 8 452.5 30.5Q394 53 363.5 79Q333 105 320 128V-384H128V1152H320V1045Q333 1065 363.5 1089.5Q394 1114 452.5 1135Q511 1156 603 1170Q695 1184 832 1184ZM832 1024Q736 1024 661 1019Q586 1014 529 998.5Q472 983 432.5 953.5Q393 924 368 874.5Q343 825 331.5 752Q320 679 320 577Q320 474 331.5 400Q343 326 368 276.5Q393 227 432.5 197.5Q472 168 529 152.5Q586 137 661 132.5Q736 128 832 128Q944 128 1025.5 135Q1107 142 1164 160Q1221 178 1256.5 210Q1292 242 1311.5 291.5Q1331 341 1337.5 410.5Q1344 480 1344 574Q1344 668 1337.5 738Q1331 808 1311.5 858Q1292 908 1256.5 940Q1221 972 1164 991Q1107 1010 1025.5 1017Q944 1024 832 1024Z" glyph-name="p" horiz-adv-x="1632" unicode="p" /><glyph d="M1088 1376H1472V0H1664V1376H1856V1536H833Q673 1536 558.5 1523.5Q444 1511 365.5 1486Q287 1461 240 1424Q193 1387 168 1337Q143 1287 135.5 1225Q128 1163 128 1088Q128 1010 135.5 944Q143 878 168 824.5Q193 771 240 730.5Q287 690 365 663Q443 636 558 622Q673 608 833 608H896V0H1088Z" glyph-name="paragraph" horiz-adv-x="1984" unicode="&#182;" /><glyph d="M640 -64Q512 -64 424.5 -29Q337 6 280 66.5Q223 127 192 208Q161 289 147 381.5Q133 474 130.5 573Q128 672 128 768Q128 864 130.5 963Q133 1062 147 1154.5Q161 1247 192 1328Q223 1409 280 1469.5Q337 1530 424.5 1565Q512 1600 640 1600V1440Q559 1440 504 1421.5Q449 1403 413.5 1365.5Q378 1328 359 1272Q340 1216 331.5 1141.5Q323 1067 321.5 973.5Q320 880 320 768Q320 656 321.5 562.5Q323 469 331.5 394.5Q340 320 359 264Q378 208 413.5 170.5Q449 133 504 114.5Q559 96 640 96Z" glyph-name="parenleft" horiz-adv-x="768" unicode="(" /><glyph d="M128 96Q208 96 263.5 114.5Q319 133 354.5 170.5Q390 208 409 264Q428 320 436.5 394.5Q445 469 446.5 562.5Q448 656 448 768Q448 880 446.5 973.5Q445 1067 436.5 1141.5Q428 1216 409 1272Q390 1328 354.5 1365.5Q319 1403 263.5 1421.5Q208 1440 128 1440V1600Q256 1600 343.5 1565Q431 1530 488 1469.5Q545 1409 576 1328Q607 1247 621 1154.5Q635 1062 637.5 963Q640 864 640 768Q640 672 637.5 573Q635 474 621 381.5Q607 289 576 208Q545 127 488 66.5Q431 6 343.5 -29Q256 -64 128 -64Z" glyph-name="parenright" horiz-adv-x="768" unicode=")" /><glyph d="M960 1408Q800 1408 692.5 1397.5Q585 1387 517.5 1368Q450 1349 416 1322.5Q382 1296 367.5 1264Q353 1232 352.5 1195.5Q352 1159 352 1120H192Q192 1191 200 1252Q208 1313 235 1362.5Q262 1412 312.5 1450.5Q363 1489 448.5 1515Q534 1541 659 1554.5Q784 1568 960 1568Q1168 1568 1315.5 1548.5Q1463 1529 1562.5 1488Q1662 1447 1720 1383.5Q1778 1320 1808.5 1231Q1839 1142 1847.5 1027Q1856 912 1856 768Q1856 632 1852.5 520Q1849 408 1829.5 319Q1810 230 1768 164Q1726 98 1647.5 54.5Q1569 11 1448.5 -10.5Q1328 -32 1152 -32H831Q615 -32 478 -2Q341 28 263.5 88Q186 148 157 238Q128 328 128 448Q128 568 157 658Q186 748 263.5 808Q341 868 478 898Q615 928 831 928H1152Q1338 928 1462 903.5Q1586 879 1664 832Q1664 960 1656.5 1052Q1649 1144 1624 1208Q1599 1272 1552 1311.5Q1505 1351 1427 1372.5Q1349 1394 1234.5 1401Q1120 1408 960 1408ZM831 768Q719 768 638 762Q557 756 500 742Q443 728 408 704Q373 680 353.5 644.5Q334 609 327 560.5Q320 512 320 448Q320 384 326.5 335.5Q333 287 352.5 251.5Q372 216 407.5 192Q443 168 499.5 154Q556 140 637.5 134Q719 128 831 128H1152Q1309 128 1409 143Q1509 158 1565.5 200Q1622 242 1643 317Q1664 392 1664 512Q1664 600 1643 651Q1622 702 1565.5 728Q1509 754 1409 761Q1309 768 1152 768Z" glyph-name="partialdiff" horiz-adv-x="1984" unicode="&#8706;" /><glyph d="M64 0H256L960 1536H768Z" glyph-name="percent" horiz-adv-x="1023" unicode="%" /><glyph d="M320 0H128V192H320Z" glyph-name="period" horiz-adv-x="448" unicode="." /><glyph d="M320 896H128V704H320Z" glyph-name="periodcentered" horiz-adv-x="448" unicode="&#183;" /><glyph d="M64 0H256L960 1536H768Z" glyph-name="perthousand" horiz-adv-x="448" unicode="&#8240;" /><glyph d="M128 1088H320V0H128ZM320 1344H128V1536H320ZM128 1088H320V0H128ZM320 1344H128V1536H320Z" glyph-name="pi" horiz-adv-x="448" unicode="&#960;" /><glyph d="M128 960H576V1408H768V960H1216V800H768V320H576V800H128Z" glyph-name="plus" horiz-adv-x="1344" unicode="+" /><glyph d="M128 960H576V1408H768V960H1216V800H768V320H576V800H128Z" glyph-name="plusminus" horiz-adv-x="1344" unicode="&#177;" /><glyph d="M1664 0H1472V1376H320V0H128V1536H1664Z" glyph-name="product" horiz-adv-x="1792" unicode="&#8719;" /><glyph d="M800 1184Q936 1184 1028 1169Q1120 1154 1178.5 1131.5Q1237 1109 1267.5 1083Q1298 1057 1312 1035V1152H1504V-384H1312V128Q1298 105 1267.5 79Q1237 53 1178.5 30.5Q1120 8 1028 -7Q936 -22 800 -22Q608 -22 474 6.5Q340 35 256 104Q172 173 134 290Q96 407 96 584Q96 761 134 877Q172 993 256 1061Q340 1129 474 1156.5Q608 1184 800 1184ZM800 1024Q688 1024 606.5 1018Q525 1012 468 995Q411 978 375.5 948Q340 918 320.5 869Q301 820 294.5 750Q288 680 288 584Q288 488 294.5 417Q301 346 320.5 295Q340 244 375.5 212Q411 180 468 161Q525 142 606.5 135Q688 128 800 128Q896 128 971 132.5Q1046 137 1103 153Q1160 169 1199.5 199Q1239 229 1264 280Q1289 331 1300.5 406Q1312 481 1312 587Q1312 691 1300.5 764Q1289 837 1264 885.5Q1239 934 1199.5 962Q1160 990 1103 1003.5Q1046 1017 971 1020.5Q896 1024 800 1024Z" glyph-name="q" horiz-adv-x="1632" unicode="q" /><glyph d="M704 321V387Q704 447 706.5 508.5Q709 570 723 626.5Q737 683 768 732Q799 781 856 817.5Q913 854 1000.5 875Q1088 896 1216 896Q1288 896 1347 904Q1406 912 1447.5 938.5Q1489 965 1512 1015.5Q1535 1066 1535 1152Q1535 1246 1509 1298Q1483 1350 1423.5 1374.5Q1364 1399 1266 1403.5Q1168 1408 1024 1408Q848 1408 727.5 1403.5Q607 1399 528.5 1387.5Q450 1376 408 1356Q366 1336 346.5 1304Q327 1272 323.5 1227.5Q320 1183 320 1122H128Q128 1234 154.5 1310Q181 1386 232.5 1435.5Q284 1485 360 1512Q436 1539 535.5 1551.5Q635 1564 757.5 1566Q880 1568 1024 1568Q1136 1568 1232 1564Q1328 1560 1406 1546Q1484 1532 1544 1505Q1604 1478 1645 1432Q1686 1386 1707 1317.5Q1728 1249 1728 1153Q1728 1064 1703 987.5Q1678 911 1624 855Q1570 799 1485 767.5Q1400 736 1280 736Q1184 736 1118 727.5Q1052 719 1009.5 699.5Q967 680 944 648.5Q921 617 910.5 571Q900 525 898 463Q896 401 896 321ZM896 0H704V192H896Z" glyph-name="question" horiz-adv-x="1856" unicode="?" /><glyph d="M704 321V387Q704 447 706.5 508.5Q709 570 723 626.5Q737 683 768 732Q799 781 856 817.5Q913 854 1000.5 875Q1088 896 1216 896Q1288 896 1347 904Q1406 912 1447.5 938.5Q1489 965 1512 1015.5Q1535 1066 1535 1152Q1535 1246 1509 1298Q1483 1350 1423.5 1374.5Q1364 1399 1266 1403.5Q1168 1408 1024 1408Q848 1408 727.5 1403.5Q607 1399 528.5 1387.5Q450 1376 408 1356Q366 1336 346.5 1304Q327 1272 323.5 1227.5Q320 1183 320 1122H128Q128 1234 154.5 1310Q181 1386 232.5 1435.5Q284 1485 360 1512Q436 1539 535.5 1551.5Q635 1564 757.5 1566Q880 1568 1024 1568Q1136 1568 1232 1564Q1328 1560 1406 1546Q1484 1532 1544 1505Q1604 1478 1645 1432Q1686 1386 1707 1317.5Q1728 1249 1728 1153Q1728 1064 1703 987.5Q1678 911 1624 855Q1570 799 1485 767.5Q1400 736 1280 736Q1184 736 1118 727.5Q1052 719 1009.5 699.5Q967 680 944 648.5Q921 617 910.5 571Q900 525 898 463Q896 401 896 321ZM896 0H704V192H896Z" glyph-name="questiondown" horiz-adv-x="1856" unicode="&#191;" /><glyph d="M128 1536H320L288 1152H160ZM448 1536H640L608 1152H480Z" glyph-name="quotedbl" horiz-adv-x="768" unicode="&quot;" /><glyph d="M128 -192H256L384 192H192ZM448 -192H576L704 192H512Z" glyph-name="quotedblbase" horiz-adv-x="832" unicode="&#8222;" /><glyph d="M384 1152H512L640 1536H448ZM128 1152H256L384 1536H192Z" glyph-name="quotedblleft" horiz-adv-x="768" unicode="&#8220;" /><glyph d="M128 1152H256L384 1536H192ZM448 1152H576L704 1536H512Z" glyph-name="quotedblright" horiz-adv-x="832" unicode="&#8221;" /><glyph d="M128 1152H256L384 1536H192Z" glyph-name="quoteleft" horiz-adv-x="512" unicode="&#8216;" /><glyph d="M128 1152H256L384 1536H192Z" glyph-name="quoteright" horiz-adv-x="512" unicode="&#8217;" /><glyph d="M64 -256H192L320 128H128Z" glyph-name="quotesinglbase" horiz-adv-x="448" unicode="&#8218;" /><glyph d="M128 1536H320L288 1152H160Z" glyph-name="quotesingle" horiz-adv-x="448" unicode="'" /><glyph d="M1120 777Q1120 849 1109.5 896.5Q1099 944 1060 972.5Q1021 1001 944.5 1012.5Q868 1024 736 1024Q607 1024 526 1001.5Q445 979 399 938Q353 897 336.5 840Q320 783 320 713V0H128V1152H320V969Q330 1000 357 1037.5Q384 1075 439 1107.5Q494 1140 581.5 1162Q669 1184 800 1184Q950 1184 1044 1157.5Q1138 1131 1190.5 1079.5Q1243 1028 1261.5 952Q1280 876 1280 777Z" glyph-name="r" horiz-adv-x="1280" unicode="r" /><glyph d="M1344 1627 1216 1819 640 1339 704 1243ZM1120 777Q1120 849 1109.5 896.5Q1099 944 1060 972.5Q1021 1001 944.5 1012.5Q868 1024 736 1024Q607 1024 526 1001.5Q445 979 399 938Q353 897 336.5 840Q320 783 320 713V0H128V1152H320V969Q330 1000 357 1037.5Q384 1075 439 1107.5Q494 1140 581.5 1162Q669 1184 800 1184Q950 1184 1044 1157.5Q1138 1131 1190.5 1079.5Q1243 1028 1261.5 952Q1280 876 1280 777Z" glyph-name="racute" horiz-adv-x="1344" unicode="&#341;" /><glyph d="M128 896H352L768 128L1280 1536H1504L896 0H640Z" glyph-name="radical" horiz-adv-x="1632" unicode="&#8730;" /><glyph d="M704 1371 416 1819 288 1723 608 1243H800L1120 1723L992 1819ZM1120 777Q1120 849 1109.5 896.5Q1099 944 1060 972.5Q1021 1001 944.5 1012.5Q868 1024 736 1024Q607 1024 526 1001.5Q445 979 399 938Q353 897 336.5 840Q320 783 320 713V0H128V1152H320V969Q330 1000 357 1037.5Q384 1075 439 1107.5Q494 1140 581.5 1162Q669 1184 800 1184Q950 1184 1044 1157.5Q1138 1131 1190.5 1079.5Q1243 1028 1261.5 952Q1280 876 1280 777Z" glyph-name="rcaron" horiz-adv-x="1280" unicode="&#345;" /><glyph d="M160 -121H352L224 -505H96ZM1120 777Q1120 849 1109.5 896.5Q1099 944 1060 972.5Q1021 1001 944.5 1012.5Q868 1024 736 1024Q607 1024 526 1001.5Q445 979 399 938Q353 897 336.5 840Q320 783 320 713V0H128V1152H320V969Q330 1000 357 1037.5Q384 1075 439 1107.5Q494 1140 581.5 1162Q669 1184 800 1184Q950 1184 1044 1157.5Q1138 1131 1190.5 1079.5Q1243 1028 1261.5 952Q1280 876 1280 777Z" glyph-name="rcommaaccent" horiz-adv-x="1280" unicode="&#343;" /><glyph d="M1405 536Q1405 606 1396.5 662Q1388 718 1362 758.5Q1336 799 1288 824.5Q1240 850 1160 860Q1240 865 1288 889.5Q1336 914 1362 947.5Q1388 981 1396 1018.5Q1404 1056 1404 1088Q1403 1158 1381 1212Q1359 1266 1299 1302.5Q1239 1339 1133.5 1357.5Q1028 1376 860 1376H573V384H733V800H828Q923 800 991 796Q1059 792 1105 781.5Q1151 771 1178.5 752.5Q1206 734 1220.5 704.5Q1235 675 1239.5 633.5Q1244 592 1244 536V384H1405ZM733 1248H860Q980 1248 1055 1239.5Q1130 1231 1172 1212Q1214 1193 1229 1162.5Q1244 1132 1244 1088Q1244 1042 1229 1011.5Q1214 981 1172 962.5Q1130 944 1055 936Q980 928 860 928H733ZM960 1664Q784 1664 654 1642.5Q524 1621 431.5 1577.5Q339 1534 280 1468Q221 1402 187 1313Q153 1224 140.5 1112Q128 1000 128 864Q128 728 140.5 616Q153 504 187 415Q221 326 280 260Q339 194 431.5 150.5Q524 107 654 85.5Q784 64 960 64Q1136 64 1266 85.5Q1396 107 1488.5 150.5Q1581 194 1640 260Q1699 326 1733 415Q1767 504 1779.5 616Q1792 728 1792 864Q1792 1000 1779.5 1112Q1767 1224 1733 1313Q1699 1402 1640 1468Q1581 1534 1488.5 1577.5Q1396 1621 1266 1642.5Q1136 1664 960 1664ZM960 224Q832 224 735 231.5Q638 239 566.5 262Q495 285 448 328Q401 371 372.5 442Q344 513 332 616.5Q320 720 320 864Q320 1008 332 1111.5Q344 1215 372.5 1286Q401 1357 448 1400Q495 1443 566.5 1466Q638 1489 735 1496.5Q832 1504 960 1504Q1088 1504 1185 1496.5Q1282 1489 1353.5 1466Q1425 1443 1472 1400Q1519 1357 1547.5 1286Q1576 1215 1588 1111.5Q1600 1008 1600 864Q1600 720 1588 616.5Q1576 513 1547.5 442Q1519 371 1472 328Q1425 285 1353.5 262Q1282 239 1185 231.5Q1088 224 960 224Z" glyph-name="registered" horiz-adv-x="1920" unicode="&#174;" /><glyph d="M640 1920Q544 1920 477 1892.5Q410 1865 368 1820Q326 1775 307 1717.5Q288 1660 288 1600Q288 1540 307 1482.5Q326 1425 368 1380Q410 1335 477 1307.5Q544 1280 640 1280Q736 1280 803 1307.5Q870 1335 912 1380Q954 1425 973 1482.5Q992 1540 992 1600Q992 1660 973 1717.5Q954 1775 912 1820Q870 1865 803 1892.5Q736 1920 640 1920ZM640 1408Q580 1408 542.5 1424.5Q505 1441 484 1468Q463 1495 455.5 1529.5Q448 1564 448 1600Q448 1636 455.5 1670.5Q463 1705 484 1732Q505 1759 542.5 1775.5Q580 1792 640 1792Q700 1792 737.5 1775.5Q775 1759 796 1732Q817 1705 824.5 1670.5Q832 1636 832 1600Q832 1564 824.5 1529.5Q817 1495 796 1468Q775 1441 737.5 1424.5Q700 1408 640 1408Z" glyph-name="ring" horiz-adv-x="1280" unicode="&#730;" /><glyph d="M800 525Q912 525 991 521.5Q1070 518 1123.5 509.5Q1177 501 1208 488Q1239 475 1255 449.5Q1271 424 1275.5 398.5Q1280 373 1280 340Q1280 304 1275.5 274.5Q1271 245 1254 221Q1237 197 1204 180Q1171 163 1114 151Q1057 139 972.5 133.5Q888 128 768 128Q636 128 549.5 135.5Q463 143 412 164Q361 185 340.5 222.5Q320 260 320 320H128Q128 229 160.5 166Q193 103 268 63.5Q343 24 465.5 6Q588 -12 768 -12Q912 -12 1020.5 -3.5Q1129 5 1207 22.5Q1285 40 1336.5 68.5Q1388 97 1418 136.5Q1448 176 1460 227.5Q1472 279 1472 344Q1472 409 1460 458.5Q1448 508 1418.5 544.5Q1389 581 1340 612Q1291 643 1216 658Q1141 673 1038.5 679Q936 685 800 685Q688 685 609 685.5Q530 686 476.5 691.5Q423 697 392 708Q361 719 345 740Q329 761 324.5 793.5Q320 826 320 860Q320 918 346 951Q372 984 432 1000Q492 1016 590 1020Q688 1024 832 1024Q964 1024 1050.5 1016.5Q1137 1009 1188 989.5Q1239 970 1259.5 936Q1280 902 1280 848H1472Q1472 935 1443 998Q1414 1061 1341.5 1102.5Q1269 1144 1145.5 1164Q1022 1184 832 1184Q640 1184 506 1167Q372 1150 288 1111.5Q204 1073 166 1011.5Q128 950 128 860Q128 794 140 737.5Q152 681 181 642.5Q210 604 259.5 581Q309 558 383.5 545.5Q458 533 561 529Q664 525 800 525Z" glyph-name="s" horiz-adv-x="1600" unicode="&#383;" /><glyph d="M1472 1627 1344 1819 768 1339 832 1243ZM800 525Q912 525 991 521.5Q1070 518 1123.5 509.5Q1177 501 1208 488Q1239 475 1255 449.5Q1271 424 1275.5 398.5Q1280 373 1280 340Q1280 304 1275.5 274.5Q1271 245 1254 221Q1237 197 1204 180Q1171 163 1114 151Q1057 139 972.5 133.5Q888 128 768 128Q636 128 549.5 135.5Q463 143 412 164Q361 185 340.5 222.5Q320 260 320 320H128Q128 229 160.5 166Q193 103 268 63.5Q343 24 465.5 6Q588 -12 768 -12Q912 -12 1020.5 -3.5Q1129 5 1207 22.5Q1285 40 1336.5 68.5Q1388 97 1418 136.5Q1448 176 1460 227.5Q1472 279 1472 344Q1472 409 1460 458.5Q1448 508 1418.5 544.5Q1389 581 1340 612Q1291 643 1216 658Q1141 673 1038.5 679Q936 685 800 685Q688 685 609 685.5Q530 686 476.5 691.5Q423 697 392 708Q361 719 345 740Q329 761 324.5 793.5Q320 826 320 860Q320 918 346 951Q372 984 432 1000Q492 1016 590 1020Q688 1024 832 1024Q964 1024 1050.5 1016.5Q1137 1009 1188 989.5Q1239 970 1259.5 936Q1280 902 1280 848H1472Q1472 935 1443 998Q1414 1061 1341.5 1102.5Q1269 1144 1145.5 1164Q1022 1184 832 1184Q640 1184 506 1167Q372 1150 288 1111.5Q204 1073 166 1011.5Q128 950 128 860Q128 794 140 737.5Q152 681 181 642.5Q210 604 259.5 581Q309 558 383.5 545.5Q458 533 561 529Q664 525 800 525Z" glyph-name="sacute" horiz-adv-x="1600" unicode="&#347;" /><glyph d="M800 525Q912 525 991 521.5Q1070 518 1123.5 509.5Q1177 501 1208 488Q1239 475 1255 449.5Q1271 424 1275.5 398.5Q1280 373 1280 340Q1280 304 1275.5 274.5Q1271 245 1254 221Q1237 197 1204 180Q1171 163 1114 151Q1057 139 972.5 133.5Q888 128 768 128Q636 128 549.5 135.5Q463 143 412 164Q361 185 340.5 222.5Q320 260 320 320H128Q128 229 160.5 166Q193 103 268 63.5Q343 24 465.5 6Q588 -12 768 -12Q912 -12 1020.5 -3.5Q1129 5 1207 22.5Q1285 40 1336.5 68.5Q1388 97 1418 136.5Q1448 176 1460 227.5Q1472 279 1472 344Q1472 409 1460 458.5Q1448 508 1418.5 544.5Q1389 581 1340 612Q1291 643 1216 658Q1141 673 1038.5 679Q936 685 800 685Q688 685 609 685.5Q530 686 476.5 691.5Q423 697 392 708Q361 719 345 740Q329 761 324.5 793.5Q320 826 320 860Q320 918 346 951Q372 984 432 1000Q492 1016 590 1020Q688 1024 832 1024Q964 1024 1050.5 1016.5Q1137 1009 1188 989.5Q1239 970 1259.5 936Q1280 902 1280 848H1472Q1472 935 1443 998Q1414 1061 1341.5 1102.5Q1269 1144 1145.5 1164Q1022 1184 832 1184Q640 1184 506 1167Q372 1150 288 1111.5Q204 1073 166 1011.5Q128 950 128 860Q128 794 140 737.5Q152 681 181 642.5Q210 604 259.5 581Q309 558 383.5 545.5Q458 533 561 529Q664 525 800 525ZM800 1408 512 1856 384 1760 704 1280H896L1216 1760L1088 1856Z" glyph-name="scaron" horiz-adv-x="1600" unicode="&#353;" /><glyph d="M704 -459Q752 -459 788 -457.5Q824 -456 848 -447Q872 -438 884 -418.5Q896 -399 896 -363Q896 -351 893 -339.5Q890 -328 872 -319Q854 -310 815 -304.5Q776 -299 704 -299V-11Q634.5 -9.5 574.75 -5.25Q515 -1 465 6Q343 24 268 63.5Q193 103 160.5 166Q144.25 197.5 136.125 236Q128 274.5 128 320H320Q320 260 340.5 222.5Q361 185 412 164Q463 143 549.5 135.5Q636 128 768 128Q888 128 972.5 133.5Q1057 139 1114 151Q1171 163 1204 180Q1237 197 1254 221Q1271 245 1275.5 274.5Q1280 304 1280 340Q1280 373 1275.5 398.5Q1271 424 1255 443Q1239 462 1208 475Q1177 488 1123.5 496.5Q1070 505 991 508.5Q912 512 800 512Q664 512 561 516Q458 520 383.5 532.5Q309 545 259.5 568Q210 591 181 629.5Q152 668 140 724.5Q128 781 128 860Q128 950 166 1011.5Q204 1073 288 1111.5Q372 1150 506 1167Q640 1184 832 1184Q1022 1184 1145.5 1164Q1269 1144 1341.5 1102.5Q1414 1061 1443 998Q1472 935 1472 848H1280Q1280 902 1259.5 936Q1239 970 1188 989.5Q1137 1009 1050.5 1016.5Q964 1024 832 1024Q688 1024 590 1020Q492 1016 432 1000Q372 984 346 951Q320 918 320 860Q320 813 324.5 780.5Q329 748 345 727Q361 706 392 695Q423 684 476.5 678.5Q530 673 609 672.5Q688 672 800 672Q936 672 1038.5 666Q1141 660 1216 645Q1291 630 1340 605.5Q1389 581 1418.5 544.5Q1448 508 1460 458.5Q1472 409 1472 344Q1472 279 1460 227.5Q1448 176 1418 136.5Q1388 97 1336.5 68.5Q1285 40 1207 22.5Q1168 13.75 1121.25 7.375Q1074.5 1 1020 -3Q978.5 -6.5 931.5 -8.5Q884.5 -10.5 832 -11V-203Q880 -203 926 -210Q972 -217 1008 -235Q1044 -253 1066 -284Q1088 -315 1088 -363Q1088 -447 1055 -497.5Q1022 -548 968 -575Q914 -602 845 -610.5Q776 -619 704 -619Z" glyph-name="scedilla" horiz-adv-x="1600" unicode="&#351;" /><glyph d="M1120 1244 1248 1340 928 1820H736L416 1340L544 1244L832 1692ZM800 525Q912 525 991 521.5Q1070 518 1123.5 509.5Q1177 501 1208 488Q1239 475 1255 449.5Q1271 424 1275.5 398.5Q1280 373 1280 340Q1280 304 1275.5 274.5Q1271 245 1254 221Q1237 197 1204 180Q1171 163 1114 151Q1057 139 972.5 133.5Q888 128 768 128Q636 128 549.5 135.5Q463 143 412 164Q361 185 340.5 222.5Q320 260 320 320H128Q128 229 160.5 166Q193 103 268 63.5Q343 24 465.5 6Q588 -12 768 -12Q912 -12 1020.5 -3.5Q1129 5 1207 22.5Q1285 40 1336.5 68.5Q1388 97 1418 136.5Q1448 176 1460 227.5Q1472 279 1472 344Q1472 409 1460 458.5Q1448 508 1418.5 544.5Q1389 581 1340 612Q1291 643 1216 658Q1141 673 1038.5 679Q936 685 800 685Q688 685 609 685.5Q530 686 476.5 691.5Q423 697 392 708Q361 719 345 740Q329 761 324.5 793.5Q320 826 320 860Q320 918 346 951Q372 984 432 1000Q492 1016 590 1020Q688 1024 832 1024Q964 1024 1050.5 1016.5Q1137 1009 1188 989.5Q1239 970 1259.5 936Q1280 902 1280 848H1472Q1472 935 1443 998Q1414 1061 1341.5 1102.5Q1269 1144 1145.5 1164Q1022 1184 832 1184Q640 1184 506 1167Q372 1150 288 1111.5Q204 1073 166 1011.5Q128 950 128 860Q128 794 140 737.5Q152 681 181 642.5Q210 604 259.5 581Q309 558 383.5 545.5Q458 533 561 529Q664 525 800 525Z" glyph-name="scircumflex" horiz-adv-x="1600" unicode="&#349;" /><glyph d="M704 480Q816 480 895 476.5Q974 473 1027.5 465.5Q1081 458 1112 446Q1143 434 1159 416Q1175 398 1179.5 374.5Q1184 351 1184 320Q1184 287 1179.5 260.5Q1175 234 1158 212.5Q1141 191 1108 175Q1075 159 1018 148.5Q961 138 876.5 133Q792 128 672 128Q570 128 503 135.5Q436 143 396 164Q356 185 340 222.5Q324 260 324 320H132Q132 224 159.5 157Q187 90 250 48Q313 6 416.5 -13Q520 -32 672 -32Q816 -32 924.5 -23.5Q1033 -15 1111 2.5Q1189 20 1240.5 48.5Q1292 77 1322 116.5Q1352 156 1364 207.5Q1376 259 1376 324Q1376 404 1356.5 459.5Q1337 515 1286 551Q1329 611 1351.5 662.5Q1374 714 1374 757Q1374 807 1340.5 845Q1307 883 1237 908.5Q1167 934 1058.5 947Q950 960 800 960Q688 960 609 963.5Q530 967 476.5 974.5Q423 982 392.5 994Q362 1006 346 1024Q330 1042 325.5 1065.5Q321 1089 321 1120Q321 1152 325.5 1179Q330 1206 347 1227.5Q364 1249 397 1265Q430 1281 487 1291.5Q544 1302 628.5 1307Q713 1312 833 1312Q935 1312 1002 1304.5Q1069 1297 1109 1276Q1149 1255 1165 1217.5Q1181 1180 1181 1120H1373Q1373 1216 1345.5 1283Q1318 1350 1255 1392Q1192 1434 1088.5 1453Q985 1472 833 1472Q689 1472 580.5 1463.5Q472 1455 394 1437.5Q316 1420 264.5 1391.5Q213 1363 183 1323.5Q153 1284 141 1232.5Q129 1181 129 1116Q129 1035 149 979.5Q169 924 220 887Q177 835 152.5 788Q128 741 128 699Q128 666 135.5 636.5Q143 607 164.5 583Q186 559 225.5 539.5Q265 520 329 507Q393 494 485 487Q577 480 704 480ZM704 640Q584 640 509 644Q434 648 392.5 658Q351 668 336 686Q321 704 321 733Q321 752 330.5 776.5Q340 801 352 832Q426 815 536 807.5Q646 800 801 800Q907 800 980.5 796Q1054 792 1100 782Q1146 772 1166 754Q1186 736 1186 708Q1186 688 1177.5 663.5Q1169 639 1153 607Q1076 625 966 632.5Q856 640 704 640Z" glyph-name="section" horiz-adv-x="1504" unicode="&#167;" /><glyph d="M128 512H320L192 128H64ZM320 768H128V960H320Z" glyph-name="semicolon" horiz-adv-x="448" unicode=";" /><glyph d="M737 0H481L1665 1376H161V1536H1889V1344Z" glyph-name="seven" horiz-adv-x="2050" unicode="7" /><glyph d="M993 1408Q838 1408 730.5 1403Q623 1398 552 1380Q481 1361 441 1324Q401 1287 382 1223Q362 1159 357.5 1063.5Q353 968 353 832Q431 879 555 903.5Q679 928 865 928H1186Q1402 928 1539 898Q1676 868 1754 808Q1831 748 1860 658Q1889 568 1889 448Q1889 328 1860 238Q1831 148 1754 88Q1676 28 1539 -2Q1402 -32 1186 -32H865Q689 -32 568.5 -10.5Q448 11 370 55Q291 98 249 164Q207 230 188 319Q168 408 164.5 520Q161 632 161 768Q161 912 165 1027.5Q169 1143 192 1232Q215 1320 265 1384Q315 1448 408 1489Q500 1529 642.5 1548.5Q785 1568 993 1568Q1169 1568 1299 1555Q1429 1542 1522 1516Q1614 1490 1673 1452Q1732 1414 1766 1364Q1799 1314 1811.5 1253Q1824 1192 1824 1120H1665Q1665 1160 1659.5 1197Q1654 1234 1633 1266Q1612 1298 1569 1324Q1526 1350 1452 1369Q1377 1388 1265 1398Q1153 1408 993 1408ZM865 768Q760 768 681 765.5Q602 763 546 754Q489 745 451.5 728Q414 711 393 683Q371 654 362 612Q353 570 353 512Q353 432 362 372.5Q371 313 393 271Q414 228 451.5 200Q489 172 546 156Q602 140 681 134Q760 128 865 128H1186Q1298 128 1379.5 134Q1461 140 1518 154Q1574 168 1609.5 192Q1645 216 1665 252Q1684 287 1690.5 335.5Q1697 384 1697 448Q1697 512 1690 560.5Q1683 609 1664 645Q1644 680 1609 704Q1574 728 1517 742Q1460 756 1379 762Q1298 768 1186 768Z" glyph-name="six" horiz-adv-x="2050" unicode="6" /><glyph d="M768 1536H960L256 0H64Z" glyph-name="slash" horiz-adv-x="1023" unicode="/" /><glyph glyph-name="space" horiz-adv-x="448" unicode=" " /><glyph d="M64 800H256V958Q256 1078 268 1170Q280 1262 310 1330Q340 1398 391.5 1443.5Q443 1489 521.5 1517Q600 1545 708 1557Q816 1569 960 1569Q1131 1569 1242.5 1545.5Q1354 1522 1419 1473.5Q1484 1425 1510 1350.5Q1536 1276 1536 1173H1344Q1344 1210 1342 1242Q1340 1274 1328.5 1300Q1317 1326 1293.5 1346.5Q1270 1367 1227.5 1381Q1185 1395 1119.5 1402Q1054 1409 960 1409Q832 1409 744.5 1400Q657 1391 600 1370.5Q543 1350 512 1315.5Q481 1281 467 1231Q453 1181 450.5 1113.5Q448 1046 448 958V800H1280V640H448V160H1472V0H256V640H64Z" glyph-name="sterling" horiz-adv-x="1663" unicode="&#163;" /><glyph d="M864 736 320 160H1536V0H128V176L704 784L128 1360V1536H1536V1376H320L864 832Z" glyph-name="summation" horiz-adv-x="1664" unicode="&#8721;" /><glyph d="M1248 512Q1248 365 1224 266.5Q1200 168 1143.5 109Q1087 50 995 25Q903 0 768 0Q637 0 548 20Q459 40 404 88Q349 136 325 216Q301 296 301 416V994H64V1152H301V1467H493V1152H1216V994H493V416Q493 320 507.5 268Q522 216 554 192Q586 168 638.5 164Q691 160 767 160Q827 160 874.5 162Q922 164 957.5 174.5Q993 185 1018 206.5Q1043 228 1058.5 267Q1074 306 1081 365.5Q1088 425 1088 512Z" glyph-name="t" horiz-adv-x="1376" unicode="t" /><glyph d="M1312 512Q1312 365 1288 266.5Q1264 168 1207.5 109Q1151 50 1059 25Q967 0 832 0Q701 0 612 20Q523 40 468 88Q413 136 389 216Q365 296 365 416V994H128V1152H365V1467H557V1152H1280V994H557V416Q557 320 571.5 268Q586 216 618 192Q650 168 702.5 164Q755 160 831 160Q891 160 938.5 162Q986 164 1021.5 174.5Q1057 185 1082 206.5Q1107 228 1122.5 267Q1138 306 1145 365.5Q1152 425 1152 512ZM128 672H896V512H128Z" glyph-name="tbar" horiz-adv-x="1440" unicode="&#359;" /><glyph d="M804 1664H996L868 1280H740ZM1312 512Q1312 365 1288 266.5Q1264 168 1207.5 109Q1151 50 1059 25Q967 0 832 0Q701 0 612 20Q523 40 468 88Q413 136 389 216Q365 296 365 416V994H128V1152H365V1467H557V1152H1280V994H557V416Q557 320 571.5 268Q586 216 618 192Q650 168 702.5 164Q755 160 831 160Q891 160 938.5 162Q986 164 1021.5 174.5Q1057 185 1082 206.5Q1107 228 1122.5 267Q1138 306 1145 365.5Q1152 425 1152 512Z" glyph-name="tcaron" horiz-adv-x="1440" unicode="&#357;" /><glyph d="M768 -427Q816 -427 852 -425.5Q888 -424 912 -415Q936 -406 948 -386.5Q960 -367 960 -331Q960 -319 957 -307.5Q954 -296 936 -287Q918 -278 879 -272.5Q840 -267 768 -267V21H896V-171Q944 -171 990 -178Q1036 -185 1072 -203Q1108 -221 1130 -252Q1152 -283 1152 -331Q1152 -415 1119 -465.5Q1086 -516 1032 -543Q978 -570 909 -578.5Q840 -587 768 -587ZM1312 512Q1312 365 1288 266.5Q1264 168 1207.5 109Q1151 50 1059 25Q967 0 832 0Q701 0 612 20Q523 40 468 88Q413 136 389 216Q365 296 365 416V994H128V1152H365V1467H557V1152H1280V994H557V416Q557 320 571.5 268Q586 216 618 192Q650 168 702.5 164Q755 160 831 160Q891 160 938.5 162Q986 164 1021.5 174.5Q1057 185 1082 206.5Q1107 228 1122.5 267Q1138 306 1145 365.5Q1152 425 1152 512Z" glyph-name="tcommaaccent" horiz-adv-x="1440" unicode="&#355;" /><glyph d="M832 1120Q748 1120 681.5 1113Q615 1106 563 1095Q511 1084 473 1069.5Q435 1055 408 1040Q376.5 1022.5 354.5 1002.75Q332.5 983 320 961V1536H128V-384H320V128Q332.5 105.5 354.5 85.5Q376.5 65.5 408 48Q435 33 473 18.5Q511 4 563 -7Q615 -18 681.5 -25Q748 -32 832 -32Q1024 -32 1158 -5Q1292 22 1376 88Q1460 154 1498 265Q1536 376 1536 544Q1536 712 1498 823Q1460 934 1376 1000Q1292 1066 1158 1093Q1024 1120 832 1120ZM832 960Q944 960 1025.5 953.5Q1107 947 1164 930Q1221 913 1256.5 884Q1292 855 1311.5 808.5Q1331 762 1337.5 697Q1344 632 1344 544Q1344 456 1337.5 391Q1331 326 1311.5 279.5Q1292 233 1256.5 204Q1221 175 1164 158Q1107 141 1025.5 134.5Q944 128 832 128Q736 128 661 132Q586 136 529 150.5Q472 165 432.5 192.5Q393 220 368 266.5Q343 313 331.5 381.5Q320 450 320 547Q320 642 331.5 710Q343 778 368 823.5Q393 869 432.5 896Q472 923 529 937.5Q586 952 661 956Q736 960 832 960Z" glyph-name="thorn" horiz-adv-x="1600" unicode="&#254;" /><glyph d="M1505 864Q1553 864 1589 872Q1625 880 1649 904Q1672 927 1684 971Q1696 1015 1696 1087Q1696 1167 1684 1222Q1672 1277 1644 1313Q1616 1349 1568.5 1368Q1521 1387 1450 1396Q1379 1405 1282 1406.5Q1185 1408 1057 1408Q881 1408 760.5 1403.5Q640 1399 562 1387Q483 1374 441 1352Q399 1330 380 1295Q360 1259 356.5 1208Q353 1157 353 1088H161Q161 1209 187.5 1292Q214 1375 266 1429Q317 1482 393 1510.5Q469 1539 569 1552Q668 1564 790.5 1566Q913 1568 1057 1568Q1201 1568 1318.5 1563.5Q1436 1559 1529 1543Q1621 1527 1689 1496Q1757 1465 1802 1412Q1846 1358 1867.5 1279Q1889 1200 1889 1088Q1889 1016 1879.5 966Q1870 916 1851 882Q1831 847 1801 824.5Q1771 802 1729 784Q1771 766 1801 738Q1831 710 1851 670Q1870 629 1879.5 574.5Q1889 520 1889 448Q1889 336 1867.5 257Q1846 178 1802 125Q1757 71 1689 40Q1621 9 1529 -7Q1436 -23 1318.5 -27.5Q1201 -32 1057 -32Q913 -32 790.5 -30Q668 -28 569 -14Q469 0 393 30.5Q317 61 266 118Q214 175 187.5 263Q161 351 161 480H353Q353 404 357 348.5Q361 293 380 254Q399 215 441 190.5Q483 166 562 152Q640 138 760.5 133Q881 128 1057 128Q1185 128 1282 129.5Q1379 131 1450 140Q1521 149 1568.5 168Q1616 187 1644 223Q1672 259 1684 314Q1696 369 1696 449Q1696 533 1684 583.5Q1672 634 1649 661Q1625 688 1589 696Q1553 704 1505 704H801V864Z" glyph-name="three" horiz-adv-x="2050" unicode="3" /><glyph d="M768 1056V896H959Q975 896 995.5 896.5Q1016 897 1037 894.5Q1058 892 1078.5 883.5Q1099 875 1115 857Q1131 839 1140.5 809Q1150 779 1150 734Q1150 674 1133 641.5Q1116 609 1073.5 594.5Q1031 580 957 578Q883 576 769 576Q658 576 581.5 577Q505 578 455 581.5Q405 585 378 593Q351 601 338 615.5Q325 630 322.5 651Q320 672 320 703H128Q128 625 146.5 573Q165 521 201.5 489.5Q238 458 292.5 442.5Q347 427 418 421Q489 415 577 415.5Q665 416 769 416Q917 416 1025 423Q1133 430 1203.5 460.5Q1274 491 1308.5 555Q1343 619 1343 733Q1343 794 1333.5 833.5Q1324 873 1304.5 899Q1285 925 1255 942Q1225 959 1183 976Q1225 989 1255 1007.5Q1285 1026 1304.5 1054Q1324 1082 1333.5 1122Q1343 1162 1343 1218Q1343 1299 1328 1354.5Q1313 1410 1282 1445Q1251 1480 1204 1499Q1157 1518 1093 1526Q1029 1534 948 1535Q867 1536 769 1536Q665 1536 577 1537Q489 1538 418 1532Q347 1526 292.5 1508.5Q238 1491 201.5 1456Q165 1421 146.5 1363Q128 1305 128 1218H320Q320 1256 322.5 1283Q325 1310 338 1327.5Q351 1345 378 1355Q405 1365 455 1369.5Q505 1374 581.5 1375Q658 1376 769 1376Q883 1376 957 1377Q1031 1378 1073.5 1365Q1116 1352 1133 1319Q1150 1286 1150 1217Q1150 1167 1138 1135.5Q1126 1104 1102.5 1086.5Q1079 1069 1043 1062.5Q1007 1056 959 1056ZM1920 1536H2112L1408 0H1216ZM2944 192V352H2752V1088H2496L1728 384V192H2560V0H2752V192ZM1920 352 2560 960V352Z" glyph-name="threequarters" horiz-adv-x="3072" unicode="&#190;" /><glyph d="M768 1056V896H959Q975 896 995.5 896.5Q1016 897 1037 894.5Q1058 892 1078.5 883.5Q1099 875 1115 857Q1131 839 1140.5 809Q1150 779 1150 734Q1150 674 1133 641.5Q1116 609 1073.5 594.5Q1031 580 957 578Q883 576 769 576Q658 576 581.5 577Q505 578 455 581.5Q405 585 378 593Q351 601 338 615.5Q325 630 322.5 651Q320 672 320 703H128Q128 625 146.5 573Q165 521 201.5 489.5Q238 458 292.5 442.5Q347 427 418 421Q489 415 577 415.5Q665 416 769 416Q917 416 1025 423Q1133 430 1203.5 460.5Q1274 491 1308.5 555Q1343 619 1343 733Q1343 794 1333.5 833.5Q1324 873 1304.5 899Q1285 925 1255 942Q1225 959 1183 976Q1225 989 1255 1007.5Q1285 1026 1304.5 1054Q1324 1082 1333.5 1122Q1343 1162 1343 1218Q1343 1299 1328 1354.5Q1313 1410 1282 1445Q1251 1480 1204 1499Q1157 1518 1093 1526Q1029 1534 948 1535Q867 1536 769 1536Q665 1536 577 1537Q489 1538 418 1532Q347 1526 292.5 1508.5Q238 1491 201.5 1456Q165 1421 146.5 1363Q128 1305 128 1218H320Q320 1256 322.5 1283Q325 1310 338 1327.5Q351 1345 378 1355Q405 1365 455 1369.5Q505 1374 581.5 1375Q658 1376 769 1376Q883 1376 957 1377Q1031 1378 1073.5 1365Q1116 1352 1133 1319Q1150 1286 1150 1217Q1150 1167 1138 1135.5Q1126 1104 1102.5 1086.5Q1079 1069 1043 1062.5Q1007 1056 959 1056Z" glyph-name="threesuperior" horiz-adv-x="1471" unicode="&#179;" /><glyph d="M384 1440Q429 1440 467.5 1425Q506 1410 549 1392Q592 1374 644 1359Q696 1344 768 1344Q804 1344 848.5 1356.5Q893 1369 932 1398.5Q971 1428 997.5 1477Q1024 1526 1024 1600H832Q832 1570 828 1551Q824 1532 816 1521.5Q808 1511 796 1507.5Q784 1504 768 1504Q723 1504 684.5 1519Q646 1534 603 1552.5Q560 1571 508 1586Q456 1601 384 1601Q348 1601 303.5 1589.5Q259 1578 220 1549Q181 1520 154.5 1470Q128 1420 128 1344H320Q320 1375 324 1394Q328 1413 336 1423Q344 1433 356 1436.5Q368 1440 384 1440Z" glyph-name="tilde" horiz-adv-x="1152" unicode="&#732;" /><glyph d="M128 1536V1408H512V704H704V1408H1088V1536ZM1823 704H2017L2432 1387V704H2624V1536H2318L1920 864L1536 1536H1216V704H1408V1408Z" glyph-name="trademark" horiz-adv-x="2752" unicode="&#8482;" /><glyph d="M161 192Q161 252 164 311.5Q167 371 178 426Q188 480 208.5 528Q229 576 265 613Q300 649 353 673Q406 697 481 704L1505 800Q1553 804 1589 814Q1625 824 1649 853Q1672 881 1684 936Q1696 991 1696 1087Q1696 1167 1684 1222Q1672 1277 1644 1313Q1616 1349 1568.5 1368Q1521 1387 1450 1396Q1379 1405 1282 1406.5Q1185 1408 1057 1408Q881 1408 760.5 1401.5Q640 1395 562 1378Q483 1361 441 1332Q399 1303 380 1257Q360 1210 356.5 1145Q353 1080 353 992H161Q161 1136 187.5 1234.5Q214 1333 266 1397Q317 1461 393 1496Q469 1531 569 1547Q668 1563 790.5 1565.5Q913 1568 1057 1568Q1201 1568 1318.5 1563.5Q1436 1559 1529 1543Q1621 1527 1689 1496Q1757 1465 1802 1412Q1846 1358 1867.5 1279Q1889 1200 1889 1088Q1889 992 1875 913.5Q1861 835 1825 777Q1789 719 1727 684Q1665 649 1569 640L545 544Q472 537 433 517Q394 497 376 454Q358 410 355.5 339Q353 268 353 160H1857V0H161Z" glyph-name="two" horiz-adv-x="2050" unicode="2" /><glyph d="M128 448H1186V608H320Q320 648 321.5 676Q323 704 332 723.5Q341 743 360.5 757Q380 771 415.5 782.5Q451 794 505.5 805.5Q560 817 640 833L898 884Q991 902 1052.5 931.5Q1114 961 1150.5 1004Q1187 1047 1201.5 1106Q1216 1165 1216 1243Q1216 1359 1182.5 1424.5Q1149 1490 1081.5 1522Q1014 1554 912 1561Q810 1568 673 1568Q584 1568 509 1566Q434 1564 373 1555Q312 1546 266.5 1526.5Q221 1507 190 1471.5Q159 1436 143.5 1381.5Q128 1327 128 1248H320Q320 1281 321 1306Q322 1331 331 1349Q340 1367 360 1378.5Q380 1390 419.5 1396.5Q459 1403 520.5 1405.5Q582 1408 673 1408Q775 1408 842.5 1404.5Q910 1401 950.5 1385Q991 1369 1007.5 1335.5Q1024 1302 1024 1242Q1024 1182 1011.5 1145.5Q999 1109 975 1087.5Q951 1066 915.5 1055Q880 1044 834 1035L448 962Q338 941 274.5 913Q211 885 178.5 849Q146 813 137 769Q128 725 128 672Z" glyph-name="twosuperior" horiz-adv-x="1344" unicode="&#178;" /><glyph d="M321 1152V512Q321 405 337 331.5Q353 258 401 213Q449 168 537 148Q625 128 769 128Q925 128 1024.5 151Q1124 174 1181 216Q1238 258 1259.5 317Q1281 376 1281 448V1152H1473V0H1281V192Q1267 161 1234 123.5Q1201 86 1135 54Q1069 22 964.5 0Q860 -22 705 -22Q576 -22 483.5 -6.5Q391 9 326.5 39.5Q262 70 223 115Q184 160 163 219.5Q142 279 135 352Q128 425 128 512L129 1152Z" glyph-name="u" horiz-adv-x="1601" unicode="u" /><glyph d="M321 1152V512Q321 405 337 331.5Q353 258 401 213Q449 168 537 148Q625 128 769 128Q925 128 1024.5 151Q1124 174 1181 216Q1238 258 1259.5 317Q1281 376 1281 448V1152H1473V0H1281V192Q1267 161 1234 123.5Q1201 86 1135 54Q1069 22 964.5 0Q860 -22 705 -22Q576 -22 483.5 -6.5Q391 9 326.5 39.5Q262 70 223 115Q184 160 163 219.5Q142 279 135 352Q128 425 128 512L129 1152ZM1153 1664 1025 1856 449 1376 513 1280Z" glyph-name="uacute" horiz-adv-x="1602" unicode="&#250;" /><glyph d="M417 1564Q417 1396 513 1320Q609 1244 801 1244Q993 1244 1089 1320Q1185 1396 1185 1564H1025Q1025 1492 1008 1453Q991 1414 961 1396Q931 1378 890 1375Q849 1372 801 1372Q753 1372 712 1375Q671 1378 641 1396Q611 1414 594 1453Q577 1492 577 1564ZM321 1152V512Q321 405 337 331.5Q353 258 401 213Q449 168 537 148Q625 128 769 128Q925 128 1024.5 151Q1124 174 1181 216Q1238 258 1259.5 317Q1281 376 1281 448V1152H1473V0H1281V192Q1267 161 1234 123.5Q1201 86 1135 54Q1069 22 964.5 0Q860 -22 705 -22Q576 -22 483.5 -6.5Q391 9 326.5 39.5Q262 70 223 115Q184 160 163 219.5Q142 279 135 352Q128 425 128 512L129 1152Z" glyph-name="ubreve" horiz-adv-x="1601" unicode="&#365;" /><glyph d="M321 1152V512Q321 405 337 331.5Q353 258 401 213Q449 168 537 148Q625 128 769 128Q925 128 1024.5 151Q1124 174 1181 216Q1238 258 1259.5 317Q1281 376 1281 448V1152H1473V0H1281V192Q1267 161 1234 123.5Q1201 86 1135 54Q1069 22 964.5 0Q860 -22 705 -22Q576 -22 483.5 -6.5Q391 9 326.5 39.5Q262 70 223 115Q184 160 163 219.5Q142 279 135 352Q128 425 128 512L129 1152ZM1089 1280 1217 1376 897 1856H705L385 1376L513 1280L801 1728Z" glyph-name="ucircumflex" horiz-adv-x="1602" unicode="&#251;" /><glyph d="M321 1152V512Q321 405 337 331.5Q353 258 401 213Q449 168 537 148Q625 128 769 128Q925 128 1024.5 151Q1124 174 1181 216Q1238 258 1259.5 317Q1281 376 1281 448V1152H1473V0H1281V192Q1267 161 1234 123.5Q1201 86 1135 54Q1069 22 964.5 0Q860 -22 705 -22Q576 -22 483.5 -6.5Q391 9 326.5 39.5Q262 70 223 115Q184 160 163 219.5Q142 279 135 352Q128 425 128 512L129 1152ZM513 1536H321V1344H513ZM1281 1536H1089V1344H1281Z" glyph-name="udieresis" horiz-adv-x="1602" unicode="&#252;" /><glyph d="M321 1152V512Q321 405 337 331.5Q353 258 401 213Q449 168 537 148Q625 128 769 128Q925 128 1024.5 151Q1124 174 1181 216Q1238 258 1259.5 317Q1281 376 1281 448V1152H1473V0H1281V192Q1267 161 1234 123.5Q1201 86 1135 54Q1069 22 964.5 0Q860 -22 705 -22Q576 -22 483.5 -6.5Q391 9 326.5 39.5Q262 70 223 115Q184 160 163 219.5Q142 279 135 352Q128 425 128 512L129 1152ZM449 1664 577 1856 1153 1376 1089 1280Z" glyph-name="ugrave" horiz-adv-x="1602" unicode="&#249;" /><glyph d="M1164 1627 1036 1819 460 1339 524 1243ZM1717 1627 1589 1819 1013 1339 1077 1243ZM321 1152V512Q321 405 337 331.5Q353 258 401 213Q449 168 537 148Q625 128 769 128Q925 128 1024.5 151Q1124 174 1181 216Q1238 258 1259.5 317Q1281 376 1281 448V1152H1473V0H1281V192Q1267 161 1234 123.5Q1201 86 1135 54Q1069 22 964.5 0Q860 -22 705 -22Q576 -22 483.5 -6.5Q391 9 326.5 39.5Q262 70 223 115Q184 160 163 219.5Q142 279 135 352Q128 425 128 512L129 1152Z" glyph-name="uhungarumlaut" horiz-adv-x="1602" unicode="&#369;" /><glyph d="M417 1244H1185V1404H417ZM321 1152V512Q321 405 337 331.5Q353 258 401 213Q449 168 537 148Q625 128 769 128Q925 128 1024.5 151Q1124 174 1181 216Q1238 258 1259.5 317Q1281 376 1281 448V1152H1473V0H1281V192Q1267 161 1234 123.5Q1201 86 1135 54Q1069 22 964.5 0Q860 -22 705 -22Q576 -22 483.5 -6.5Q391 9 326.5 39.5Q262 70 223 115Q184 160 163 219.5Q142 279 135 352Q128 425 128 512L129 1152Z" glyph-name="umacron" horiz-adv-x="1601" unicode="&#363;" /><glyph d="M0 0H1088V-160H0Z" glyph-name="underscore" horiz-adv-x="1088" unicode="_" /><glyph glyph-name="uni0002" horiz-adv-x="0" unicode="" /><glyph glyph-name="uni0009" horiz-adv-x="0" unicode="	" /><glyph glyph-name="uni000A" horiz-adv-x="0" unicode="&#10;" /><glyph glyph-name="uni00A0" horiz-adv-x="0" unicode="&#160;" /><glyph d="M0 704H128V0H1279Q1455 0 1575.5 20.5Q1696 41 1774.5 83Q1853 125 1895.5 188Q1938 251 1957.5 336.5Q1977 422 1980.5 529.5Q1984 637 1984 768Q1984 899 1980.5 1006.5Q1977 1114 1957.5 1199.5Q1938 1285 1895.5 1348Q1853 1411 1774.5 1453Q1696 1495 1575.5 1515.5Q1455 1536 1279 1536H128V864H0ZM320 160V704H768V864H320V1376H1279Q1407 1376 1494.5 1369Q1582 1362 1639 1340.5Q1696 1319 1727 1278Q1758 1237 1772.5 1169.5Q1787 1102 1789.5 1003.5Q1792 905 1792 768Q1792 631 1789.5 532.5Q1787 434 1772.5 366.5Q1758 299 1727 258Q1696 217 1639 195.5Q1582 174 1494 167Q1406 160 1279 160Z" glyph-name="uni0189" horiz-adv-x="2112" unicode="&#393;" /><glyph d="M128 -128H320V1600H128Z" glyph-name="uni01C0" horiz-adv-x="448" unicode="&#448;" /><glyph d="M576 -128H768V1600H576ZM128 -128H320V1600H128Z" glyph-name="uni01C1" horiz-adv-x="896" unicode="&#449;" /><glyph d="M2240 0V160L3726 1376H2304V1536H4000V1376L2506 160H4032V0ZM3135 1856 2847 2304 2719 2208 3039 1728H3231L3551 2208L3423 2304ZM1280 160Q1407 160 1495 167Q1583 174 1640 195.5Q1697 217 1728 258Q1759 299 1773.5 366.5Q1788 434 1790.5 532.5Q1793 631 1793 768Q1793 905 1790.5 1003.5Q1788 1102 1773.5 1169.5Q1759 1237 1728 1278Q1697 1319 1640 1340.5Q1583 1362 1495.5 1369Q1408 1376 1280 1376H321V160ZM129 0V1536H1280Q1456 1536 1576.5 1515.5Q1697 1495 1775.5 1453Q1854 1411 1896.5 1348Q1939 1285 1958.5 1199.5Q1978 1114 1981.5 1006.5Q1985 899 1985 768Q1985 637 1981.5 529.5Q1978 422 1958.5 336.5Q1939 251 1896.5 188Q1854 125 1775.5 83Q1697 41 1576.5 20.5Q1456 0 1280 0Z" glyph-name="uni01C4" horiz-adv-x="4158" unicode="&#452;" /><glyph d="M2304 1152V1011H3216L2240 160V0H3456V143H2494L3456 992V1152ZM2848 1408 2560 1856 2432 1760 2752 1280H2944L3264 1760L3136 1856ZM1280 160Q1407 160 1495 167Q1583 174 1640 195.5Q1697 217 1728 258Q1759 299 1773.5 366.5Q1788 434 1790.5 532.5Q1793 631 1793 768Q1793 905 1790.5 1003.5Q1788 1102 1773.5 1169.5Q1759 1237 1728 1278Q1697 1319 1640 1340.5Q1583 1362 1495.5 1369Q1408 1376 1280 1376H321V160ZM129 0V1536H1280Q1456 1536 1576.5 1515.5Q1697 1495 1775.5 1453Q1854 1411 1896.5 1348Q1939 1285 1958.5 1199.5Q1978 1114 1981.5 1006.5Q1985 899 1985 768Q1985 637 1981.5 529.5Q1978 422 1958.5 336.5Q1939 251 1896.5 188Q1854 125 1775.5 83Q1697 41 1576.5 20.5Q1456 0 1280 0Z" glyph-name="uni01C5" horiz-adv-x="3584" unicode="&#453;" /></font>
</defs>
</svg>
